<svg xmlns="http://www.w3.org/2000/svg" width="183" height="163" fill="none" viewBox="0 0 183 163"><rect width="149" height="149" x="13.5" y=".5" fill="url(#paint0_linear_2003_3651)" stroke="#CCE5FF" rx="23.5"/><g filter="url(#filter0_f_2003_3651)" opacity=".2"><path fill="url(#paint1_linear_2003_3651)" d="M109.544 56.0661C120.087 65.5541 144.83 75.6151 135.315 86.1282C125.799 96.6414 71.4113 126.673 48.7657 115.065C38.2222 105.577 58.2119 75.0267 67.7273 64.5135C77.2427 54.0004 99.0004 46.578 109.544 56.0661Z"/></g><rect width="30.776" height="57.336" x="72.746" y="29.666" stroke="#001D31" stroke-width="8" rx="15.388"/><mask id="mask0_2003_3651" width="40" height="67" x="68" y="25" maskUnits="userSpaceOnUse" style="mask-type:alpha"><rect width="30.776" height="57.336" x="72.746" y="29.666" stroke="#601CD9" stroke-width="8" rx="15.388"/></mask><g mask="url(#mask0_2003_3651)"><g filter="url(#filter1_f_2003_3651)"><rect width="36.776" height="63.336" x="69.746" y="26.666" stroke="#fff" stroke-width="2" rx="18.388"/></g></g><g filter="url(#filter2_d_2003_3651)" opacity=".5"><path fill="#fff" fill-rule="evenodd" d="M105.01 63.911C104.502 63.911 104.09 63.4991 104.09 62.991V46.1162C104.09 44.2413 103.766 42.4419 103.172 40.7707C102.953 40.1552 103.391 39.4766 104.044 39.4766C104.41 39.4766 104.741 39.6982 104.866 40.0422C105.554 41.9376 105.93 43.9831 105.93 46.1162V62.991C105.93 63.4991 105.518 63.911 105.01 63.911Z" clip-rule="evenodd"/></g><rect width="12.217" height="31.34" x="99.023" y="53.818" fill="#006397" rx="6.109"/><mask id="mask1_2003_3651" width="13" height="33" x="99" y="53" maskUnits="userSpaceOnUse" style="mask-type:alpha"><rect width="12.217" height="31.34" x="99.023" y="53.818" fill="#5208D7" rx="6.109"/></mask><g mask="url(#mask1_2003_3651)"><g filter="url(#filter3_f_2003_3651)"><path stroke="#fff" stroke-width="1.84" d="M96.8984 54.3496H112.834"/></g></g><rect width="12.217" height="31.34" x="65.029" y="53.818" fill="#006397" rx="6.109"/><mask id="mask2_2003_3651" width="13" height="33" x="65" y="53" maskUnits="userSpaceOnUse" style="mask-type:alpha"><rect width="12.217" height="31.34" x="65.029" y="53.818" fill="#5208D7" rx="6.109"/></mask><g mask="url(#mask2_2003_3651)"><g filter="url(#filter4_f_2003_3651)"><path stroke="#fff" stroke-width="1.84" d="M62.9043 54.3496H78.8398"/></g></g><path stroke="#006397" stroke-width="1.84" d="M107.525 53.8184V62.8485" opacity=".55"/><path stroke="#006397" stroke-width="1.84" d="M72.998 53.8184V62.8485" opacity=".22"/><ellipse cx="88.205" cy="84.963" fill="#006397" rx="31.074" ry="31.074"/><path fill="#fff" d="M94.6627 110.977C94.9481 112.126 96.1144 112.834 97.2395 112.464C100.978 111.236 104.434 109.256 107.392 106.638C110.886 103.545 113.58 99.6538 115.246 95.295C116.911 90.9363 117.499 86.2395 116.958 81.6049C116.5 77.6816 115.245 73.9012 113.278 70.493C112.686 69.4672 111.345 69.217 110.366 69.8832C109.387 70.5493 109.142 71.8792 109.721 72.9125C111.306 75.7433 112.32 78.8656 112.698 82.1021C113.159 86.0502 112.659 90.0512 111.24 93.7642C109.821 97.4772 107.525 100.792 104.549 103.427C102.109 105.587 99.2711 107.237 96.2021 108.289C95.0818 108.673 94.3773 109.827 94.6627 110.977Z"/><g style="mix-blend-mode:multiply" filter="url(#filter5_f_2003_3651)" opacity=".3"><circle cx="88.206" cy="84.962" r="26.294" fill="#006397"/></g><ellipse cx="88.203" cy="84.961" fill="#EBEEF3" opacity=".9" rx="16.201" ry="16.201"/><ellipse cx="88.203" cy="84.962" fill="#001D31" rx="4.515" ry="4.515"/><rect width="2.656" height="8.499" x="86.875" y="83.103" fill="#001D31" rx="1.328"/><g filter="url(#filter6_f_2003_3651)" opacity=".25"><path fill="#fff" d="M108.205 64.6843C108.386 64.5006 108.384 64.2045 108.198 64.0263C102.767 58.8397 95.5265 55.9621 88.0046 56.014C80.4828 56.0659 73.283 59.0431 67.924 64.3041C67.7399 64.4848 67.7421 64.781 67.9257 64.9621C68.1093 65.1432 68.4049 65.1407 68.5891 64.9601C73.774 59.8754 80.737 56.9983 88.0111 56.9481C95.2852 56.8979 102.287 59.6788 107.542 64.6915C107.728 64.8695 108.024 64.8679 108.205 64.6843Z"/></g><defs><filter id="filter0_f_2003_3651" width="181.676" height="155.99" x=".775" y="6.699" color-interpolation-filters="sRGB" filterUnits="userSpaceOnUse"><feFlood flood-opacity="0" result="BackgroundImageFix"/><feBlend in="SourceGraphic" in2="BackgroundImageFix" mode="normal" result="shape"/><feGaussianBlur result="effect1_foregroundBlur_2003_3651" stdDeviation="22.5"/></filter><filter id="filter1_f_2003_3651" width="49.818" height="76.376" x="63.226" y="20.146" color-interpolation-filters="sRGB" filterUnits="userSpaceOnUse"><feFlood flood-opacity="0" result="BackgroundImageFix"/><feBlend in="SourceGraphic" in2="BackgroundImageFix" mode="normal" result="shape"/><feGaussianBlur result="effect1_foregroundBlur_2003_3651" stdDeviation="2.76"/></filter><filter id="filter2_d_2003_3651" width="17.535" height="39.154" x="95.755" y="39.477" color-interpolation-filters="sRGB" filterUnits="userSpaceOnUse"><feFlood flood-opacity="0" result="BackgroundImageFix"/><feColorMatrix in="SourceAlpha" result="hardAlpha" type="matrix" values="0 0 0 0 0 0 0 0 0 0 0 0 0 0 0 0 0 0 127 0"/><feOffset dy="7.36"/><feGaussianBlur stdDeviation="3.68"/><feComposite in2="hardAlpha" operator="out"/><feColorMatrix type="matrix" values="0 0 0 0 0 0 0 0 0 0 0 0 0 0 0 0 0 0 0.25 0"/><feBlend in2="BackgroundImageFix" mode="normal" result="effect1_dropShadow_2003_3651"/><feBlend in="SourceGraphic" in2="effect1_dropShadow_2003_3651" mode="normal" result="shape"/></filter><filter id="filter3_f_2003_3651" width="26.976" height="12.88" x="91.378" y="47.91" color-interpolation-filters="sRGB" filterUnits="userSpaceOnUse"><feFlood flood-opacity="0" result="BackgroundImageFix"/><feBlend in="SourceGraphic" in2="BackgroundImageFix" mode="normal" result="shape"/><feGaussianBlur result="effect1_foregroundBlur_2003_3651" stdDeviation="2.76"/></filter><filter id="filter4_f_2003_3651" width="26.976" height="12.88" x="57.384" y="47.91" color-interpolation-filters="sRGB" filterUnits="userSpaceOnUse"><feFlood flood-opacity="0" result="BackgroundImageFix"/><feBlend in="SourceGraphic" in2="BackgroundImageFix" mode="normal" result="shape"/><feGaussianBlur result="effect1_foregroundBlur_2003_3651" stdDeviation="2.76"/></filter><filter id="filter5_f_2003_3651" width="133.549" height="133.549" x="21.431" y="18.187" color-interpolation-filters="sRGB" filterUnits="userSpaceOnUse"><feFlood flood-opacity="0" result="BackgroundImageFix"/><feBlend in="SourceGraphic" in2="BackgroundImageFix" mode="normal" result="shape"/><feGaussianBlur result="effect1_foregroundBlur_2003_3651" stdDeviation="20.24"/></filter><filter id="filter6_f_2003_3651" width="55.273" height="23.804" x="60.427" y="48.654" color-interpolation-filters="sRGB" filterUnits="userSpaceOnUse"><feFlood flood-opacity="0" result="BackgroundImageFix"/><feBlend in="SourceGraphic" in2="BackgroundImageFix" mode="normal" result="shape"/><feGaussianBlur result="effect1_foregroundBlur_2003_3651" stdDeviation="3.68"/></filter><linearGradient id="paint0_linear_2003_3651" x1="88" x2="88" y1="0" y2="150" gradientUnits="userSpaceOnUse"><stop stop-color="#F9F9FC"/><stop offset="1" stop-color="#D3E4F8"/></linearGradient><linearGradient id="paint1_linear_2003_3651" x1="59.963" x2="121.009" y1="119.714" y2="51.006" gradientUnits="userSpaceOnUse"><stop stop-color="#006397"/><stop offset="1" stop-color="#006397"/></linearGradient></defs></svg>