<svg width="262" height="192" viewBox="0 0 262 192" fill="none" xmlns="http://www.w3.org/2000/svg">
<rect x="0.5" y="0.5" width="261" height="191" rx="11.5" fill="#313539"/>
<rect x="0.5" y="0.5" width="261" height="191" rx="11.5" stroke="#42474E"/>
<circle cx="10.4578" cy="10.4572" r="2.61429" fill="#42474E"/>
<circle cx="18.3006" cy="10.4572" r="2.61429" fill="#42474E"/>
<circle cx="26.1433" cy="10.4572" r="2.61429" fill="#42474E"/>
<circle cx="250.972" cy="10.4572" r="2.61429" fill="#42474E"/>
<rect x="70.5862" y="7.84286" width="120.257" height="5.22857" rx="2.61429" fill="#42474E"/>
<rect x="24" y="35" width="107" height="11" rx="5.5" fill="#60666F"/>
<rect x="24" y="49" width="91" height="11" rx="5.5" fill="#60666F"/>
<rect x="203" y="35" width="42" height="3" rx="1.5" fill="#42474E"/>
<rect x="203" y="40" width="39" height="3" rx="1.5" fill="#42474E"/>
<rect x="203" y="49" width="42" height="10" rx="5" fill="#60666F"/>
<rect x="24" y="78" width="72" height="93" rx="5.22857" fill="#373C41"/>
<rect x="27" y="148" width="58" height="8" rx="4" fill="#60666F"/>
<rect x="27" y="159" width="64" height="3" rx="1.5" fill="#42474E"/>
<rect x="27" y="164" width="55" height="3" rx="1.5" fill="#42474E"/>
<rect x="27" y="81" width="66" height="64" rx="5.22857" fill="#60666F" fill-opacity="0.5"/>
<rect x="100" y="78" width="72" height="93" rx="5.22857" fill="#373C41"/>
<rect x="103" y="148" width="48" height="8" rx="4" fill="#60666F"/>
<rect x="103" y="159" width="64" height="3" rx="1.5" fill="#42474E"/>
<rect x="103" y="164" width="55" height="3" rx="1.5" fill="#42474E"/>
<rect x="103" y="81" width="66" height="64" rx="5.22857" fill="#60666F" fill-opacity="0.5"/>
<rect x="176" y="78" width="72" height="93" rx="5.22857" fill="#373C41"/>
<rect x="179" y="148" width="64" height="8" rx="4" fill="#60666F"/>
<rect x="179" y="159" width="64" height="3" rx="1.5" fill="#42474E"/>
<rect x="179" y="164" width="55" height="3" rx="1.5" fill="#42474E"/>
<rect x="179" y="81" width="66" height="64" rx="5.22857" fill="#60666F" fill-opacity="0.5"/>
</svg>
