<svg xmlns="http://www.w3.org/2000/svg" width="262" height="192" fill="none" viewBox="0 0 262 192"><rect width="261" height="191" x=".5" y=".5" fill="#313539" rx="11.5"/><rect width="261" height="191" x=".5" y=".5" stroke="#42474E" rx="11.5"/><g clip-path="url(#clip0_8010_179820)"><circle cx="10.458" cy="10.457" r="2.614" fill="#42474E"/><circle cx="18.301" cy="10.457" r="2.614" fill="#42474E"/><circle cx="26.143" cy="10.457" r="2.614" fill="#42474E"/><circle cx="250.972" cy="10.457" r="2.614" fill="#42474E"/><rect width="120.257" height="5.229" x="70.586" y="7.843" fill="#42474E" rx="2.614"/><g opacity=".3"><rect width="107" height="11" x="24" y="35" fill="#60666F" rx="5.5"/><rect width="91" height="11" x="24" y="49" fill="#60666F" rx="5.5"/><rect width="8" height="8" x="25" y="79" fill="#60666F" rx="4"/><rect width="52" height="4" x="37" y="81" fill="#60666F" rx="2"/><rect width="42" height="3" x="203" y="35" fill="#42474E" rx="1.5"/><rect width="94" height="2" x="37" y="90" fill="#42474E" rx="1"/><rect width="39" height="3" x="203" y="40" fill="#42474E" rx="1.5"/><rect width="77" height="2" x="37" y="94" fill="#42474E" rx="1"/><rect width="59" height="2" x="37" y="98" fill="#42474E" rx="1"/><rect width="8" height="8" x="25" y="112" fill="#60666F" rx="4"/><rect width="52" height="4" x="37" y="114" fill="#60666F" rx="2"/><rect width="94" height="2" x="37" y="123" fill="#42474E" rx="1"/><rect width="77" height="2" x="37" y="127" fill="#42474E" rx="1"/><rect width="82" height="2" x="37" y="131" fill="#42474E" rx="1"/><rect width="8" height="8" x="25" y="143" fill="#60666F" rx="4"/><rect width="52" height="4" x="37" y="145" fill="#60666F" rx="2"/><rect width="94" height="2" x="37" y="154" fill="#42474E" rx="1"/><rect width="77" height="2" x="37" y="158" fill="#42474E" rx="1"/><rect width="59" height="2" x="37" y="162" fill="#42474E" rx="1"/><rect width="1" height="23" x="28.5" y="88" fill="#42474E" rx=".5"/><rect width="1" height="21" x="28.5" y="121" fill="#42474E" rx=".5"/><rect width="42" height="10" x="203" y="49" fill="#AAB2C0" rx="5"/><rect width="84" height="90" x="161" y="74" fill="#393F44" rx="5.229"/></g><g filter="url(#filter0_d_8010_179820)"><rect width="110" height="72" x="135" y="106" fill="#373C41" rx="4"/></g><rect width="96" height="4" x="141" y="127" fill="#60666F" rx="2"/><rect width="84" height="4" x="141" y="134" fill="#60666F" rx="2"/><rect width="65" height="4" x="141" y="141" fill="#60666F" rx="2"/><rect width="76" height="9" x="141" y="113" fill="#60666F" rx="4.5"/><rect width="46" height="14" x="141" y="156" fill="#60666F" rx="7"/><rect width="46" height="14" x="191" y="156" fill="#42474E" rx="7"/></g><defs><filter id="filter0_d_8010_179820" width="178" height="140" x="101" y="73" color-interpolation-filters="sRGB" filterUnits="userSpaceOnUse"><feFlood flood-opacity="0" result="BackgroundImageFix"/><feColorMatrix in="SourceAlpha" result="hardAlpha" type="matrix" values="0 0 0 0 0 0 0 0 0 0 0 0 0 0 0 0 0 0 127 0"/><feOffset dy="1"/><feGaussianBlur stdDeviation="17"/><feComposite in2="hardAlpha" operator="out"/><feColorMatrix type="matrix" values="0 0 0 0 0 0 0 0 0 0 0 0 0 0 0 0 0 0 0.05 0"/><feBlend in2="BackgroundImageFix" mode="normal" result="effect1_dropShadow_8010_179820"/><feBlend in="SourceGraphic" in2="effect1_dropShadow_8010_179820" mode="normal" result="shape"/></filter><clipPath id="clip0_8010_179820"><rect width="245.743" height="170.157" fill="#fff" transform="translate(7.84344 7.84286)"/></clipPath></defs></svg>