<svg xmlns="http://www.w3.org/2000/svg" width="262" height="187" fill="none" viewBox="0 0 262 187"><rect width="261" height="186" x=".5" y=".5" fill="#fff" rx="11.5"/><rect width="261" height="186" x=".5" y=".5" stroke="#E9EDF5" rx="11.5"/><circle cx="10.458" cy="10.457" r="2.614" fill="#DCE2ED"/><circle cx="18.3" cy="10.457" r="2.614" fill="#DCE2ED"/><circle cx="26.144" cy="10.457" r="2.614" fill="#DCE2ED"/><circle cx="26.144" cy="10.457" r="2.614" fill="#DCE2ED"/><circle cx="250.972" cy="10.457" r="2.614" fill="#DCE2ED"/><rect width="120.257" height="5.229" x="70.586" y="7.843" fill="#DCE2ED" rx="2.614"/><rect width="214" height="103" x="24" y="44" fill="#F2F5FA" rx="12"/><rect width="139" height="10" x="61" y="59" fill="#DCE2ED" rx="5"/><rect width="45" height="14" x="84" y="117" fill="#AAB2C0" rx="7"/><rect width="45" height="14" x="132" y="117" fill="#DCE2ED" rx="7"/><rect width="119" height="11" x="70" y="72" fill="#DCE2ED" rx="5.5"/><rect width="119" height="4" x="70" y="88" fill="#E9EDF5" rx="2"/><rect width="98" height="4" x="81" y="94" fill="#E9EDF5" rx="2"/></svg>