<svg xmlns="http://www.w3.org/2000/svg" width="262" height="187" fill="none" viewBox="0 0 262 187"><rect width="261" height="186" x=".5" y=".5" fill="#fff" rx="11.5"/><rect width="261" height="186" x=".5" y=".5" stroke="#E9EDF5" rx="11.5"/><circle cx="10.458" cy="10.457" r="2.614" fill="#DCE2ED"/><circle cx="18.3" cy="10.457" r="2.614" fill="#DCE2ED"/><circle cx="26.144" cy="10.457" r="2.614" fill="#DCE2ED"/><circle cx="250.972" cy="10.457" r="2.614" fill="#DCE2ED"/><rect width="120.257" height="5.229" x="70.586" y="7.843" fill="#DCE2ED" rx="2.614"/><rect width="184" height="119" x="39" y="41" fill="#F2F5FA" rx="4"/><rect width="71" height="131" x="95" y="35" fill="#EBEFF7" rx="4"/><rect width="34" height="5" x="113" y="42" fill="#D9E1F0" rx="2.5"/><rect width="34" height="5" x="113" y="42" fill="#D9E1F0" rx="2.5"/><rect width="46" height="3" x="107" y="71" fill="#D9E1F0" rx="1.5"/><rect width="34" height="3" x="103" y="100" fill="#D9E1F0" rx="1.5"/><rect width="6" height="6" fill="#D9E1F0" rx="3" transform="matrix(-1 0 0 1 109 106)"/><rect width="46" height="3" x="112" y="107.5" fill="#D9E1F0" rx="1.5"/><rect width="6" height="6" fill="#D9E1F0" rx="3" transform="matrix(-1 0 0 1 109 115)"/><rect width="39" height="3" x="112" y="116.5" fill="#D9E1F0" rx="1.5"/><rect width="6" height="6" fill="#D9E1F0" rx="3" transform="matrix(-1 0 0 1 109 124)"/><rect width="43" height="3" x="112" y="125.5" fill="#D9E1F0" rx="1.5"/><rect width="6" height="6" fill="#D9E1F0" rx="3" transform="matrix(-1 0 0 1 109 133)"/><rect width="36" height="3" x="112" y="134.5" fill="#D9E1F0" rx="1.5"/><rect width="34" height="3" x="113" y="76" fill="#D9E1F0" rx="1.5"/><rect width="57" height="1" x="103" y="90" fill="#D9E1F0" rx=".5"/><rect width="46" height="15" x="107" y="53" fill="#D9E1F0" rx="7.5"/><rect width="55" height="12" x="103" y="146" fill="#D9E1F0" rx="6"/><rect width="28.431" height="4.181" x="178.361" y="54" fill="#D9E1F0" fill-opacity=".5" rx="2.091"/><rect width="38.465" height="2.509" x="173.346" y="78.25" fill="#D9E1F0" fill-opacity=".5" rx="1.254"/><rect width="28.431" height="2.509" x="170" y="102.5" fill="#D9E1F0" fill-opacity=".5" rx="1.254"/><rect width="5.017" height="5.017" fill="#D9E1F0" fill-opacity=".5" rx="2.509" transform="matrix(-1 0 0 1 175.018 107.518)"/><rect width="38.465" height="2.509" x="177.525" y="108.771" fill="#D9E1F0" fill-opacity=".5" rx="1.254"/><rect width="5.017" height="5.017" fill="#D9E1F0" fill-opacity=".5" rx="2.509" transform="matrix(-1 0 0 1 175.018 115.043)"/><rect width="32.612" height="2.509" x="177.525" y="116.298" fill="#D9E1F0" fill-opacity=".5" rx="1.254"/><rect width="5.017" height="5.017" fill="#D9E1F0" fill-opacity=".5" rx="2.509" transform="matrix(-1 0 0 1 175.018 122.569)"/><rect width="35.957" height="2.509" x="177.525" y="123.823" fill="#D9E1F0" fill-opacity=".5" rx="1.254"/><rect width="5.017" height="5.017" fill="#D9E1F0" fill-opacity=".5" rx="2.509" transform="matrix(-1 0 0 1 175.018 130.095)"/><rect width="30.103" height="2.509" x="177.525" y="131.35" fill="#D9E1F0" fill-opacity=".5" rx="1.254"/><rect width="28.431" height="2.509" x="178.361" y="82.431" fill="#D9E1F0" fill-opacity=".5" rx="1.254"/><rect width="47.664" height=".836" x="170" y="94.138" fill="#D9E1F0" fill-opacity=".5" rx=".418"/><rect width="38.465" height="12.543" x="173.346" y="63.198" fill="#D9E1F0" fill-opacity=".5" rx="6.272"/><rect width="45.991" height="10.034" x="170" y="140.966" fill="#D9E1F0" fill-opacity=".5" rx="5.017"/><rect width="28.431" height="4.181" x="53.361" y="52" fill="#D9E1F0" fill-opacity=".5" rx="2.091"/><rect width="38.465" height="2.509" x="48.346" y="76.25" fill="#D9E1F0" fill-opacity=".5" rx="1.254"/><rect width="28.431" height="2.509" x="45" y="100.5" fill="#D9E1F0" fill-opacity=".5" rx="1.254"/><rect width="5.017" height="5.017" fill="#D9E1F0" fill-opacity=".5" rx="2.509" transform="matrix(-1 0 0 1 50.0176 105.518)"/><rect width="38.465" height="2.509" x="52.525" y="106.771" fill="#D9E1F0" fill-opacity=".5" rx="1.254"/><rect width="5.017" height="5.017" fill="#D9E1F0" fill-opacity=".5" rx="2.509" transform="matrix(-1 0 0 1 50.0176 113.043)"/><rect width="32.612" height="2.509" x="52.525" y="114.298" fill="#D9E1F0" fill-opacity=".5" rx="1.254"/><rect width="5.017" height="5.017" fill="#D9E1F0" fill-opacity=".5" rx="2.509" transform="matrix(-1 0 0 1 50.0176 120.569)"/><rect width="35.957" height="2.509" x="52.525" y="121.823" fill="#D9E1F0" fill-opacity=".5" rx="1.254"/><rect width="5.017" height="5.017" fill="#D9E1F0" fill-opacity=".5" rx="2.509" transform="matrix(-1 0 0 1 50.0176 128.095)"/><rect width="30.103" height="2.509" x="52.525" y="129.35" fill="#D9E1F0" fill-opacity=".5" rx="1.254"/><rect width="28.431" height="2.509" x="53.361" y="80.431" fill="#D9E1F0" fill-opacity=".5" rx="1.254"/><rect width="47.664" height=".836" x="45" y="92.138" fill="#D9E1F0" fill-opacity=".5" rx=".418"/><rect width="38.465" height="12.543" x="48.346" y="61.198" fill="#D9E1F0" fill-opacity=".5" rx="6.272"/><rect width="45.991" height="10.034" x="45" y="138.966" fill="#D9E1F0" fill-opacity=".5" rx="5.017"/></svg>