<svg width="262" height="192" viewBox="0 0 262 192" fill="none" xmlns="http://www.w3.org/2000/svg">
<rect x="0.5" y="0.5" width="261" height="191" rx="11.5" fill="#313539"/>
<rect x="0.5" y="0.5" width="261" height="191" rx="11.5" stroke="#42474E"/>
<circle cx="10.458" cy="10.4571" r="2.61429" fill="#42474E"/>
<circle cx="18.2998" cy="10.4571" r="2.61429" fill="#42474E"/>
<circle cx="26.1436" cy="10.4571" r="2.61429" fill="#42474E"/>
<circle cx="250.972" cy="10.4571" r="2.61429" fill="#42474E"/>
<rect x="70.5859" y="7.84277" width="120.257" height="5.22857" rx="2.61429" fill="#42474E"/>
<rect x="108" y="30" width="45" height="8" rx="4" fill="#60666F"/>
<rect x="84" y="41" width="93" height="3" rx="1.5" fill="#42474E"/>
<rect x="91" y="46" width="79" height="3" rx="1.5" fill="#42474E"/>
<rect x="115" y="144" width="37.9071" height="10.4571" rx="5.22857" fill="#60666F"/>
<rect x="81" y="119" width="40" height="3" rx="1.5" fill="#60666F"/>
<rect x="81" y="124" width="107" height="10" rx="2" fill="#60666F" fill-opacity="0.4"/>
<rect x="107" y="160" width="57" height="3" rx="1.5" fill="#60666F" fill-opacity="0.4"/>
<rect x="82" y="86" width="45.5" height="1" rx="0.5" fill="#60666F" fill-opacity="0.4"/>
<rect x="129.5" y="84" width="11" height="5" rx="2" fill="#60666F" fill-opacity="0.4"/>
<rect x="142.5" y="86" width="45.5" height="1" rx="0.5" fill="#60666F" fill-opacity="0.4"/>
<rect x="81" y="98" width="24" height="3" rx="1.5" fill="#60666F"/>
<rect x="81" y="103" width="107" height="10" rx="2" fill="#60666F" fill-opacity="0.4"/>
<rect x="81" y="66" width="33" height="10" rx="2" fill="#60666F" fill-opacity="0.6"/>
<rect x="118" y="66" width="33" height="10" rx="2" fill="#60666F" fill-opacity="0.6"/>
<rect x="155" y="66" width="33" height="10" rx="2" fill="#60666F" fill-opacity="0.6"/>
</svg>
