<svg width="262" height="192" viewBox="0 0 262 192" fill="none" xmlns="http://www.w3.org/2000/svg">
<g clip-path="url(#clip0_8010_179805)">
<rect width="262" height="192" rx="12" fill="#313539"/>
<circle cx="10.4578" cy="10.4571" r="2.61429" fill="#42474E"/>
<circle cx="18.3006" cy="10.4571" r="2.61429" fill="#42474E"/>
<circle cx="26.1433" cy="10.4571" r="2.61429" fill="#42474E"/>
<circle cx="250.972" cy="10.4571" r="2.61429" fill="#42474E"/>
<rect x="70.5862" y="7.84286" width="120.257" height="5.22857" rx="2.61429" fill="#42474E"/>
<rect x="53" y="52" width="155" height="10" rx="5" fill="#60666F"/>
<rect x="132" y="106" width="37.9071" height="10.4571" rx="5.22857" fill="#60666F"/>
<rect x="92" y="106.121" width="37.9071" height="10.4571" rx="5.22857" fill="#42474E"/>
<rect x="63" y="65" width="132" height="10" rx="5" fill="#60666F"/>
<rect x="84" y="80" width="90" height="4" rx="2" fill="#42474E"/>
<rect x="92" y="87" width="75" height="4" rx="2" fill="#42474E"/>
<rect opacity="0.4" x="29" y="148" width="87" height="89" rx="4" fill="#42474E"/>
<rect opacity="0.4" x="121" y="148" width="106" height="89" rx="4" fill="#42474E"/>
</g>
<rect x="0.5" y="0.5" width="261" height="191" rx="11.5" stroke="#42474E"/>
<defs>
<clipPath id="clip0_8010_179805">
<rect width="262" height="192" rx="12" fill="white"/>
</clipPath>
</defs>
</svg>
