<svg width="262" height="192" viewBox="0 0 262 192" fill="none" xmlns="http://www.w3.org/2000/svg">
<rect x="0.5" y="0.5" width="261" height="191" rx="11.5" fill="#313539"/>
<rect x="0.5" y="0.5" width="261" height="191" rx="11.5" stroke="#42474E"/>
<circle cx="10.4577" cy="10.4572" r="2.61429" fill="#42474E"/>
<circle cx="18.3006" cy="10.4572" r="2.61429" fill="#42474E"/>
<circle cx="26.1435" cy="10.4572" r="2.61429" fill="#42474E"/>
<circle cx="250.972" cy="10.4572" r="2.61429" fill="#42474E"/>
<rect x="70.5863" y="7.84286" width="120.257" height="5.22857" rx="2.61429" fill="#42474E"/>
<rect x="24" y="29" width="107" height="8" rx="4" fill="#60666F"/>
<rect x="24" y="40" width="91" height="8" rx="4" fill="#60666F"/>
<rect x="187" y="30" width="51" height="3" rx="1.5" fill="#42474E"/>
<rect x="187" y="35" width="47" height="3" rx="1.5" fill="#42474E"/>
<rect x="187" y="42" width="42" height="7" rx="3.5" fill="#60666F"/>
<rect x="24" y="65" width="51" height="55" rx="5.22857" fill="#373C41"/>
<rect x="33" y="106" width="32" height="4" rx="2" fill="#60666F"/>
<rect x="31" y="112" width="36" height="3" rx="1.5" fill="#42474E"/>
<rect x="79" y="65" width="51" height="55" rx="5.22857" fill="#373C41"/>
<rect x="88" y="106" width="32" height="4" rx="2" fill="#60666F"/>
<rect x="86" y="112" width="36" height="3" rx="1.5" fill="#42474E"/>
<rect x="134" y="65" width="51" height="55" rx="5.22857" fill="#373C41"/>
<rect x="143" y="106" width="32" height="4" rx="2" fill="#60666F"/>
<rect x="141" y="112" width="36" height="3" rx="1.5" fill="#42474E"/>
<rect x="189" y="65" width="51" height="55" rx="5.22857" fill="#373C41"/>
<rect x="198" y="106" width="32" height="4" rx="2" fill="#60666F"/>
<rect x="196" y="112" width="36" height="3" rx="1.5" fill="#42474E"/>
<rect x="24" y="124" width="51" height="55" rx="5.22857" fill="#373C41"/>
<rect x="33" y="165" width="32" height="4" rx="2" fill="#60666F"/>
<rect x="31" y="171" width="36" height="3" rx="1.5" fill="#42474E"/>
<rect x="79" y="124" width="51" height="55" rx="5.22857" fill="#373C41"/>
<rect x="88" y="165" width="32" height="4" rx="2" fill="#60666F"/>
<rect x="86" y="171" width="36" height="3" rx="1.5" fill="#42474E"/>
<rect x="134" y="124" width="51" height="55" rx="5.22857" fill="#373C41"/>
<rect x="143" y="165" width="32" height="4" rx="2" fill="#60666F"/>
<rect x="141" y="171" width="36" height="3" rx="1.5" fill="#42474E"/>
<rect x="189" y="124" width="51" height="55" rx="5.22857" fill="#373C41"/>
<rect x="198" y="165" width="32" height="4" rx="2" fill="#60666F"/>
<rect x="196" y="171" width="36" height="3" rx="1.5" fill="#42474E"/>
</svg>
