<svg width="262" height="192" viewBox="0 0 262 192" fill="none" xmlns="http://www.w3.org/2000/svg">
<g clip-path="url(#clip0_8010_179493)">
<rect width="262" height="192" rx="12" fill="#313539"/>
<circle cx="10.458" cy="10.4571" r="2.61429" fill="#42474E"/>
<circle cx="18.2998" cy="10.4571" r="2.61429" fill="#42474E"/>
<circle cx="26.1436" cy="10.4571" r="2.61429" fill="#42474E"/>
<circle cx="250.972" cy="10.4571" r="2.61429" fill="#42474E"/>
<rect x="70.5859" y="7.84277" width="120.257" height="5.22857" rx="2.61429" fill="#42474E"/>
<rect x="77" y="33" width="107" height="8" rx="4" fill="#60666F"/>
<rect x="84" y="44" width="91" height="8" rx="4" fill="#60666F"/>
<rect x="62" y="66" width="137" height="95" rx="5.22857" fill="#373C41"/>
<rect x="82" y="96" width="96" height="8" rx="4" fill="#60666F"/>
<rect x="87.5" y="107" width="85" height="8" rx="4" fill="#60666F"/>
<rect x="93.5" y="118" width="73" height="8" rx="4" fill="#60666F"/>
<rect x="109" y="137" width="12" height="12" rx="6" fill="#60666F"/>
<rect x="123" y="138.375" width="29" height="5" rx="2.5" fill="#60666F"/>
<rect x="123" y="145.625" width="24" height="2" rx="1" fill="#60666F"/>
<rect x="114" y="79" width="33" height="8" rx="4" fill="#60666F" fill-opacity="0.7"/>
<g opacity="0.4">
<rect x="205" y="66" width="137" height="95" rx="5.22857" fill="#373C41"/>
<rect x="225" y="96" width="96" height="8" rx="4" fill="#60666F"/>
<rect x="230.5" y="107" width="85" height="8" rx="4" fill="#60666F"/>
<rect x="236.5" y="118" width="73" height="8" rx="4" fill="#60666F"/>
<rect x="252" y="137" width="12" height="12" rx="6" fill="#60666F"/>
<rect x="257" y="79" width="33" height="8" rx="4" fill="#60666F" fill-opacity="0.7"/>
</g>
<g opacity="0.4">
<rect x="-81" y="66" width="137" height="95" rx="5.22857" fill="#373C41"/>
<rect x="-61" y="96" width="96" height="8" rx="4" fill="#60666F"/>
<rect x="-55.5" y="107" width="85" height="8" rx="4" fill="#60666F"/>
<rect x="-49.5" y="118" width="73" height="8" rx="4" fill="#60666F"/>
<rect x="-20" y="138.375" width="29" height="5" rx="2.5" fill="#60666F"/>
<rect x="-20" y="145.625" width="24" height="2" rx="1" fill="#60666F"/>
<rect x="-29" y="79" width="33" height="8" rx="4" fill="#60666F" fill-opacity="0.7"/>
</g>
</g>
<rect x="0.5" y="0.5" width="261" height="191" rx="11.5" stroke="#42474E"/>
<defs>
<clipPath id="clip0_8010_179493">
<rect width="262" height="192" rx="12" fill="white"/>
</clipPath>
</defs>
</svg>
