<svg width="16" height="16" viewBox="0 0 16 16" fill="none" xmlns="http://www.w3.org/2000/svg">
<g clip-path="url(#clip0_1355_1755)">
<path d="M7.9941 13.9627L3.92449 12.7795L3.01758 2.12598H12.9828L12.075 12.7778L7.9941 13.9627Z" fill="#264DE4"/>
<path d="M11.2975 12.0995L12.0733 2.99695H8V13.0569L11.2975 12.0995Z" fill="#2965F1"/>
<path d="M5.09627 6.9483L5.20807 8.25491H7.99982V6.9483H5.09627ZM4.87158 4.30371L4.98498 5.61032H7.99982V4.30371H4.87158ZM7.99982 10.3417L7.99436 10.3432L6.60498 9.9503L6.51615 8.90823H5.26381L5.43857 10.9598L7.99408 11.7028L7.99982 11.7011V10.3417Z" fill="#EBEBEB"/>
<path d="M10.8955 6.9483L11.1207 4.30371H7.99564V5.61032H9.75354L9.64002 6.9483H7.99564V8.25491H9.53186L9.38701 9.94949L7.99561 10.3428V11.7022L10.5531 10.9598L10.5719 10.739L10.8651 7.29916L10.8955 6.9483Z" fill="white"/>
</g>
<defs>
<clipPath id="clip0_1355_1755">
<rect width="10" height="12" fill="white" transform="translate(3 2)"/>
</clipPath>
</defs>
</svg>
