<svg width="16" height="16" viewBox="0 0 16 16" fill="none" xmlns="http://www.w3.org/2000/svg">
<g clip-path="url(#clip0_1355_1818)">
<path d="M11.1875 2H4.8125C3.2592 2 2 3.2592 2 4.8125V11.1875C2 12.7408 3.2592 14 4.8125 14H11.1875C12.7408 14 14 12.7408 14 11.1875V4.8125C14 3.2592 12.7408 2 11.1875 2Z" fill="#D34A47"/>
<path d="M9.23895 12.8453L9.33786 11.1966L9.61109 10.7303C9.61109 10.7303 8.98925 10.9846 7.9483 10.9846C6.90725 10.9846 6.29488 10.735 6.29488 10.735L6.60106 11.2437L6.70939 12.8453C6.70939 13.017 7.27564 13.1562 7.97417 13.1562C8.6727 13.1562 9.23895 13.017 9.23895 12.8453ZM8.92681 5.14624L9.13452 4.32537L10.2845 3.11524L9.98145 2.85706L8.76388 4.14612L8.52275 5.12688C8.34127 5.12081 8.15969 5.11779 7.97811 5.11784C6.6958 5.11784 5.65625 5.26395 5.65625 5.44418C5.65625 5.62446 6.6958 5.77057 7.97811 5.77057C9.26042 5.77057 10.3 5.62446 10.3 5.44418C10.3 5.31148 9.73616 5.19724 8.92681 5.14624Z" fill="white"/>
<path d="M8.80591 5.60597C8.80591 5.60597 8.76096 5.6161 8.62863 5.61666C8.4963 5.61718 8.40236 5.61577 8.36491 5.58169C8.35483 5.57255 8.34935 5.55436 8.34939 5.54203C8.34949 5.5186 8.36613 5.50482 8.38732 5.49619L8.40733 5.5276C8.39866 5.5306 8.39364 5.53416 8.39364 5.53796C8.39355 5.55577 8.52897 5.56796 8.63252 5.56664C8.73607 5.56533 8.86122 5.5568 8.86132 5.53927C8.86132 5.53397 8.85189 5.52896 8.83539 5.52507L8.85536 5.49385C8.88218 5.50214 8.90561 5.51822 8.90557 5.54611C8.90533 5.59346 8.84505 5.60068 8.80591 5.60597ZM10.2822 3.11766C10.3111 3.08428 10.2672 2.99883 10.1842 2.92688C10.1011 2.85497 10.0103 2.82375 9.98135 2.85713C9.95238 2.8905 9.9963 2.97596 10.0794 3.04791C10.1624 3.11982 10.2533 3.15108 10.2822 3.11766ZM9.18354 8.81832C9.15625 8.55605 9.7571 8.17627 9.60293 8.16413C9.27096 8.18307 9.10572 8.55314 8.93871 8.94071C8.87754 9.08274 8.6681 9.68841 8.53075 9.61388C8.39341 9.53935 8.70878 9.04125 8.79714 8.74547C8.69514 8.82024 8.32113 9.11086 8.22475 8.83871C8.06978 8.97033 7.73866 9.04163 7.77602 8.69593C7.69357 8.84194 7.50855 9.0458 7.28646 8.9611C6.99475 8.84986 7.45544 7.92075 7.57 7.96763C7.68457 8.0145 7.54689 8.22614 7.5108 8.30832C7.43149 8.48921 7.33989 8.7166 7.40111 8.76314C7.50593 8.84288 7.79125 8.46146 7.79763 8.45307C7.85097 8.38257 8.00299 7.92132 8.12557 7.97428C8.2481 8.02725 7.81989 8.63625 7.98002 8.7571C8.01227 8.78152 8.14441 8.74205 8.22475 8.6551C8.27674 8.59889 8.25888 8.4743 8.43218 8.06096C8.60547 7.64761 8.76002 7.13288 8.87885 7.17211C8.99768 7.21135 8.89975 7.47549 8.8571 7.57397C8.65699 8.03621 8.31096 8.79989 8.47418 8.74205C8.63739 8.68421 8.72233 8.68088 8.88213 8.49389C9.04193 8.30686 9.03457 7.99885 9.14107 8.00541C9.24757 8.01197 9.22975 8.11074 9.20388 8.18593C9.30874 8.06597 9.7008 7.81332 9.79549 8.06353C9.90761 8.35978 9.23449 8.78771 9.40235 8.76586C9.56594 8.74458 9.83102 8.57672 9.94422 8.42405L10.2558 5.62327C10.2558 5.62327 9.94225 5.88268 7.94786 5.88268C5.95343 5.88268 5.67236 5.62861 5.67236 5.62861L5.93758 8.18513C6.07839 7.785 6.41271 6.97566 6.93968 7.0028C7.17935 7.01518 7.49936 7.47675 7.22524 7.49241C7.10922 7.49897 7.09746 7.26202 6.96007 7.22719C6.86093 7.20207 6.72288 7.28269 6.63368 7.37002C6.45578 7.54411 6.07314 8.23107 6.12368 8.57353C6.18813 9.01017 6.72621 8.4218 6.81729 8.24714C6.88141 8.1241 6.92472 7.75955 7.06493 7.7978C7.20522 7.83605 7.05269 8.21227 6.95107 8.54489C6.83683 8.91839 6.77683 9.31238 6.63372 9.2671C6.49052 9.22177 6.72372 8.73961 6.71529 8.6551C6.58075 8.77927 6.33283 9.09352 6.01572 8.93799L6.18044 10.5256C6.18044 10.5256 6.61825 10.8714 7.93703 10.8714C9.25586 10.8714 9.70985 10.5309 9.70985 10.5309L9.91441 8.69218C9.74707 8.85511 9.21743 9.14447 9.18354 8.81832Z" fill="white"/>
</g>
<defs>
<clipPath id="clip0_1355_1818">
<rect width="12" height="12" fill="white" transform="translate(2 2)"/>
</clipPath>
</defs>
</svg>
