<svg width="16" height="16" viewBox="0 0 16 16" fill="none" xmlns="http://www.w3.org/2000/svg">
<path d="M3.91009 12.8004L3 2H13L12.0887 12.7987L7.99392 14L3.91009 12.8004Z" fill="#E44F26"/>
<path d="M8 13.082L11.309 12.1113L12.0875 2.8833H8V13.082Z" fill="#F1662A"/>
<path d="M7.99976 6.88866H6.34322L6.22901 5.53223H7.99976V4.20752H4.86084L4.89081 4.56323L5.19822 8.21338H7.99976V6.88866ZM7.99976 10.3288L7.99409 10.3305L6.60001 9.93238L6.5109 8.87595H5.25412L5.42949 10.9554L7.99409 11.7088L7.99976 11.7071V10.3288Z" fill="#EBEBEB"/>
<path d="M7.99561 6.88866V8.21338H9.53712L9.39212 9.93152L7.99561 10.3301V11.7084L10.5622 10.9554L10.5809 10.7317L10.8749 7.24438L10.9057 6.88866H7.99561ZM7.99561 4.20752V5.53223H11.0195L11.0446 5.23481L11.1017 4.56323L11.1317 4.20752H7.99561Z" fill="white"/>
</svg>
