<svg width="16" height="16" viewBox="0 0 16 16" fill="none" xmlns="http://www.w3.org/2000/svg">
<path d="M8 4C6.39997 4 5.40031 4.77751 5 6.33318C5.59981 5.55558 6.30003 5.26399 7.09981 5.45841C7.55647 5.56907 7.88281 5.89101 8.24422 6.24777C8.83241 6.82813 9.51322 7.5 11 7.5C12.5999 7.5 13.5997 6.72239 14 5.16636C13.4 5.94436 12.7 6.23611 11.9001 6.04159C11.4435 5.93084 11.1176 5.60899 10.7557 5.25223C10.1679 4.67187 9.48725 4 8 4ZM5 7.5C3.40006 7.5 2.40031 8.27761 2 9.83364C2.59994 9.05564 3.29988 8.76389 4.09981 8.95841C4.55647 9.06916 4.88281 9.39101 5.24422 9.74777C5.83241 10.3281 6.51322 11 8 11C9.59994 11 10.5997 10.2225 11 8.66682C10.4 9.44445 9.70003 9.73605 8.90009 9.54159C8.44353 9.43093 8.11756 9.10899 7.75569 8.75223C7.16787 8.17187 6.48725 7.5 5 7.5Z" fill="#38BDF8"/>
</svg>
