<?xml version="1.0" encoding="UTF-8"?>
<svg fill="none" viewBox="0 0 37 40" xmlns="http://www.w3.org/2000/svg">
<path d="m29.051 0.65709c3.9094-2.136 8.5374 1.2503 7.69 5.6267l-5.6597 29.229c-0.0393 0.2635-0.0987 0.5252-0.1787 0.7829-0.1767 0.6017-0.4326 1.1029-0.7508 1.5068l-0.0279 0.0385c-1.7157 2.3489-5.0092 2.861-7.3561 1.1438-1.1639-0.8516-1.8764-2.0917-2.0898-3.4119l0.0012 8e-4c-0.6512-2.4492 0.2793-9.0237 5.1623-19.547l1.8815 2.1109 2.4913-10.173c0.1118-0.45676-0.3849-0.8202-0.7858-0.57495l-8.9296 5.4625 2.6867 1.2316c-5.0658 5.3435-12.119 10.343-17.12 10.869-1.2492 0.1316-2.7444-0.1964-3.9078-1.0477-2.3469-1.7172-2.8586-5.0135-1.1428-7.3624l0.0133-0.0181 0.01516-0.0205c0.28771-0.4256 0.68685-0.8213 1.2054-1.1721 0.22145-0.1549 0.45309-0.2913 0.69255-0.4089l26.109-14.265zm-19.215 34.976c1.5066 1.0802 3.6094 0.7244 4.6968-0.7948 0.7225-1.0094 1.2533-4.2974 1.5283-6.3903 0.1056-0.8038-0.7043-1.3844-1.4307-1.0257-1.8915 0.9339-4.8312 2.4948-5.5536 3.5042-1.0873 1.5192-0.74735 3.6264 0.7593 4.7066z" fill="#606BDF" clipRule="evenodd" fillRule="evenodd"/>
</svg>
