<svg width="16" height="16" viewBox="0 0 16 16" fill="none" xmlns="http://www.w3.org/2000/svg">
<path fill-rule="evenodd" clip-rule="evenodd" d="M8 2C9.18669 2 10.3467 2.35189 11.3334 3.01118C12.3201 3.67047 13.0891 4.60754 13.5433 5.7039C13.9974 6.80026 14.1162 8.00665 13.8847 9.17054C13.6532 10.3344 13.0818 11.4035 12.2426 12.2426C11.4035 13.0818 10.3344 13.6532 9.17054 13.8847C8.00665 14.1162 6.80026 13.9974 5.7039 13.5433C4.60754 13.0891 3.67047 12.3201 3.01118 11.3334C2.35189 10.3467 2 9.18669 2 8C2 6.4087 2.63214 4.88258 3.75736 3.75736C4.88258 2.63214 6.4087 2 8 2Z" fill="#CC6699"/>
<path d="M11.2932 4.99697C11.0555 4.06472 9.50932 3.75947 8.04607 4.27772C7.12967 4.5856 6.28301 5.07125 5.55458 5.70684C4.7487 6.46059 4.62007 7.11684 4.67295 7.39097C4.86045 8.35847 6.18533 8.99072 6.7302 9.45984V9.46247C6.5697 9.54159 5.3937 10.1375 5.1177 10.745C4.82745 11.387 5.16382 11.8475 5.38695 11.9093C5.72194 11.99 6.07378 11.9637 6.3931 11.8343C6.71242 11.7048 6.9832 11.4786 7.16745 11.1875C7.31983 10.9516 7.41516 10.6835 7.44588 10.4044C7.47661 10.1253 7.44188 9.84282 7.34445 9.57947C7.60684 9.51242 7.87973 9.49675 8.14807 9.53334C9.06908 9.64097 9.24982 10.2158 9.21532 10.4566C9.1991 10.5423 9.16461 10.6235 9.1142 10.6947C9.06379 10.7658 8.99865 10.8253 8.9232 10.8691C8.8587 10.9092 8.83883 10.9227 8.84445 10.9527C8.85233 10.9958 8.88195 10.9943 8.93708 10.985C9.07548 10.9414 9.19743 10.8569 9.28686 10.7426C9.3763 10.6283 9.42902 10.4897 9.43807 10.3448C9.4602 9.78234 8.91982 9.15009 7.96282 9.16622C7.68486 9.15803 7.40746 9.19605 7.14195 9.27872L7.10145 9.23372C6.5097 8.60259 5.4162 8.15597 5.46232 7.30734C5.4792 6.99872 5.58645 6.18647 7.56233 5.20097C9.18233 4.39359 10.4791 4.61597 10.7033 5.10834C11.0236 5.81184 10.0103 7.11872 8.32807 7.30734C8.14214 7.34509 7.95009 7.34049 7.76618 7.29387C7.58227 7.24726 7.41121 7.15984 7.2657 7.03809C7.1772 6.94059 7.16407 6.93647 7.13107 6.95447C7.07745 6.98409 7.11157 7.07034 7.13107 7.12134C7.19551 7.23742 7.28246 7.33947 7.38684 7.42151C7.49122 7.50354 7.61093 7.56392 7.73895 7.59909C8.40038 7.74261 9.0902 7.67438 9.7107 7.40409C10.7311 7.01072 11.5268 5.91384 11.2932 4.99697ZM6.9567 9.74859C7.03082 10.0054 7.02703 10.2784 6.94583 10.5331C6.93708 10.5596 6.92745 10.5858 6.91695 10.6118C6.90645 10.6378 6.89507 10.6628 6.88282 10.6868C6.8193 10.8157 6.73759 10.9348 6.6402 11.0405C6.33532 11.3731 5.90895 11.4991 5.72633 11.393C5.52908 11.2786 5.6277 10.8095 5.98132 10.4356C6.25314 10.167 6.56639 9.94391 6.90907 9.77484L6.9567 9.74859Z" fill="white"/>
</svg>
