<svg width="398" height="212" viewBox="0 0 398 212" fill="none" xmlns="http://www.w3.org/2000/svg">
<g clip-path="url(#clip0_5996_190152)">
<path opacity="0.2" d="M43.1574 82.2603L28.2765 113.467C25.7843 118.693 19.0494 120.195 14.5724 116.523C8.75187 111.75 0 115.89 0 123.418L0 317C0 324.732 6.26801 331 14 331L760 331C767.732 331 774 324.732 774 317V1.45136C774 -10.2107 760.577 -16.7605 751.384 -9.58357L750.953 -9.24676C744.984 -4.58619 736.39 -5.51731 731.558 -11.3483L711.226 -35.8816C708.467 -39.21 703.731 -40.1041 699.949 -38.0103C696.192 -35.9302 691.488 -36.7978 688.72 -40.0815L683.072 -46.7815C678.606 -52.0801 670.935 -53.3139 665.033 -49.683L662.507 -48.1291C660.672 -47.0007 658.602 -46.3107 656.458 -46.1128L616.431 -42.4195C611.128 -41.9302 606.562 -38.4745 604.65 -33.5038L590.374 3.62063C586.041 14.8884 570.433 15.756 564.877 5.03803L554.548 -14.8903C552.142 -19.5332 547.348 -22.4478 542.118 -22.4478L533.089 -22.4478C526.62 -22.4478 520.993 -18.0152 519.478 -11.7258L514.253 9.96873C512.739 16.2582 507.112 20.6908 500.643 20.6908H496.249C494.427 20.6908 492.623 20.3351 490.937 19.6439L481.746 15.8745C475.129 13.1611 467.532 15.8702 464.125 22.1576L446.712 54.2908C444.091 59.1288 437.614 60.2038 433.57 56.4722C429.642 52.8473 423.375 53.7419 420.618 58.3214L420.299 58.8517C416.903 64.4912 408.785 64.6537 405.166 59.1546L380.939 22.3342C375.682 14.3453 363.68 15.2944 359.744 24.0101C357.447 29.0981 351.974 31.9617 346.484 30.9486L340.32 29.8111C334.137 28.67 327.952 31.7908 325.196 37.4418L310.022 68.5557C307.832 73.0468 303.414 76.0301 298.43 76.3839L279.503 77.7272C275.219 78.0313 271.312 80.2849 268.903 83.8408L259.613 97.5566C254.117 105.67 241.795 104.375 238.106 95.2972C234.807 87.1791 224.302 85.0437 218.095 91.2292L180 129.193C173.227 135.942 161.832 134.067 157.579 125.504L149.205 108.646C144.249 98.668 130.19 98.1953 124.575 107.817L122.09 112.076C120.404 114.965 117.738 117.156 114.576 118.25L111.246 119.402C104.211 121.836 96.5014 118.339 93.6986 111.443L86.4487 93.6036C84.4327 88.643 79.612 85.3986 74.2574 85.3986H73.7209C69.833 85.3986 66.1816 83.532 63.9047 80.3806C58.5187 72.926 47.1159 73.9591 43.1574 82.2603Z" fill="url(#paint0_linear_5996_190152)"/>
<path d="M0 104.571L9.55464 112.408C16.5835 118.173 27.157 115.815 31.0698 107.609L43.1574 82.2603C47.1159 73.9591 58.5187 72.9259 63.9047 80.3806V80.3806C66.1816 83.532 69.833 85.3986 73.7209 85.3986H74.2574C79.612 85.3986 84.4327 88.643 86.4487 93.6036L93.6986 111.443C96.5014 118.339 104.211 121.836 111.246 119.402L114.576 118.25C117.738 117.156 120.404 114.965 122.09 112.076L124.575 107.817C130.19 98.1953 144.249 98.668 149.205 108.646L157.579 125.504C161.832 134.067 173.227 135.942 180 129.193L218.095 91.2292C224.302 85.0437 234.807 87.1791 238.106 95.2972V95.2972C241.795 104.375 254.117 105.67 259.613 97.5566L268.903 83.8408C271.312 80.2849 275.219 78.0313 279.503 77.7272L298.43 76.3838C303.414 76.0301 307.832 73.0468 310.022 68.5557L325.196 37.4418C327.952 31.7907 334.137 28.67 340.32 29.811L346.484 30.9486C351.974 31.9617 357.447 29.0981 359.744 24.0101V24.0101C363.68 15.2944 375.682 14.3453 380.939 22.3342L405.166 59.1546C408.785 64.6537 416.903 64.4912 420.299 58.8517L420.618 58.3213C423.376 53.7419 429.642 52.8473 433.57 56.4722V56.4722C437.614 60.2038 444.091 59.1288 446.712 54.2908L464.125 22.1576C467.532 15.8702 475.129 13.1611 481.746 15.8745L490.937 19.6438C492.623 20.3351 494.427 20.6908 496.249 20.6908H500.643C507.112 20.6908 512.739 16.2582 514.253 9.96871L519.478 -11.7258C520.993 -18.0152 526.62 -22.4478 533.089 -22.4478L542.118 -22.4478C547.348 -22.4478 552.142 -19.5332 554.548 -14.8903L564.877 5.03804C570.433 15.756 586.041 14.8883 590.374 3.62063L604.65 -33.5038C606.562 -38.4745 611.128 -41.9302 616.431 -42.4195L656.458 -46.1128C658.602 -46.3107 660.672 -47.0007 662.507 -48.1291L665.033 -49.6829C670.935 -53.3139 678.606 -52.0801 683.073 -46.7815L688.72 -40.0815C691.488 -36.7978 696.192 -35.9302 699.949 -38.0103V-38.0103C703.731 -40.1041 708.468 -39.21 711.226 -35.8816L731.706 -11.1696C736.479 -5.4105 744.936 -4.42049 750.91 -8.92154L769.393 -22.8472" stroke="#006397" stroke-width="4.94" stroke-linecap="round"/>
<path d="M0 104.571L9.55464 112.408C16.5835 118.173 27.157 115.815 31.0698 107.609L43.1574 82.2603C47.1159 73.9591 58.5187 72.9259 63.9047 80.3806V80.3806C66.1816 83.532 69.833 85.3986 73.7209 85.3986H74.2574C79.612 85.3986 84.4327 88.643 86.4487 93.6036L93.6986 111.443C96.5014 118.339 104.211 121.836 111.246 119.402L114.576 118.25C117.738 117.156 120.404 114.965 122.09 112.076L124.575 107.817C130.19 98.1953 144.249 98.668 149.205 108.646L157.579 125.504C161.832 134.067 173.227 135.942 180 129.193L218.095 91.2292C224.302 85.0437 234.807 87.1791 238.106 95.2972V95.2972C241.795 104.375 254.117 105.67 259.613 97.5566L268.903 83.8408C271.312 80.2849 275.219 78.0313 279.503 77.7272L298.43 76.3838C303.414 76.0301 307.832 73.0468 310.022 68.5557L325.196 37.4418C327.952 31.7907 334.137 28.67 340.32 29.811L346.484 30.9486C351.974 31.9617 357.447 29.0981 359.744 24.0101V24.0101C363.68 15.2944 375.682 14.3453 380.939 22.3342L405.166 59.1546C408.785 64.6537 416.903 64.4912 420.299 58.8517L420.618 58.3213C423.376 53.7419 429.642 52.8473 433.57 56.4722V56.4722C437.614 60.2038 444.091 59.1288 446.712 54.2908L464.125 22.1576C467.532 15.8702 475.129 13.1611 481.746 15.8745L490.937 19.6438C492.623 20.3351 494.427 20.6908 496.249 20.6908H500.643C507.112 20.6908 512.739 16.2582 514.253 9.96871L519.478 -11.7258C520.993 -18.0152 526.62 -22.4478 533.089 -22.4478L542.118 -22.4478C547.348 -22.4478 552.142 -19.5332 554.548 -14.8903L564.877 5.03804C570.433 15.756 586.041 14.8883 590.374 3.62063L604.65 -33.5038C606.562 -38.4745 611.128 -41.9302 616.431 -42.4195L656.458 -46.1128C658.602 -46.3107 660.672 -47.0007 662.507 -48.1291L665.033 -49.6829C670.935 -53.3139 678.606 -52.0801 683.073 -46.7815L688.72 -40.0815C691.488 -36.7978 696.192 -35.9302 699.949 -38.0103V-38.0103C703.731 -40.1041 708.468 -39.21 711.226 -35.8816L731.706 -11.1696C736.479 -5.4105 744.936 -4.42049 750.91 -8.92154L769.393 -22.8472" stroke="#006397" stroke-width="4.94" stroke-linecap="round"/>
<path d="M179 41C179 34.3726 184.373 29 191 29H294.25C300.877 29 306.25 34.3726 306.25 41V65.25C306.25 71.8774 300.877 77.25 294.25 77.25H191C184.373 77.25 179 71.8774 179 65.25V41Z" fill="white"/>
<rect opacity="0.1" x="183" y="33" width="40.25" height="40.25" rx="12.9375" fill="#CCE5FF"/>
<g clip-path="url(#clip1_5996_190152)">
<path d="M197 48.5C197 49.0967 197.632 49.669 198.757 50.091C199.883 50.5129 201.409 50.75 203 50.75C204.591 50.75 206.117 50.5129 207.243 50.091C208.368 49.669 209 49.0967 209 48.5C209 47.9033 208.368 47.331 207.243 46.909C206.117 46.4871 204.591 46.25 203 46.25C201.409 46.25 199.883 46.4871 198.757 46.909C197.632 47.331 197 47.9033 197 48.5Z" stroke="#006397" stroke-width="1.5" stroke-linecap="round" stroke-linejoin="round"/>
<path d="M197 48.5V53C197 53.5967 197.632 54.169 198.757 54.591C199.883 55.0129 201.409 55.25 203 55.25C204.591 55.25 206.117 55.0129 207.243 54.591C208.368 54.169 209 53.5967 209 53V48.5" stroke="#006397" stroke-width="1.5" stroke-linecap="round" stroke-linejoin="round"/>
<path d="M197 53V57.5C197 58.0967 197.632 58.669 198.757 59.091C199.883 59.5129 201.409 59.75 203 59.75C204.591 59.75 206.117 59.5129 207.243 59.091C208.368 58.669 209 58.0967 209 57.5V53" stroke="#006397" stroke-width="1.5" stroke-linecap="round" stroke-linejoin="round"/>
</g>
<path d="M235.165 37.9432H236.398V44.6847C236.398 45.3807 236.234 46.0021 235.906 46.549C235.581 47.0926 235.122 47.5218 234.528 47.8366C233.935 48.1482 233.239 48.304 232.44 48.304C231.642 48.304 230.946 48.1482 230.352 47.8366C229.759 47.5218 229.298 47.0926 228.97 46.549C228.645 46.0021 228.483 45.3807 228.483 44.6847V37.9432H229.716V44.5852C229.716 45.0824 229.825 45.5249 230.044 45.9126C230.263 46.2971 230.574 46.6004 230.979 46.8224C231.386 47.0412 231.874 47.1506 232.44 47.1506C233.007 47.1506 233.494 47.0412 233.902 46.8224C234.31 46.6004 234.621 46.2971 234.837 45.9126C235.055 45.5249 235.165 45.0824 235.165 44.5852V37.9432ZM243.714 42.1989L242.66 42.4972C242.594 42.3215 242.496 42.1508 242.367 41.9851C242.241 41.8161 242.068 41.6768 241.85 41.5675C241.631 41.4581 241.351 41.4034 241.009 41.4034C240.542 41.4034 240.153 41.5111 239.841 41.7266C239.533 41.9387 239.379 42.2088 239.379 42.5369C239.379 42.8286 239.485 43.0589 239.697 43.228C239.909 43.397 240.24 43.5379 240.691 43.6506L241.825 43.929C242.507 44.0947 243.016 44.3482 243.351 44.6896C243.686 45.0277 243.853 45.4635 243.853 45.9972C243.853 46.4347 243.727 46.8258 243.475 47.1705C243.227 47.5152 242.879 47.7869 242.431 47.9858C241.984 48.1847 241.463 48.2841 240.87 48.2841C240.091 48.2841 239.447 48.1151 238.936 47.777C238.426 47.4389 238.103 46.9451 237.967 46.2955L239.08 46.017C239.186 46.428 239.387 46.7363 239.682 46.9418C239.98 47.1473 240.37 47.25 240.85 47.25C241.397 47.25 241.831 47.134 242.153 46.902C242.478 46.6667 242.64 46.3849 242.64 46.0568C242.64 45.7917 242.547 45.5696 242.362 45.3906C242.176 45.2083 241.891 45.0724 241.506 44.983L240.234 44.6847C239.534 44.5189 239.021 44.2621 238.693 43.9141C238.368 43.5627 238.205 43.1236 238.205 42.5966C238.205 42.1657 238.326 41.7846 238.568 41.4531C238.814 41.1217 239.147 40.8615 239.568 40.6726C239.992 40.4837 240.472 40.3892 241.009 40.3892C241.765 40.3892 242.358 40.5549 242.789 40.8864C243.223 41.2178 243.532 41.6553 243.714 42.1989ZM248.425 48.2841C247.689 48.2841 247.054 48.1217 246.521 47.7969C245.99 47.4688 245.581 47.0114 245.293 46.4247C245.008 45.8348 244.865 45.1487 244.865 44.3665C244.865 43.5843 245.008 42.8949 245.293 42.2983C245.581 41.6984 245.982 41.2311 246.496 40.8963C247.013 40.5582 247.616 40.3892 248.306 40.3892C248.703 40.3892 249.096 40.4555 249.484 40.5881C249.872 40.7206 250.225 40.9361 250.543 41.2344C250.861 41.5294 251.115 41.9205 251.303 42.4077C251.492 42.8949 251.587 43.4948 251.587 44.2074V44.7045H245.7V43.6903H250.394C250.394 43.2595 250.307 42.875 250.135 42.5369C249.966 42.1989 249.724 41.9321 249.409 41.7365C249.098 41.541 248.73 41.4432 248.306 41.4432C247.838 41.4432 247.434 41.5592 247.093 41.7912C246.754 42.0199 246.494 42.3182 246.312 42.6861C246.13 43.054 246.039 43.4484 246.039 43.8693V44.5455C246.039 45.1222 246.138 45.611 246.337 46.0121C246.539 46.4098 246.819 46.7131 247.177 46.9219C247.535 47.1274 247.951 47.2301 248.425 47.2301C248.733 47.2301 249.012 47.187 249.26 47.1009C249.512 47.0114 249.729 46.8788 249.911 46.7031C250.094 46.5241 250.235 46.3021 250.334 46.0369L251.468 46.3551C251.348 46.7396 251.148 47.0777 250.866 47.3693C250.584 47.6577 250.236 47.883 249.822 48.0455C249.408 48.2045 248.942 48.2841 248.425 48.2841ZM255.859 48.2841C255.223 48.2841 254.661 48.1233 254.174 47.8018C253.687 47.477 253.305 47.0196 253.03 46.4297C252.755 45.8364 252.618 45.1354 252.618 44.3267C252.618 43.5246 252.755 42.8286 253.03 42.2386C253.305 41.6487 253.688 41.1929 254.179 40.8714C254.669 40.55 255.236 40.3892 255.879 40.3892C256.376 40.3892 256.769 40.4721 257.057 40.6378C257.349 40.8002 257.571 40.9858 257.723 41.1946C257.879 41.4001 258 41.5691 258.086 41.7017H258.186V37.9432H259.359V48.125H258.226V46.9517H258.086C258 47.0909 257.878 47.2666 257.719 47.4787C257.559 47.6875 257.332 47.8748 257.037 48.0405C256.742 48.2029 256.35 48.2841 255.859 48.2841ZM256.018 47.2301C256.489 47.2301 256.887 47.1075 257.211 46.8622C257.536 46.6136 257.783 46.2706 257.952 45.8331C258.121 45.3923 258.206 44.8835 258.206 44.3068C258.206 43.7367 258.123 43.2379 257.957 42.8104C257.791 42.3795 257.546 42.0447 257.221 41.8061C256.897 41.5642 256.495 41.4432 256.018 41.4432C255.521 41.4432 255.107 41.5708 254.775 41.826C254.447 42.0779 254.2 42.4209 254.035 42.8551C253.872 43.286 253.791 43.7699 253.791 44.3068C253.791 44.8504 253.874 45.3442 254.04 45.7884C254.209 46.2292 254.457 46.5805 254.785 46.8423C255.117 47.1009 255.528 47.2301 256.018 47.2301ZM270.225 42.1989L269.171 42.4972C269.105 42.3215 269.007 42.1508 268.878 41.9851C268.752 41.8161 268.58 41.6768 268.361 41.5675C268.142 41.4581 267.862 41.4034 267.521 41.4034C267.054 41.4034 266.664 41.5111 266.353 41.7266C266.044 41.9387 265.89 42.2088 265.89 42.5369C265.89 42.8286 265.996 43.0589 266.208 43.228C266.421 43.397 266.752 43.5379 267.203 43.6506L268.336 43.929C269.019 44.0947 269.528 44.3482 269.863 44.6896C270.197 45.0277 270.365 45.4635 270.365 45.9972C270.365 46.4347 270.239 46.8258 269.987 47.1705C269.738 47.5152 269.39 47.7869 268.943 47.9858C268.495 48.1847 267.975 48.2841 267.382 48.2841C266.603 48.2841 265.958 48.1151 265.448 47.777C264.937 47.4389 264.614 46.9451 264.478 46.2955L265.592 46.017C265.698 46.428 265.899 46.7363 266.193 46.9418C266.492 47.1473 266.881 47.25 267.362 47.25C267.909 47.25 268.343 47.134 268.664 46.902C268.989 46.6667 269.152 46.3849 269.152 46.0568C269.152 45.7917 269.059 45.5696 268.873 45.3906C268.688 45.2083 268.403 45.0724 268.018 44.983L266.745 44.6847C266.046 44.5189 265.532 44.2621 265.204 43.9141C264.879 43.5627 264.717 43.1236 264.717 42.5966C264.717 42.1657 264.838 41.7846 265.08 41.4531C265.325 41.1217 265.658 40.8615 266.079 40.6726C266.503 40.4837 266.984 40.3892 267.521 40.3892C268.277 40.3892 268.87 40.5549 269.301 40.8864C269.735 41.2178 270.043 41.6553 270.225 42.1989ZM271.735 50.9886V40.4886H272.868V41.7017H273.008C273.094 41.5691 273.213 41.4001 273.365 41.1946C273.521 40.9858 273.743 40.8002 274.032 40.6378C274.323 40.4721 274.718 40.3892 275.215 40.3892C275.858 40.3892 276.425 40.55 276.915 40.8714C277.406 41.1929 277.789 41.6487 278.064 42.2386C278.339 42.8286 278.476 43.5246 278.476 44.3267C278.476 45.1354 278.339 45.8364 278.064 46.4297C277.789 47.0196 277.407 47.477 276.92 47.8018C276.433 48.1233 275.871 48.2841 275.235 48.2841C274.744 48.2841 274.351 48.2029 274.057 48.0405C273.762 47.8748 273.534 47.6875 273.375 47.4787C273.216 47.2666 273.094 47.0909 273.008 46.9517H272.908V50.9886H271.735ZM272.888 44.3068C272.888 44.8835 272.973 45.3923 273.142 45.8331C273.311 46.2706 273.558 46.6136 273.883 46.8622C274.207 47.1075 274.605 47.2301 275.076 47.2301C275.566 47.2301 275.976 47.1009 276.304 46.8423C276.635 46.5805 276.884 46.2292 277.049 45.7884C277.218 45.3442 277.303 44.8504 277.303 44.3068C277.303 43.7699 277.22 43.286 277.054 42.8551C276.892 42.4209 276.645 42.0779 276.314 41.826C275.985 41.5708 275.573 41.4432 275.076 41.4432C274.598 41.4432 274.197 41.5642 273.873 41.8061C273.548 42.0447 273.302 42.3795 273.137 42.8104C272.971 43.2379 272.888 43.7367 272.888 44.3068ZM282.117 48.304C281.633 48.304 281.194 48.2128 280.8 48.0305C280.405 47.8449 280.092 47.5781 279.86 47.2301C279.628 46.8788 279.512 46.4545 279.512 45.9574C279.512 45.5199 279.598 45.1652 279.771 44.8935C279.943 44.6184 280.173 44.4029 280.462 44.2472C280.75 44.0914 281.068 43.9754 281.416 43.8991C281.767 43.8196 282.12 43.7566 282.475 43.7102C282.939 43.6506 283.315 43.6058 283.604 43.576C283.895 43.5429 284.107 43.4882 284.24 43.4119C284.376 43.3357 284.444 43.2031 284.444 43.0142V42.9744C284.444 42.4839 284.31 42.1027 284.041 41.831C283.776 41.5592 283.373 41.4233 282.833 41.4233C282.273 41.4233 281.834 41.5459 281.516 41.7912C281.197 42.0365 280.974 42.2983 280.844 42.5767L279.731 42.179C279.93 41.715 280.195 41.3537 280.526 41.0952C280.861 40.8333 281.226 40.651 281.62 40.5483C282.018 40.4422 282.409 40.3892 282.793 40.3892C283.039 40.3892 283.32 40.419 283.638 40.4787C283.96 40.535 284.27 40.6527 284.568 40.8317C284.87 41.0107 285.12 41.2808 285.319 41.642C285.518 42.0033 285.617 42.4872 285.617 43.0938V48.125H284.444V47.0909H284.384C284.305 47.2566 284.172 47.4339 283.986 47.6229C283.801 47.8118 283.554 47.9725 283.246 48.1051C282.937 48.2377 282.561 48.304 282.117 48.304ZM282.296 47.25C282.76 47.25 283.151 47.1589 283.469 46.9766C283.791 46.7943 284.033 46.5589 284.195 46.2706C284.361 45.9822 284.444 45.679 284.444 45.3608V44.2869C284.394 44.3466 284.285 44.4013 284.116 44.451C283.95 44.4974 283.758 44.5388 283.539 44.5753C283.324 44.6084 283.113 44.6383 282.908 44.6648C282.705 44.688 282.541 44.7079 282.415 44.7244C282.111 44.7642 281.825 44.8288 281.56 44.9183C281.299 45.0045 281.086 45.1354 280.924 45.3111C280.765 45.4834 280.685 45.7187 280.685 46.017C280.685 46.4247 280.836 46.733 281.138 46.9418C281.443 47.1473 281.829 47.25 282.296 47.25ZM290.465 48.2841C289.749 48.2841 289.133 48.1151 288.615 47.777C288.098 47.4389 287.701 46.9732 287.422 46.38C287.144 45.7867 287.005 45.1089 287.005 44.3466C287.005 43.571 287.147 42.8866 287.432 42.2933C287.721 41.6967 288.122 41.2311 288.635 40.8963C289.152 40.5582 289.756 40.3892 290.445 40.3892C290.982 40.3892 291.466 40.4886 291.897 40.6875C292.328 40.8864 292.681 41.1648 292.956 41.5227C293.231 41.8807 293.401 42.2983 293.468 42.7756H292.294C292.205 42.4276 292.006 42.1193 291.698 41.8509C291.393 41.5791 290.982 41.4432 290.465 41.4432C290.008 41.4432 289.606 41.5625 289.262 41.8011C288.92 42.0365 288.654 42.3696 288.461 42.8004C288.272 43.228 288.178 43.7301 288.178 44.3068C288.178 44.8968 288.271 45.4105 288.456 45.848C288.645 46.2855 288.91 46.6252 289.252 46.8672C289.597 47.1091 290.001 47.2301 290.465 47.2301C290.77 47.2301 291.047 47.1771 291.295 47.071C291.544 46.965 291.754 46.8125 291.927 46.6136C292.099 46.4148 292.222 46.1761 292.294 45.8977H293.468C293.401 46.3485 293.237 46.7545 292.976 47.1158C292.717 47.4737 292.374 47.7588 291.946 47.9709C291.522 48.1797 291.028 48.2841 290.465 48.2841ZM297.989 48.2841C297.253 48.2841 296.618 48.1217 296.085 47.7969C295.554 47.4688 295.145 47.0114 294.857 46.4247C294.571 45.8348 294.429 45.1487 294.429 44.3665C294.429 43.5843 294.571 42.8949 294.857 42.2983C295.145 41.6984 295.546 41.2311 296.06 40.8963C296.577 40.5582 297.18 40.3892 297.869 40.3892C298.267 40.3892 298.66 40.4555 299.048 40.5881C299.435 40.7206 299.788 40.9361 300.107 41.2344C300.425 41.5294 300.678 41.9205 300.867 42.4077C301.056 42.8949 301.151 43.4948 301.151 44.2074V44.7045H295.264V43.6903H299.957C299.957 43.2595 299.871 42.875 299.699 42.5369C299.53 42.1989 299.288 41.9321 298.973 41.7365C298.661 41.541 298.294 41.4432 297.869 41.4432C297.402 41.4432 296.998 41.5592 296.656 41.7912C296.318 42.0199 296.058 42.3182 295.876 42.6861C295.693 43.054 295.602 43.4484 295.602 43.8693V44.5455C295.602 45.1222 295.702 45.611 295.901 46.0121C296.103 46.4098 296.383 46.7131 296.741 46.9219C297.099 47.1274 297.515 47.2301 297.989 47.2301C298.297 47.2301 298.575 47.187 298.824 47.1009C299.076 47.0114 299.293 46.8788 299.475 46.7031C299.657 46.5241 299.798 46.3021 299.898 46.0369L301.031 46.3551C300.912 46.7396 300.711 47.0777 300.43 47.3693C300.148 47.6577 299.8 47.883 299.386 48.0455C298.971 48.2045 298.506 48.2841 297.989 48.2841Z" fill="#1A1C1E"/>
<path d="M230.727 67.5909V61.9659H231.682V67.5909H230.727ZM228.392 65.2557V64.3011H234.017V65.2557H228.392ZM238.677 69.2443C238.035 69.2443 237.488 69.0696 237.037 68.7202C236.585 68.3679 236.24 67.858 236.001 67.1903C235.762 66.5199 235.643 65.7102 235.643 64.7614C235.643 63.8182 235.762 63.0128 236.001 62.3452C236.243 61.6747 236.589 61.1634 237.041 60.8111C237.495 60.456 238.041 60.2784 238.677 60.2784C239.314 60.2784 239.858 60.456 240.309 60.8111C240.764 61.1634 241.11 61.6747 241.349 62.3452C241.591 63.0128 241.711 63.8182 241.711 64.7614C241.711 65.7102 241.592 66.5199 241.353 67.1903C241.115 67.858 240.77 68.3679 240.318 68.7202C239.866 69.0696 239.319 69.2443 238.677 69.2443ZM238.677 68.3068C239.314 68.3068 239.808 68 240.16 67.3864C240.512 66.7727 240.689 65.8977 240.689 64.7614C240.689 64.0057 240.608 63.3622 240.446 62.831C240.287 62.2997 240.056 61.8949 239.755 61.6165C239.457 61.3381 239.098 61.1989 238.677 61.1989C238.047 61.1989 237.554 61.5099 237.199 62.1321C236.843 62.7514 236.666 63.6278 236.666 64.7614C236.666 65.517 236.745 66.1591 236.904 66.6875C237.064 67.2159 237.292 67.6179 237.591 67.8935C237.892 68.169 238.254 68.3068 238.677 68.3068ZM243.543 69.1932C243.333 69.1932 243.152 69.1179 243.002 68.9673C242.851 68.8168 242.776 68.6364 242.776 68.4261C242.776 68.2159 242.851 68.0355 243.002 67.8849C243.152 67.7344 243.333 67.6591 243.543 67.6591C243.753 67.6591 243.934 67.7344 244.084 67.8849C244.235 68.0355 244.31 68.2159 244.31 68.4261C244.31 68.5653 244.274 68.6932 244.203 68.8097C244.135 68.9261 244.043 69.0199 243.926 69.0909C243.813 69.1591 243.685 69.1932 243.543 69.1932ZM248.391 69.2443C247.805 69.2443 247.288 69.1406 246.839 68.9332C246.393 68.723 246.045 68.4347 245.795 68.0682C245.545 67.6989 245.422 67.2784 245.425 66.8068C245.422 66.4375 245.494 66.0966 245.642 65.7841C245.79 65.4687 245.991 65.206 246.247 64.9957C246.506 64.7827 246.794 64.6477 247.112 64.5909V64.5398C246.695 64.4318 246.362 64.1974 246.115 63.8366C245.868 63.473 245.746 63.0597 245.749 62.5966C245.746 62.1534 245.858 61.7571 246.085 61.4077C246.312 61.0582 246.625 60.7827 247.023 60.581C247.423 60.3793 247.879 60.2784 248.391 60.2784C248.896 60.2784 249.348 60.3793 249.746 60.581C250.143 60.7827 250.456 61.0582 250.683 61.4077C250.913 61.7571 251.03 62.1534 251.033 62.5966C251.03 63.0597 250.903 63.473 250.653 63.8366C250.406 64.1974 250.078 64.4318 249.669 64.5398V64.5909C249.984 64.6477 250.268 64.7827 250.521 64.9957C250.774 65.206 250.976 65.4687 251.126 65.7841C251.277 66.0966 251.354 66.4375 251.357 66.8068C251.354 67.2784 251.226 67.6989 250.973 68.0682C250.723 68.4347 250.375 68.723 249.929 68.9332C249.486 69.1406 248.973 69.2443 248.391 69.2443ZM248.391 68.3068C248.785 68.3068 249.126 68.2429 249.413 68.1151C249.7 67.9872 249.922 67.8068 250.078 67.5739C250.234 67.3409 250.314 67.0682 250.317 66.7557C250.314 66.4261 250.229 66.1349 250.061 65.8821C249.893 65.6293 249.665 65.4304 249.375 65.2855C249.088 65.1406 248.76 65.0682 248.391 65.0682C248.018 65.0682 247.686 65.1406 247.393 65.2855C247.104 65.4304 246.875 65.6293 246.707 65.8821C246.543 66.1349 246.462 66.4261 246.464 66.7557C246.462 67.0682 246.537 67.3409 246.69 67.5739C246.847 67.8068 247.07 67.9872 247.359 68.1151C247.649 68.2429 247.993 68.3068 248.391 68.3068ZM248.391 64.1648C248.703 64.1648 248.98 64.1023 249.222 63.9773C249.466 63.8523 249.658 63.6776 249.797 63.4531C249.936 63.2287 250.007 62.9659 250.01 62.6648C250.007 62.3693 249.937 62.1122 249.801 61.8935C249.665 61.6719 249.476 61.5014 249.234 61.3821C248.993 61.2599 248.712 61.1989 248.391 61.1989C248.064 61.1989 247.778 61.2599 247.534 61.3821C247.29 61.5014 247.101 61.6719 246.967 61.8935C246.834 62.1122 246.768 62.3693 246.771 62.6648C246.768 62.9659 246.835 63.2287 246.972 63.4531C247.111 63.6776 247.303 63.8523 247.547 63.9773C247.791 64.1023 248.072 64.1648 248.391 64.1648ZM257.206 67.4886V67.0284C257.206 66.7102 257.271 66.419 257.402 66.1548C257.535 65.8878 257.728 65.6747 257.981 65.5156C258.237 65.3537 258.546 65.2727 258.91 65.2727C259.279 65.2727 259.589 65.3537 259.839 65.5156C260.089 65.6747 260.278 65.8878 260.406 66.1548C260.534 66.419 260.598 66.7102 260.598 67.0284V67.4886C260.598 67.8068 260.532 68.0994 260.402 68.3665C260.274 68.6307 260.083 68.8437 259.831 69.0057C259.581 69.1648 259.274 69.2443 258.91 69.2443C258.541 69.2443 258.23 69.1648 257.977 69.0057C257.724 68.8437 257.532 68.6307 257.402 68.3665C257.271 68.0994 257.206 67.8068 257.206 67.4886ZM258.075 67.0284V67.4886C258.075 67.7528 258.137 67.9901 258.262 68.2003C258.387 68.4077 258.603 68.5114 258.91 68.5114C259.208 68.5114 259.419 68.4077 259.541 68.2003C259.666 67.9901 259.728 67.7528 259.728 67.4886V67.0284C259.728 66.7642 259.669 66.5284 259.549 66.321C259.43 66.1108 259.217 66.0057 258.91 66.0057C258.612 66.0057 258.397 66.1108 258.267 66.321C258.139 66.5284 258.075 66.7642 258.075 67.0284ZM252.859 62.4943V62.0341C252.859 61.7159 252.924 61.4247 253.055 61.1605C253.189 60.8935 253.382 60.6804 253.635 60.5213C253.89 60.3594 254.2 60.2784 254.564 60.2784C254.933 60.2784 255.243 60.3594 255.493 60.5213C255.743 60.6804 255.931 60.8935 256.059 61.1605C256.187 61.4247 256.251 61.7159 256.251 62.0341V62.4943C256.251 62.8125 256.186 63.1051 256.055 63.3722C255.927 63.6364 255.737 63.8494 255.484 64.0114C255.234 64.1705 254.927 64.25 254.564 64.25C254.194 64.25 253.883 64.1705 253.63 64.0114C253.377 63.8494 253.186 63.6364 253.055 63.3722C252.924 63.1051 252.859 62.8125 252.859 62.4943ZM253.728 62.0341V62.4943C253.728 62.7585 253.791 62.9957 253.916 63.206C254.041 63.4134 254.257 63.517 254.564 63.517C254.862 63.517 255.072 63.4134 255.194 63.206C255.319 62.9957 255.382 62.7585 255.382 62.4943V62.0341C255.382 61.7699 255.322 61.5341 255.203 61.3267C255.083 61.1165 254.87 61.0114 254.564 61.0114C254.265 61.0114 254.051 61.1165 253.92 61.3267C253.792 61.5341 253.728 61.7699 253.728 62.0341ZM253.183 69.125L259.183 60.3977H260.154L254.154 69.125H253.183Z" fill="#72787E"/>
<path d="M179 41C179 34.3726 184.373 29 191 29H294.25C300.877 29 306.25 34.3726 306.25 41V65.25C306.25 71.8774 300.877 77.25 294.25 77.25H191C184.373 77.25 179 71.8774 179 65.25V41Z" fill="white"/>
<rect x="183" y="33" width="40.25" height="40.25" rx="12.9375" fill="#D3E4F8"/>
<g clip-path="url(#clip2_5996_190152)">
<path d="M197 48.5C197 49.0967 197.632 49.669 198.757 50.091C199.883 50.5129 201.409 50.75 203 50.75C204.591 50.75 206.117 50.5129 207.243 50.091C208.368 49.669 209 49.0967 209 48.5C209 47.9033 208.368 47.331 207.243 46.909C206.117 46.4871 204.591 46.25 203 46.25C201.409 46.25 199.883 46.4871 198.757 46.909C197.632 47.331 197 47.9033 197 48.5Z" stroke="#006397" stroke-width="1.5" stroke-linecap="round" stroke-linejoin="round"/>
<path d="M197 48.5V53C197 53.5967 197.632 54.169 198.757 54.591C199.883 55.0129 201.409 55.25 203 55.25C204.591 55.25 206.117 55.0129 207.243 54.591C208.368 54.169 209 53.5967 209 53V48.5" stroke="#006397" stroke-width="1.5" stroke-linecap="round" stroke-linejoin="round"/>
<path d="M197 53V57.5C197 58.0967 197.632 58.669 198.757 59.091C199.883 59.5129 201.409 59.75 203 59.75C204.591 59.75 206.117 59.5129 207.243 59.091C208.368 58.669 209 58.0967 209 57.5V53" stroke="#006397" stroke-width="1.5" stroke-linecap="round" stroke-linejoin="round"/>
</g>
<path d="M235.165 37.9432H236.398V44.6847C236.398 45.3807 236.234 46.0021 235.906 46.549C235.581 47.0926 235.122 47.5218 234.528 47.8366C233.935 48.1482 233.239 48.304 232.44 48.304C231.642 48.304 230.946 48.1482 230.352 47.8366C229.759 47.5218 229.298 47.0926 228.97 46.549C228.645 46.0021 228.483 45.3807 228.483 44.6847V37.9432H229.716V44.5852C229.716 45.0824 229.825 45.5249 230.044 45.9126C230.263 46.2971 230.574 46.6004 230.979 46.8224C231.386 47.0412 231.874 47.1506 232.44 47.1506C233.007 47.1506 233.494 47.0412 233.902 46.8224C234.31 46.6004 234.621 46.2971 234.837 45.9126C235.055 45.5249 235.165 45.0824 235.165 44.5852V37.9432ZM243.714 42.1989L242.66 42.4972C242.594 42.3215 242.496 42.1508 242.367 41.9851C242.241 41.8161 242.068 41.6768 241.85 41.5675C241.631 41.4581 241.351 41.4034 241.009 41.4034C240.542 41.4034 240.153 41.5111 239.841 41.7266C239.533 41.9387 239.379 42.2088 239.379 42.5369C239.379 42.8286 239.485 43.0589 239.697 43.228C239.909 43.397 240.24 43.5379 240.691 43.6506L241.825 43.929C242.507 44.0947 243.016 44.3482 243.351 44.6896C243.686 45.0277 243.853 45.4635 243.853 45.9972C243.853 46.4347 243.727 46.8258 243.475 47.1705C243.227 47.5152 242.879 47.7869 242.431 47.9858C241.984 48.1847 241.463 48.2841 240.87 48.2841C240.091 48.2841 239.447 48.1151 238.936 47.777C238.426 47.4389 238.103 46.9451 237.967 46.2955L239.08 46.017C239.186 46.428 239.387 46.7363 239.682 46.9418C239.98 47.1473 240.37 47.25 240.85 47.25C241.397 47.25 241.831 47.134 242.153 46.902C242.478 46.6667 242.64 46.3849 242.64 46.0568C242.64 45.7917 242.547 45.5696 242.362 45.3906C242.176 45.2083 241.891 45.0724 241.506 44.983L240.234 44.6847C239.534 44.5189 239.021 44.2621 238.693 43.9141C238.368 43.5627 238.205 43.1236 238.205 42.5966C238.205 42.1657 238.326 41.7846 238.568 41.4531C238.814 41.1217 239.147 40.8615 239.568 40.6726C239.992 40.4837 240.472 40.3892 241.009 40.3892C241.765 40.3892 242.358 40.5549 242.789 40.8864C243.223 41.2178 243.532 41.6553 243.714 42.1989ZM248.425 48.2841C247.689 48.2841 247.054 48.1217 246.521 47.7969C245.99 47.4688 245.581 47.0114 245.293 46.4247C245.008 45.8348 244.865 45.1487 244.865 44.3665C244.865 43.5843 245.008 42.8949 245.293 42.2983C245.581 41.6984 245.982 41.2311 246.496 40.8963C247.013 40.5582 247.616 40.3892 248.306 40.3892C248.703 40.3892 249.096 40.4555 249.484 40.5881C249.872 40.7206 250.225 40.9361 250.543 41.2344C250.861 41.5294 251.115 41.9205 251.303 42.4077C251.492 42.8949 251.587 43.4948 251.587 44.2074V44.7045H245.7V43.6903H250.394C250.394 43.2595 250.307 42.875 250.135 42.5369C249.966 42.1989 249.724 41.9321 249.409 41.7365C249.098 41.541 248.73 41.4432 248.306 41.4432C247.838 41.4432 247.434 41.5592 247.093 41.7912C246.754 42.0199 246.494 42.3182 246.312 42.6861C246.13 43.054 246.039 43.4484 246.039 43.8693V44.5455C246.039 45.1222 246.138 45.611 246.337 46.0121C246.539 46.4098 246.819 46.7131 247.177 46.9219C247.535 47.1274 247.951 47.2301 248.425 47.2301C248.733 47.2301 249.012 47.187 249.26 47.1009C249.512 47.0114 249.729 46.8788 249.911 46.7031C250.094 46.5241 250.235 46.3021 250.334 46.0369L251.468 46.3551C251.348 46.7396 251.148 47.0777 250.866 47.3693C250.584 47.6577 250.236 47.883 249.822 48.0455C249.408 48.2045 248.942 48.2841 248.425 48.2841ZM255.859 48.2841C255.223 48.2841 254.661 48.1233 254.174 47.8018C253.687 47.477 253.305 47.0196 253.03 46.4297C252.755 45.8364 252.618 45.1354 252.618 44.3267C252.618 43.5246 252.755 42.8286 253.03 42.2386C253.305 41.6487 253.688 41.1929 254.179 40.8714C254.669 40.55 255.236 40.3892 255.879 40.3892C256.376 40.3892 256.769 40.4721 257.057 40.6378C257.349 40.8002 257.571 40.9858 257.723 41.1946C257.879 41.4001 258 41.5691 258.086 41.7017H258.186V37.9432H259.359V48.125H258.226V46.9517H258.086C258 47.0909 257.878 47.2666 257.719 47.4787C257.559 47.6875 257.332 47.8748 257.037 48.0405C256.742 48.2029 256.35 48.2841 255.859 48.2841ZM256.018 47.2301C256.489 47.2301 256.887 47.1075 257.211 46.8622C257.536 46.6136 257.783 46.2706 257.952 45.8331C258.121 45.3923 258.206 44.8835 258.206 44.3068C258.206 43.7367 258.123 43.2379 257.957 42.8104C257.791 42.3795 257.546 42.0447 257.221 41.8061C256.897 41.5642 256.495 41.4432 256.018 41.4432C255.521 41.4432 255.107 41.5708 254.775 41.826C254.447 42.0779 254.2 42.4209 254.035 42.8551C253.872 43.286 253.791 43.7699 253.791 44.3068C253.791 44.8504 253.874 45.3442 254.04 45.7884C254.209 46.2292 254.457 46.5805 254.785 46.8423C255.117 47.1009 255.528 47.2301 256.018 47.2301ZM270.225 42.1989L269.171 42.4972C269.105 42.3215 269.007 42.1508 268.878 41.9851C268.752 41.8161 268.58 41.6768 268.361 41.5675C268.142 41.4581 267.862 41.4034 267.521 41.4034C267.054 41.4034 266.664 41.5111 266.353 41.7266C266.044 41.9387 265.89 42.2088 265.89 42.5369C265.89 42.8286 265.996 43.0589 266.208 43.228C266.421 43.397 266.752 43.5379 267.203 43.6506L268.336 43.929C269.019 44.0947 269.528 44.3482 269.863 44.6896C270.197 45.0277 270.365 45.4635 270.365 45.9972C270.365 46.4347 270.239 46.8258 269.987 47.1705C269.738 47.5152 269.39 47.7869 268.943 47.9858C268.495 48.1847 267.975 48.2841 267.382 48.2841C266.603 48.2841 265.958 48.1151 265.448 47.777C264.937 47.4389 264.614 46.9451 264.478 46.2955L265.592 46.017C265.698 46.428 265.899 46.7363 266.193 46.9418C266.492 47.1473 266.881 47.25 267.362 47.25C267.909 47.25 268.343 47.134 268.664 46.902C268.989 46.6667 269.152 46.3849 269.152 46.0568C269.152 45.7917 269.059 45.5696 268.873 45.3906C268.688 45.2083 268.403 45.0724 268.018 44.983L266.745 44.6847C266.046 44.5189 265.532 44.2621 265.204 43.9141C264.879 43.5627 264.717 43.1236 264.717 42.5966C264.717 42.1657 264.838 41.7846 265.08 41.4531C265.325 41.1217 265.658 40.8615 266.079 40.6726C266.503 40.4837 266.984 40.3892 267.521 40.3892C268.277 40.3892 268.87 40.5549 269.301 40.8864C269.735 41.2178 270.043 41.6553 270.225 42.1989ZM271.735 50.9886V40.4886H272.868V41.7017H273.008C273.094 41.5691 273.213 41.4001 273.365 41.1946C273.521 40.9858 273.743 40.8002 274.032 40.6378C274.323 40.4721 274.718 40.3892 275.215 40.3892C275.858 40.3892 276.425 40.55 276.915 40.8714C277.406 41.1929 277.789 41.6487 278.064 42.2386C278.339 42.8286 278.476 43.5246 278.476 44.3267C278.476 45.1354 278.339 45.8364 278.064 46.4297C277.789 47.0196 277.407 47.477 276.92 47.8018C276.433 48.1233 275.871 48.2841 275.235 48.2841C274.744 48.2841 274.351 48.2029 274.057 48.0405C273.762 47.8748 273.534 47.6875 273.375 47.4787C273.216 47.2666 273.094 47.0909 273.008 46.9517H272.908V50.9886H271.735ZM272.888 44.3068C272.888 44.8835 272.973 45.3923 273.142 45.8331C273.311 46.2706 273.558 46.6136 273.883 46.8622C274.207 47.1075 274.605 47.2301 275.076 47.2301C275.566 47.2301 275.976 47.1009 276.304 46.8423C276.635 46.5805 276.884 46.2292 277.049 45.7884C277.218 45.3442 277.303 44.8504 277.303 44.3068C277.303 43.7699 277.22 43.286 277.054 42.8551C276.892 42.4209 276.645 42.0779 276.314 41.826C275.985 41.5708 275.573 41.4432 275.076 41.4432C274.598 41.4432 274.197 41.5642 273.873 41.8061C273.548 42.0447 273.302 42.3795 273.137 42.8104C272.971 43.2379 272.888 43.7367 272.888 44.3068ZM282.117 48.304C281.633 48.304 281.194 48.2128 280.8 48.0305C280.405 47.8449 280.092 47.5781 279.86 47.2301C279.628 46.8788 279.512 46.4545 279.512 45.9574C279.512 45.5199 279.598 45.1652 279.771 44.8935C279.943 44.6184 280.173 44.4029 280.462 44.2472C280.75 44.0914 281.068 43.9754 281.416 43.8991C281.767 43.8196 282.12 43.7566 282.475 43.7102C282.939 43.6506 283.315 43.6058 283.604 43.576C283.895 43.5429 284.107 43.4882 284.24 43.4119C284.376 43.3357 284.444 43.2031 284.444 43.0142V42.9744C284.444 42.4839 284.31 42.1027 284.041 41.831C283.776 41.5592 283.373 41.4233 282.833 41.4233C282.273 41.4233 281.834 41.5459 281.516 41.7912C281.197 42.0365 280.974 42.2983 280.844 42.5767L279.731 42.179C279.93 41.715 280.195 41.3537 280.526 41.0952C280.861 40.8333 281.226 40.651 281.62 40.5483C282.018 40.4422 282.409 40.3892 282.793 40.3892C283.039 40.3892 283.32 40.419 283.638 40.4787C283.96 40.535 284.27 40.6527 284.568 40.8317C284.87 41.0107 285.12 41.2808 285.319 41.642C285.518 42.0033 285.617 42.4872 285.617 43.0938V48.125H284.444V47.0909H284.384C284.305 47.2566 284.172 47.4339 283.986 47.6229C283.801 47.8118 283.554 47.9725 283.246 48.1051C282.937 48.2377 282.561 48.304 282.117 48.304ZM282.296 47.25C282.76 47.25 283.151 47.1589 283.469 46.9766C283.791 46.7943 284.033 46.5589 284.195 46.2706C284.361 45.9822 284.444 45.679 284.444 45.3608V44.2869C284.394 44.3466 284.285 44.4013 284.116 44.451C283.95 44.4974 283.758 44.5388 283.539 44.5753C283.324 44.6084 283.113 44.6383 282.908 44.6648C282.705 44.688 282.541 44.7079 282.415 44.7244C282.111 44.7642 281.825 44.8288 281.56 44.9183C281.299 45.0045 281.086 45.1354 280.924 45.3111C280.765 45.4834 280.685 45.7187 280.685 46.017C280.685 46.4247 280.836 46.733 281.138 46.9418C281.443 47.1473 281.829 47.25 282.296 47.25ZM290.465 48.2841C289.749 48.2841 289.133 48.1151 288.615 47.777C288.098 47.4389 287.701 46.9732 287.422 46.38C287.144 45.7867 287.005 45.1089 287.005 44.3466C287.005 43.571 287.147 42.8866 287.432 42.2933C287.721 41.6967 288.122 41.2311 288.635 40.8963C289.152 40.5582 289.756 40.3892 290.445 40.3892C290.982 40.3892 291.466 40.4886 291.897 40.6875C292.328 40.8864 292.681 41.1648 292.956 41.5227C293.231 41.8807 293.401 42.2983 293.468 42.7756H292.294C292.205 42.4276 292.006 42.1193 291.698 41.8509C291.393 41.5791 290.982 41.4432 290.465 41.4432C290.008 41.4432 289.606 41.5625 289.262 41.8011C288.92 42.0365 288.654 42.3696 288.461 42.8004C288.272 43.228 288.178 43.7301 288.178 44.3068C288.178 44.8968 288.271 45.4105 288.456 45.848C288.645 46.2855 288.91 46.6252 289.252 46.8672C289.597 47.1091 290.001 47.2301 290.465 47.2301C290.77 47.2301 291.047 47.1771 291.295 47.071C291.544 46.965 291.754 46.8125 291.927 46.6136C292.099 46.4148 292.222 46.1761 292.294 45.8977H293.468C293.401 46.3485 293.237 46.7545 292.976 47.1158C292.717 47.4737 292.374 47.7588 291.946 47.9709C291.522 48.1797 291.028 48.2841 290.465 48.2841ZM297.989 48.2841C297.253 48.2841 296.618 48.1217 296.085 47.7969C295.554 47.4688 295.145 47.0114 294.857 46.4247C294.571 45.8348 294.429 45.1487 294.429 44.3665C294.429 43.5843 294.571 42.8949 294.857 42.2983C295.145 41.6984 295.546 41.2311 296.06 40.8963C296.577 40.5582 297.18 40.3892 297.869 40.3892C298.267 40.3892 298.66 40.4555 299.048 40.5881C299.435 40.7206 299.788 40.9361 300.107 41.2344C300.425 41.5294 300.678 41.9205 300.867 42.4077C301.056 42.8949 301.151 43.4948 301.151 44.2074V44.7045H295.264V43.6903H299.957C299.957 43.2595 299.871 42.875 299.699 42.5369C299.53 42.1989 299.288 41.9321 298.973 41.7365C298.661 41.541 298.294 41.4432 297.869 41.4432C297.402 41.4432 296.998 41.5592 296.656 41.7912C296.318 42.0199 296.058 42.3182 295.876 42.6861C295.693 43.054 295.602 43.4484 295.602 43.8693V44.5455C295.602 45.1222 295.702 45.611 295.901 46.0121C296.103 46.4098 296.383 46.7131 296.741 46.9219C297.099 47.1274 297.515 47.2301 297.989 47.2301C298.297 47.2301 298.575 47.187 298.824 47.1009C299.076 47.0114 299.293 46.8788 299.475 46.7031C299.657 46.5241 299.798 46.3021 299.898 46.0369L301.031 46.3551C300.912 46.7396 300.711 47.0777 300.43 47.3693C300.148 47.6577 299.8 47.883 299.386 48.0455C298.971 48.2045 298.506 48.2841 297.989 48.2841Z" fill="#1A1C1E"/>
<path d="M230.727 67.5909V61.9659H231.682V67.5909H230.727ZM228.392 65.2557V64.3011H234.017V65.2557H228.392ZM238.677 69.2443C238.035 69.2443 237.488 69.0696 237.037 68.7202C236.585 68.3679 236.24 67.858 236.001 67.1903C235.762 66.5199 235.643 65.7102 235.643 64.7614C235.643 63.8182 235.762 63.0128 236.001 62.3452C236.243 61.6747 236.589 61.1634 237.041 60.8111C237.495 60.456 238.041 60.2784 238.677 60.2784C239.314 60.2784 239.858 60.456 240.309 60.8111C240.764 61.1634 241.11 61.6747 241.349 62.3452C241.591 63.0128 241.711 63.8182 241.711 64.7614C241.711 65.7102 241.592 66.5199 241.353 67.1903C241.115 67.858 240.77 68.3679 240.318 68.7202C239.866 69.0696 239.319 69.2443 238.677 69.2443ZM238.677 68.3068C239.314 68.3068 239.808 68 240.16 67.3864C240.512 66.7727 240.689 65.8977 240.689 64.7614C240.689 64.0057 240.608 63.3622 240.446 62.831C240.287 62.2997 240.056 61.8949 239.755 61.6165C239.457 61.3381 239.098 61.1989 238.677 61.1989C238.047 61.1989 237.554 61.5099 237.199 62.1321C236.843 62.7514 236.666 63.6278 236.666 64.7614C236.666 65.517 236.745 66.1591 236.904 66.6875C237.064 67.2159 237.292 67.6179 237.591 67.8935C237.892 68.169 238.254 68.3068 238.677 68.3068ZM243.543 69.1932C243.333 69.1932 243.152 69.1179 243.002 68.9673C242.851 68.8168 242.776 68.6364 242.776 68.4261C242.776 68.2159 242.851 68.0355 243.002 67.8849C243.152 67.7344 243.333 67.6591 243.543 67.6591C243.753 67.6591 243.934 67.7344 244.084 67.8849C244.235 68.0355 244.31 68.2159 244.31 68.4261C244.31 68.5653 244.274 68.6932 244.203 68.8097C244.135 68.9261 244.043 69.0199 243.926 69.0909C243.813 69.1591 243.685 69.1932 243.543 69.1932ZM248.391 69.2443C247.805 69.2443 247.288 69.1406 246.839 68.9332C246.393 68.723 246.045 68.4347 245.795 68.0682C245.545 67.6989 245.422 67.2784 245.425 66.8068C245.422 66.4375 245.494 66.0966 245.642 65.7841C245.79 65.4687 245.991 65.206 246.247 64.9957C246.506 64.7827 246.794 64.6477 247.112 64.5909V64.5398C246.695 64.4318 246.362 64.1974 246.115 63.8366C245.868 63.473 245.746 63.0597 245.749 62.5966C245.746 62.1534 245.858 61.7571 246.085 61.4077C246.312 61.0582 246.625 60.7827 247.023 60.581C247.423 60.3793 247.879 60.2784 248.391 60.2784C248.896 60.2784 249.348 60.3793 249.746 60.581C250.143 60.7827 250.456 61.0582 250.683 61.4077C250.913 61.7571 251.03 62.1534 251.033 62.5966C251.03 63.0597 250.903 63.473 250.653 63.8366C250.406 64.1974 250.078 64.4318 249.669 64.5398V64.5909C249.984 64.6477 250.268 64.7827 250.521 64.9957C250.774 65.206 250.976 65.4687 251.126 65.7841C251.277 66.0966 251.354 66.4375 251.357 66.8068C251.354 67.2784 251.226 67.6989 250.973 68.0682C250.723 68.4347 250.375 68.723 249.929 68.9332C249.486 69.1406 248.973 69.2443 248.391 69.2443ZM248.391 68.3068C248.785 68.3068 249.126 68.2429 249.413 68.1151C249.7 67.9872 249.922 67.8068 250.078 67.5739C250.234 67.3409 250.314 67.0682 250.317 66.7557C250.314 66.4261 250.229 66.1349 250.061 65.8821C249.893 65.6293 249.665 65.4304 249.375 65.2855C249.088 65.1406 248.76 65.0682 248.391 65.0682C248.018 65.0682 247.686 65.1406 247.393 65.2855C247.104 65.4304 246.875 65.6293 246.707 65.8821C246.543 66.1349 246.462 66.4261 246.464 66.7557C246.462 67.0682 246.537 67.3409 246.69 67.5739C246.847 67.8068 247.07 67.9872 247.359 68.1151C247.649 68.2429 247.993 68.3068 248.391 68.3068ZM248.391 64.1648C248.703 64.1648 248.98 64.1023 249.222 63.9773C249.466 63.8523 249.658 63.6776 249.797 63.4531C249.936 63.2287 250.007 62.9659 250.01 62.6648C250.007 62.3693 249.937 62.1122 249.801 61.8935C249.665 61.6719 249.476 61.5014 249.234 61.3821C248.993 61.2599 248.712 61.1989 248.391 61.1989C248.064 61.1989 247.778 61.2599 247.534 61.3821C247.29 61.5014 247.101 61.6719 246.967 61.8935C246.834 62.1122 246.768 62.3693 246.771 62.6648C246.768 62.9659 246.835 63.2287 246.972 63.4531C247.111 63.6776 247.303 63.8523 247.547 63.9773C247.791 64.1023 248.072 64.1648 248.391 64.1648ZM257.206 67.4886V67.0284C257.206 66.7102 257.271 66.419 257.402 66.1548C257.535 65.8878 257.728 65.6747 257.981 65.5156C258.237 65.3537 258.546 65.2727 258.91 65.2727C259.279 65.2727 259.589 65.3537 259.839 65.5156C260.089 65.6747 260.278 65.8878 260.406 66.1548C260.534 66.419 260.598 66.7102 260.598 67.0284V67.4886C260.598 67.8068 260.532 68.0994 260.402 68.3665C260.274 68.6307 260.083 68.8437 259.831 69.0057C259.581 69.1648 259.274 69.2443 258.91 69.2443C258.541 69.2443 258.23 69.1648 257.977 69.0057C257.724 68.8437 257.532 68.6307 257.402 68.3665C257.271 68.0994 257.206 67.8068 257.206 67.4886ZM258.075 67.0284V67.4886C258.075 67.7528 258.137 67.9901 258.262 68.2003C258.387 68.4077 258.603 68.5114 258.91 68.5114C259.208 68.5114 259.419 68.4077 259.541 68.2003C259.666 67.9901 259.728 67.7528 259.728 67.4886V67.0284C259.728 66.7642 259.669 66.5284 259.549 66.321C259.43 66.1108 259.217 66.0057 258.91 66.0057C258.612 66.0057 258.397 66.1108 258.267 66.321C258.139 66.5284 258.075 66.7642 258.075 67.0284ZM252.859 62.4943V62.0341C252.859 61.7159 252.924 61.4247 253.055 61.1605C253.189 60.8935 253.382 60.6804 253.635 60.5213C253.89 60.3594 254.2 60.2784 254.564 60.2784C254.933 60.2784 255.243 60.3594 255.493 60.5213C255.743 60.6804 255.931 60.8935 256.059 61.1605C256.187 61.4247 256.251 61.7159 256.251 62.0341V62.4943C256.251 62.8125 256.186 63.1051 256.055 63.3722C255.927 63.6364 255.737 63.8494 255.484 64.0114C255.234 64.1705 254.927 64.25 254.564 64.25C254.194 64.25 253.883 64.1705 253.63 64.0114C253.377 63.8494 253.186 63.6364 253.055 63.3722C252.924 63.1051 252.859 62.8125 252.859 62.4943ZM253.728 62.0341V62.4943C253.728 62.7585 253.791 62.9957 253.916 63.206C254.041 63.4134 254.257 63.517 254.564 63.517C254.862 63.517 255.072 63.4134 255.194 63.206C255.319 62.9957 255.382 62.7585 255.382 62.4943V62.0341C255.382 61.7699 255.322 61.5341 255.203 61.3267C255.083 61.1165 254.87 61.0114 254.564 61.0114C254.265 61.0114 254.051 61.1165 253.92 61.3267C253.792 61.5341 253.728 61.7699 253.728 62.0341ZM253.183 69.125L259.183 60.3977H260.154L254.154 69.125H253.183Z" fill="#72787E"/>
<rect x="219.5" y="79.5" width="13" height="13" rx="6.5" fill="#006397" stroke="#F1F4F9" stroke-width="3"/>
</g>
<defs>
<linearGradient id="paint0_linear_5996_190152" x1="387" y1="-56" x2="387" y2="331" gradientUnits="userSpaceOnUse">
<stop stop-color="#006397"/>
<stop offset="0.62" stop-color="#006397" stop-opacity="0"/>
</linearGradient>
<clipPath id="clip0_5996_190152">
<path d="M0 40C0 17.9086 17.9086 0 40 0H358C380.091 0 398 17.9086 398 40V172C398 194.091 380.091 212 358 212H40C17.9086 212 0 194.091 0 172V40Z" fill="white"/>
</clipPath>
<clipPath id="clip1_5996_190152">
<rect width="18" height="18" fill="white" transform="translate(194 44)"/>
</clipPath>
<clipPath id="clip2_5996_190152">
<rect width="18" height="18" fill="white" transform="translate(194 44)"/>
</clipPath>
</defs>
</svg>
