
<svg width="916" height="402" viewBox="0 0 916 402" fill="none" xmlns="http://www.w3.org/2000/svg">
<g clip-path="url(#clip0_10633_110103)">
<g filter="url(#filter0_i_10633_110103)">
<rect x="397.813" y="109.121" width="116.121" height="116.121" rx="30" fill="url(#paint0_linear_10633_110103)"/>
<path d="M433.532 177.954V171.746H458.236V177.954H433.532ZM423.932 187.682L442.044 146.21H449.852L468.092 187.682H460.22L444.348 150.242H447.548L431.74 187.682H423.932ZM475.488 146.21H482.784V187.682H475.488V146.21Z" fill="white"/>
</g>
<path d="M397.813 77.0868V-2.59646L413.43 -19.8145H499.52L513.935 -2.59646V77.0868L499.52 96.3069H413.43L397.813 77.0868Z" fill="url(#paint1_linear_10633_110103)" fill-opacity="0.6" stroke="url(#paint2_linear_10633_110103)" stroke-opacity="0.3"/>
<path d="M397.813 257.275V336.958L413.43 354.176H499.52L513.935 336.958V257.275L499.52 238.054H413.43L397.813 257.275Z" fill="url(#paint3_linear_10633_110103)" fill-opacity="0.6" stroke="url(#paint4_linear_10633_110103)" stroke-opacity="0.3"/>
<path d="M545.968 225.242L625.652 225.242L642.87 209.626L642.87 123.536L625.652 109.121L545.968 109.121L526.748 123.536L526.748 209.626L545.968 225.242Z" fill="url(#paint5_linear_10633_110103)" fill-opacity="0.6" stroke="url(#paint6_linear_10633_110103)" stroke-opacity="0.3"/>
<path d="M365.78 225.242L286.097 225.242L268.879 209.626L268.879 123.536L286.097 109.121L365.78 109.121L385 123.536L385 209.626L365.78 225.242Z" fill="url(#paint7_linear_10633_110103)" fill-opacity="0.6" stroke="url(#paint8_linear_10633_110103)" stroke-opacity="0.3"/>
<path d="M515.537 107.519L564.788 63.4727H631.658" stroke="url(#paint9_linear_10633_110103)" stroke-opacity="0.6" stroke-width="1.5"/>
<path opacity="0.6" d="M534.757 90.3013L543.566 82.293" stroke="#92CCFF" stroke-width="1.5" stroke-linecap="round"/>
<g opacity="0.3">
<path d="M685.314 90.7012L744.176 146.76H827.063" stroke="url(#paint10_linear_10633_110103)" stroke-opacity="0.6" stroke-width="1.5"/>
<path opacity="0.6" d="M778.212 146.76H793.828" stroke="#92CCFF" stroke-width="1.5" stroke-linecap="round"/>
<path d="M685.314 242.859L744.176 186.801H827.063" stroke="url(#paint11_linear_10633_110103)" stroke-opacity="0.6" stroke-width="1.5"/>
<path opacity="0.6" d="M778.211 186.801H793.828" stroke="#92CCFF" stroke-width="1.5" stroke-linecap="round"/>
</g>
<g opacity="0.3">
<path d="M232.041 90.7012L173.179 146.76H90.2924" stroke="url(#paint12_linear_10633_110103)" stroke-opacity="0.6" stroke-width="1.5"/>
<path opacity="0.6" d="M139.144 146.76H123.527" stroke="#92CCFF" stroke-width="1.5" stroke-linecap="round"/>
<path d="M232.041 242.859L173.179 186.801H90.2924" stroke="url(#paint13_linear_10633_110103)" stroke-opacity="0.6" stroke-width="1.5"/>
<path opacity="0.6" d="M139.144 186.801H123.527" stroke="#92CCFF" stroke-width="1.5" stroke-linecap="round"/>
</g>
<path d="M515.537 230.046L564.789 274.092H631.658" stroke="url(#paint14_linear_10633_110103)" stroke-opacity="0.6" stroke-width="1.5"/>
<path opacity="0.6" d="M534.757 247.263L543.567 255.271" stroke="#92CCFF" stroke-width="1.5" stroke-linecap="round"/>
<path d="M394.61 107.519L345.359 63.4727H278.489" stroke="url(#paint15_linear_10633_110103)" stroke-opacity="0.6" stroke-width="1.5"/>
<path opacity="0.6" d="M375.39 90.3013L366.581 82.293" stroke="#92CCFF" stroke-width="1.5" stroke-linecap="round"/>
<path d="M394.61 230.046L345.359 274.092H278.489" stroke="url(#paint16_linear_10633_110103)" stroke-opacity="0.6" stroke-width="1.5"/>
<path opacity="0.6" d="M375.39 247.263L366.581 255.271" stroke="#92CCFF" stroke-width="1.5" stroke-linecap="round"/>
<g filter="url(#filter1_b_10633_110103)">
<rect x="647.877" y="42.6523" width="48.0502" height="36.8385" rx="18" transform="rotate(22.0284 647.877 42.6523)" fill="url(#paint17_linear_10633_110103)" fill-opacity="0.3"/>
<rect x="648.153" y="43.3034" width="47.0502" height="35.8385" rx="17.5" transform="rotate(22.0284 648.153 43.3034)" stroke="url(#paint18_linear_10633_110103)"/>
<g filter="url(#filter2_d_10633_110103)">
<rect x="659.571" y="59.0762" width="7" height="12" rx="3.5" transform="rotate(22.0284 659.571 59.0762)" fill="url(#paint19_linear_10633_110103)"/>
</g>
<g filter="url(#filter3_d_10633_110103)">
<rect x="677.184" y="66.2031" width="7" height="12" rx="3.5" transform="rotate(22.0284 677.184 66.2031)" fill="url(#paint20_linear_10633_110103)"/>
</g>
</g>
<path d="M689.073 60.3006L696.771 52.2285" stroke="#D3DEE9" stroke-opacity="0.7" stroke-width="1.5" stroke-linecap="round"/>
<path d="M691.742 62.109L698.506 61.3507" stroke="#D3DEE9" stroke-opacity="0.7" stroke-width="1.5" stroke-linecap="round"/>
<path d="M690.92 65.7131L698.928 68.2782" stroke="#D3DEE9" stroke-opacity="0.7" stroke-width="1.5" stroke-linecap="round"/>
<rect x="650.653" y="253.198" width="19.048" height="28.5946" rx="9.52398" transform="rotate(15.2126 650.653 253.198)" fill="url(#paint21_linear_10633_110103)" fill-opacity="0.3" stroke="url(#paint22_linear_10633_110103)"/>
<path fill-rule="evenodd" clip-rule="evenodd" d="M657.806 287.689C659.04 287.419 660.225 286.984 661.333 286.4C661.897 286.102 662.441 285.765 662.96 285.391C663.025 285.345 663.092 285.304 663.161 285.268C663.765 284.955 664.522 285.047 664.981 285.566C665.493 286.145 665.442 287.035 664.823 287.497C664.747 287.553 664.671 287.609 664.595 287.664C664.005 288.089 663.388 288.474 662.748 288.817C661.387 289.549 659.926 290.091 658.404 290.423C656.109 290.925 653.739 290.935 651.45 290.461L649.563 297.399C649.346 298.198 648.522 298.67 647.722 298.453C646.923 298.235 646.451 297.411 646.669 296.612L648.578 289.59C646.41 288.714 644.445 287.39 642.814 285.7C641.733 284.578 640.818 283.316 640.092 281.952C639.751 281.311 639.451 280.648 639.196 279.967C639.163 279.879 639.131 279.791 639.099 279.702C638.84 278.974 639.292 278.206 640.039 278.008C640.71 277.831 641.39 278.175 641.719 278.77C641.756 278.838 641.789 278.91 641.817 278.984C642.042 279.583 642.307 280.166 642.611 280.727C643.208 281.828 643.953 282.847 644.829 283.756C646.477 285.465 648.534 286.723 650.806 287.411C653.078 288.099 655.487 288.195 657.806 287.689Z" fill="#C1D5E9" fill-opacity="0.5"/>
<mask id="path-32-inside-1_10633_110103" fill="white">
<path d="M671.03 263.375C671.515 263.417 671.945 263.059 671.946 262.573C671.953 260.563 671.382 258.587 670.292 256.884C669.203 255.181 667.649 253.833 665.822 252.996C665.38 252.793 664.874 253.033 664.709 253.49V253.49C664.545 253.947 664.784 254.448 665.222 254.658C666.685 255.358 667.93 256.456 668.81 257.832C669.69 259.208 670.164 260.798 670.186 262.42C670.193 262.906 670.546 263.333 671.03 263.375V263.375Z"/>
</mask>
<path d="M671.03 263.375C671.515 263.417 671.945 263.059 671.946 262.573C671.953 260.563 671.382 258.587 670.292 256.884C669.203 255.181 667.649 253.833 665.822 252.996C665.38 252.793 664.874 253.033 664.709 253.49V253.49C664.545 253.947 664.784 254.448 665.222 254.658C666.685 255.358 667.93 256.456 668.81 257.832C669.69 259.208 670.164 260.798 670.186 262.42C670.193 262.906 670.546 263.333 671.03 263.375V263.375Z" stroke="#C1D5E9" stroke-opacity="0.5" stroke-width="8" mask="url(#path-32-inside-1_10633_110103)"/>
<mask id="path-33-inside-2_10633_110103" fill="white">
<path d="M674.537 257.244C675.008 257.124 675.297 256.644 675.139 256.185C674.428 254.124 673.093 252.335 671.321 251.067C670.925 250.784 670.383 250.924 670.134 251.341V251.341C669.886 251.759 670.026 252.295 670.416 252.585C671.793 253.605 672.84 255.009 673.426 256.619C673.592 257.076 674.066 257.363 674.537 257.244V257.244Z"/>
</mask>
<path d="M674.537 257.244C675.008 257.124 675.297 256.644 675.139 256.185C674.428 254.124 673.093 252.335 671.321 251.067C670.925 250.784 670.383 250.924 670.134 251.341V251.341C669.886 251.759 670.026 252.295 670.416 252.585C671.793 253.605 672.84 255.009 673.426 256.619C673.592 257.076 674.066 257.363 674.537 257.244V257.244Z" stroke="#C1D5E9" stroke-opacity="0.5" stroke-width="8" mask="url(#path-33-inside-2_10633_110103)"/>
<path d="M706.166 15.7662L757.839 -71.2068L786.049 -79.8733L880.015 -24.0467L884.583 4.09424L832.911 91.0672L804.714 102.698L710.748 46.8713L706.166 15.7662Z" fill="#222528" fill-opacity="0.1" stroke="url(#paint23_linear_10633_110103)" stroke-opacity="0.3"/>
<path d="M706.166 323.923L757.839 410.896L786.049 419.563L880.015 363.736L884.583 335.595L832.911 248.622L804.714 236.992L710.748 292.818L706.166 323.923Z" fill="#222528" fill-opacity="0.1" stroke="url(#paint24_linear_10633_110103)" stroke-opacity="0.3"/>
<path d="M210.582 15.7662L158.91 -71.2068L130.7 -79.8733L36.7339 -24.0467L32.1654 4.09424L83.8375 91.0672L112.035 102.698L206.001 46.8713L210.582 15.7662Z" fill="#222528" fill-opacity="0.1" stroke="url(#paint25_linear_10633_110103)" stroke-opacity="0.3"/>
<path d="M210.582 323.923L158.91 410.896L130.7 419.563L36.7339 363.736L32.1654 335.595L83.8375 248.622L112.035 236.992L206.001 292.818L210.582 323.923Z" fill="#222528" fill-opacity="0.1" stroke="url(#paint26_linear_10633_110103)" stroke-opacity="0.3"/>
<path d="M260.59 73.2734L268.434 85.842" stroke="#C1D5E9" stroke-width="4" stroke-linecap="round"/>
<g filter="url(#filter4_b_10633_110103)">
<circle cx="254.358" cy="62.532" r="13.2138" transform="rotate(-31.9687 254.358 62.532)" fill="url(#paint27_linear_10633_110103)" fill-opacity="0.3"/>
<circle cx="254.358" cy="62.532" r="12.7138" transform="rotate(-31.9687 254.358 62.532)" stroke="url(#paint28_linear_10633_110103)"/>
</g>
<mask id="path-41-inside-3_10633_110103" fill="white">
<path d="M238.957 68.1929C238.594 68.4327 238.103 68.3309 237.891 67.9519C237.012 66.3853 236.458 64.6462 236.264 62.8344C236.042 60.7573 236.299 58.639 237.016 56.6403C237.732 54.6415 238.89 52.8147 240.4 51.2983C241.726 49.9669 243.294 48.9054 245.01 48.1738C245.401 48.0067 245.844 48.222 245.978 48.6263V48.6263C246.107 49.0147 245.903 49.4332 245.527 49.595C244.017 50.245 242.637 51.1828 241.468 52.3565C240.124 53.705 239.095 55.3296 238.458 57.1071C237.821 58.8846 237.592 60.7683 237.79 62.6155C237.96 64.2042 238.441 65.73 239.204 67.108C239.41 67.4811 239.312 67.9575 238.957 68.1929V68.1929Z"/>
</mask>
<path d="M238.957 68.1929C238.594 68.4327 238.103 68.3309 237.891 67.9519C237.012 66.3853 236.458 64.6462 236.264 62.8344C236.042 60.7573 236.299 58.639 237.016 56.6403C237.732 54.6415 238.89 52.8147 240.4 51.2983C241.726 49.9669 243.294 48.9054 245.01 48.1738C245.401 48.0067 245.844 48.222 245.978 48.6263V48.6263C246.107 49.0147 245.903 49.4332 245.527 49.595C244.017 50.245 242.637 51.1828 241.468 52.3565C240.124 53.705 239.095 55.3296 238.458 57.1071C237.821 58.8846 237.592 60.7683 237.79 62.6155C237.96 64.2042 238.441 65.73 239.204 67.108C239.41 67.4811 239.312 67.9575 238.957 68.1929V68.1929Z" stroke="#C1D5E9" stroke-opacity="0.5" stroke-width="8" mask="url(#path-41-inside-3_10633_110103)"/>
<path d="M262.792 280.394C256.63 282.137 250.58 279.287 249.151 274.236C247.722 269.185 251.382 263.589 257.544 261.845C263.705 260.102 269.755 262.952 271.184 268.003C271.666 269.705 271.693 271.205 271.28 272.582C270.867 273.961 269.999 275.262 268.618 276.545C268.495 276.659 268.444 276.8 268.421 276.891C268.396 276.988 268.388 277.087 268.386 277.175C268.383 277.35 268.405 277.555 268.435 277.761C268.494 278.155 268.601 278.64 268.703 279.105C268.708 279.13 268.713 279.154 268.719 279.178C268.828 279.678 268.93 280.15 268.979 280.515C268.986 280.567 268.992 280.615 268.996 280.659C268.946 280.643 268.891 280.624 268.83 280.602C268.476 280.474 268.029 280.276 267.558 280.068L267.514 280.048C267.067 279.85 266.601 279.643 266.217 279.501C266.02 279.427 265.825 279.364 265.655 279.328C265.571 279.31 265.476 279.296 265.381 279.295C265.295 279.295 265.155 279.305 265.018 279.382C264.893 279.452 264.779 279.517 264.674 279.576C263.996 279.962 263.676 280.144 262.792 280.394Z" fill="url(#paint29_linear_10633_110103)" fill-opacity="0.3" stroke="url(#paint30_linear_10633_110103)"/>
<g filter="url(#filter5_d_10633_110103)">
<rect x="253.154" y="271.598" width="3.62083" height="3.62083" rx="1.81041" transform="rotate(-15.7976 253.154 271.598)" fill="url(#paint31_linear_10633_110103)"/>
</g>
<g filter="url(#filter6_d_10633_110103)">
<rect x="258.032" y="270.219" width="3.62083" height="3.62083" rx="1.81041" transform="rotate(-15.7976 258.032 270.219)" fill="url(#paint32_linear_10633_110103)"/>
</g>
<g filter="url(#filter7_d_10633_110103)">
<rect x="262.91" y="268.838" width="3.62083" height="3.62083" rx="1.81041" transform="rotate(-15.7976 262.91 268.838)" fill="url(#paint33_linear_10633_110103)"/>
</g>
<g filter="url(#filter8_b_10633_110103)">
<path d="M218.99 278.147C220.568 283.724 224.053 286.827 230.059 288.025C230.862 288.185 232.139 294.082 232.977 294.143C233.758 294.201 236.597 288.905 237.399 288.873C239.072 288.805 239.686 288.849 241.395 288.365C251.373 285.542 257.52 276.39 255.125 267.924C252.729 259.457 242.699 254.882 232.72 257.705C222.742 260.529 216.595 269.681 218.99 278.147Z" fill="url(#paint34_linear_10633_110103)" fill-opacity="0.3"/>
<path d="M241.259 287.884C251.048 285.114 256.944 276.189 254.644 268.06C252.344 259.93 242.646 255.417 232.856 258.187C223.067 260.956 217.171 269.881 219.471 278.011C220.24 280.727 221.462 282.808 223.197 284.355C224.933 285.903 227.217 286.948 230.157 287.534C230.34 287.571 230.476 287.676 230.563 287.76C230.654 287.849 230.733 287.955 230.801 288.061C230.937 288.273 231.069 288.547 231.196 288.843C231.438 289.41 231.692 290.138 231.94 290.849L231.977 290.956C232.241 291.712 232.497 292.439 232.738 292.981C232.849 293.233 232.949 293.425 233.034 293.554C233.156 293.441 233.31 293.268 233.493 293.037C233.868 292.565 234.311 291.923 234.768 291.258L234.808 291.201C235.246 290.563 235.695 289.91 236.086 289.41C236.286 289.153 236.484 288.921 236.667 288.748C236.758 288.661 236.857 288.578 236.961 288.513C237.058 288.453 237.204 288.38 237.379 288.373C237.603 288.364 237.807 288.357 237.996 288.35C239.228 288.308 239.835 288.287 241.259 287.884ZM233.138 293.685C233.138 293.684 233.138 293.684 233.137 293.683C233.138 293.684 233.138 293.685 233.138 293.685ZM232.9 293.659C232.897 293.66 232.896 293.661 232.896 293.661C232.896 293.661 232.897 293.66 232.9 293.659Z" stroke="url(#paint35_linear_10633_110103)"/>
</g>
<g filter="url(#filter9_d_10633_110103)">
<rect width="5.68988" height="5.68988" rx="2.84494" transform="matrix(-0.962229 0.27224 0.27224 0.962229 246.84 267.902)" fill="url(#paint36_linear_10633_110103)"/>
</g>
<g filter="url(#filter10_d_10633_110103)">
<rect width="5.68988" height="5.68988" rx="2.84494" transform="matrix(-0.962229 0.27224 0.27224 0.962229 239.175 270.072)" fill="url(#paint37_linear_10633_110103)"/>
</g>
<g filter="url(#filter11_d_10633_110103)">
<rect width="5.68988" height="5.68988" rx="2.84494" transform="matrix(-0.962229 0.27224 0.27224 0.962229 231.51 272.24)" fill="url(#paint38_linear_10633_110103)"/>
</g>
</g>
<defs>
<filter id="filter0_i_10633_110103" x="397.813" y="109.121" width="116.122" height="116.121" filterUnits="userSpaceOnUse" color-interpolation-filters="sRGB">
<feFlood flood-opacity="0" result="BackgroundImageFix"/>
<feBlend mode="normal" in="SourceGraphic" in2="BackgroundImageFix" result="shape"/>
<feColorMatrix in="SourceAlpha" type="matrix" values="0 0 0 0 0 0 0 0 0 0 0 0 0 0 0 0 0 0 127 0" result="hardAlpha"/>
<feOffset/>
<feGaussianBlur stdDeviation="7"/>
<feComposite in2="hardAlpha" operator="arithmetic" k2="-1" k3="1"/>
<feColorMatrix type="matrix" values="0 0 0 0 1 0 0 0 0 1 0 0 0 0 1 0 0 0 0.74 0"/>
<feBlend mode="normal" in2="shape" result="effect1_innerShadow_10633_110103"/>
</filter>
<filter id="filter1_b_10633_110103" x="630.061" y="38.6523" width="66.3594" height="60.1719" filterUnits="userSpaceOnUse" color-interpolation-filters="sRGB">
<feFlood flood-opacity="0" result="BackgroundImageFix"/>
<feGaussianBlur in="BackgroundImageFix" stdDeviation="2"/>
<feComposite in2="SourceAlpha" operator="in" result="effect1_backgroundBlur_10633_110103"/>
<feBlend mode="normal" in="SourceGraphic" in2="effect1_backgroundBlur_10633_110103" result="shape"/>
</filter>
<filter id="filter2_d_10633_110103" x="656.127" y="60.1328" width="9.87695" height="13.6367" filterUnits="userSpaceOnUse" color-interpolation-filters="sRGB">
<feFlood flood-opacity="0" result="BackgroundImageFix"/>
<feColorMatrix in="SourceAlpha" type="matrix" values="0 0 0 0 0 0 0 0 0 0 0 0 0 0 0 0 0 0 127 0" result="hardAlpha"/>
<feOffset dx="1" dy="2"/>
<feComposite in2="hardAlpha" operator="out"/>
<feColorMatrix type="matrix" values="0 0 0 0 0 0 0 0 0 0 0 0 0 0 0 0 0 0 0.04 0"/>
<feBlend mode="normal" in2="BackgroundImageFix" result="effect1_dropShadow_10633_110103"/>
<feBlend mode="normal" in="SourceGraphic" in2="effect1_dropShadow_10633_110103" result="shape"/>
</filter>
<filter id="filter3_d_10633_110103" x="673.74" y="67.2598" width="9.87695" height="13.6367" filterUnits="userSpaceOnUse" color-interpolation-filters="sRGB">
<feFlood flood-opacity="0" result="BackgroundImageFix"/>
<feColorMatrix in="SourceAlpha" type="matrix" values="0 0 0 0 0 0 0 0 0 0 0 0 0 0 0 0 0 0 127 0" result="hardAlpha"/>
<feOffset dx="1" dy="2"/>
<feComposite in2="hardAlpha" operator="out"/>
<feColorMatrix type="matrix" values="0 0 0 0 0 0 0 0 0 0 0 0 0 0 0 0 0 0 0.04 0"/>
<feBlend mode="normal" in2="BackgroundImageFix" result="effect1_dropShadow_10633_110103"/>
<feBlend mode="normal" in="SourceGraphic" in2="effect1_dropShadow_10633_110103" result="shape"/>
</filter>
<filter id="filter4_b_10633_110103" x="237.142" y="45.3164" width="34.4312" height="34.4316" filterUnits="userSpaceOnUse" color-interpolation-filters="sRGB">
<feFlood flood-opacity="0" result="BackgroundImageFix"/>
<feGaussianBlur in="BackgroundImageFix" stdDeviation="2"/>
<feComposite in2="SourceAlpha" operator="in" result="effect1_backgroundBlur_10633_110103"/>
<feBlend mode="normal" in="SourceGraphic" in2="effect1_backgroundBlur_10633_110103" result="shape"/>
</filter>
<filter id="filter5_d_10633_110103" x="253.578" y="271.035" width="4.12207" height="4.12305" filterUnits="userSpaceOnUse" color-interpolation-filters="sRGB">
<feFlood flood-opacity="0" result="BackgroundImageFix"/>
<feColorMatrix in="SourceAlpha" type="matrix" values="0 0 0 0 0 0 0 0 0 0 0 0 0 0 0 0 0 0 127 0" result="hardAlpha"/>
<feOffset dx="0.5" dy="0.5"/>
<feComposite in2="hardAlpha" operator="out"/>
<feColorMatrix type="matrix" values="0 0 0 0 0 0 0 0 0 0 0 0 0 0 0 0 0 0 0.04 0"/>
<feBlend mode="normal" in2="BackgroundImageFix" result="effect1_dropShadow_10633_110103"/>
<feBlend mode="normal" in="SourceGraphic" in2="effect1_dropShadow_10633_110103" result="shape"/>
</filter>
<filter id="filter6_d_10633_110103" x="258.456" y="269.656" width="4.12207" height="4.12305" filterUnits="userSpaceOnUse" color-interpolation-filters="sRGB">
<feFlood flood-opacity="0" result="BackgroundImageFix"/>
<feColorMatrix in="SourceAlpha" type="matrix" values="0 0 0 0 0 0 0 0 0 0 0 0 0 0 0 0 0 0 127 0" result="hardAlpha"/>
<feOffset dx="0.5" dy="0.5"/>
<feComposite in2="hardAlpha" operator="out"/>
<feColorMatrix type="matrix" values="0 0 0 0 0 0 0 0 0 0 0 0 0 0 0 0 0 0 0.04 0"/>
<feBlend mode="normal" in2="BackgroundImageFix" result="effect1_dropShadow_10633_110103"/>
<feBlend mode="normal" in="SourceGraphic" in2="effect1_dropShadow_10633_110103" result="shape"/>
</filter>
<filter id="filter7_d_10633_110103" x="263.333" y="268.275" width="4.12207" height="4.12305" filterUnits="userSpaceOnUse" color-interpolation-filters="sRGB">
<feFlood flood-opacity="0" result="BackgroundImageFix"/>
<feColorMatrix in="SourceAlpha" type="matrix" values="0 0 0 0 0 0 0 0 0 0 0 0 0 0 0 0 0 0 127 0" result="hardAlpha"/>
<feOffset dx="0.5" dy="0.5"/>
<feComposite in2="hardAlpha" operator="out"/>
<feColorMatrix type="matrix" values="0 0 0 0 0 0 0 0 0 0 0 0 0 0 0 0 0 0 0.04 0"/>
<feBlend mode="normal" in2="BackgroundImageFix" result="effect1_dropShadow_10633_110103"/>
<feBlend mode="normal" in="SourceGraphic" in2="effect1_dropShadow_10633_110103" result="shape"/>
</filter>
<filter id="filter8_b_10633_110103" x="214.473" y="252.871" width="45.1699" height="45.2734" filterUnits="userSpaceOnUse" color-interpolation-filters="sRGB">
<feFlood flood-opacity="0" result="BackgroundImageFix"/>
<feGaussianBlur in="BackgroundImageFix" stdDeviation="2"/>
<feComposite in2="SourceAlpha" operator="in" result="effect1_backgroundBlur_10633_110103"/>
<feBlend mode="normal" in="SourceGraphic" in2="effect1_backgroundBlur_10633_110103" result="shape"/>
</filter>
<filter id="filter9_d_10633_110103" x="242.031" y="268.568" width="6.19141" height="6.19141" filterUnits="userSpaceOnUse" color-interpolation-filters="sRGB">
<feFlood flood-opacity="0" result="BackgroundImageFix"/>
<feColorMatrix in="SourceAlpha" type="matrix" values="0 0 0 0 0 0 0 0 0 0 0 0 0 0 0 0 0 0 127 0" result="hardAlpha"/>
<feOffset dx="0.5" dy="0.5"/>
<feComposite in2="hardAlpha" operator="out"/>
<feColorMatrix type="matrix" values="0 0 0 0 0 0 0 0 0 0 0 0 0 0 0 0 0 0 0.04 0"/>
<feBlend mode="normal" in2="BackgroundImageFix" result="effect1_dropShadow_10633_110103"/>
<feBlend mode="normal" in="SourceGraphic" in2="effect1_dropShadow_10633_110103" result="shape"/>
</filter>
<filter id="filter10_d_10633_110103" x="234.366" y="270.738" width="6.19141" height="6.19141" filterUnits="userSpaceOnUse" color-interpolation-filters="sRGB">
<feFlood flood-opacity="0" result="BackgroundImageFix"/>
<feColorMatrix in="SourceAlpha" type="matrix" values="0 0 0 0 0 0 0 0 0 0 0 0 0 0 0 0 0 0 127 0" result="hardAlpha"/>
<feOffset dx="0.5" dy="0.5"/>
<feComposite in2="hardAlpha" operator="out"/>
<feColorMatrix type="matrix" values="0 0 0 0 0 0 0 0 0 0 0 0 0 0 0 0 0 0 0.04 0"/>
<feBlend mode="normal" in2="BackgroundImageFix" result="effect1_dropShadow_10633_110103"/>
<feBlend mode="normal" in="SourceGraphic" in2="effect1_dropShadow_10633_110103" result="shape"/>
</filter>
<filter id="filter11_d_10633_110103" x="226.701" y="272.906" width="6.19141" height="6.19141" filterUnits="userSpaceOnUse" color-interpolation-filters="sRGB">
<feFlood flood-opacity="0" result="BackgroundImageFix"/>
<feColorMatrix in="SourceAlpha" type="matrix" values="0 0 0 0 0 0 0 0 0 0 0 0 0 0 0 0 0 0 127 0" result="hardAlpha"/>
<feOffset dx="0.5" dy="0.5"/>
<feComposite in2="hardAlpha" operator="out"/>
<feColorMatrix type="matrix" values="0 0 0 0 0 0 0 0 0 0 0 0 0 0 0 0 0 0 0.04 0"/>
<feBlend mode="normal" in2="BackgroundImageFix" result="effect1_dropShadow_10633_110103"/>
<feBlend mode="normal" in="SourceGraphic" in2="effect1_dropShadow_10633_110103" result="shape"/>
</filter>
<linearGradient id="paint0_linear_10633_110103" x1="455.874" y1="109.121" x2="455.874" y2="225.242" gradientUnits="userSpaceOnUse">
<stop stop-color="#2C94CB"/>
<stop offset="1" stop-color="#006397"/>
</linearGradient>
<linearGradient id="paint1_linear_10633_110103" x1="455.874" y1="-6.20022" x2="455.874" y2="96.3069" gradientUnits="userSpaceOnUse">
<stop stop-color="#2B2F33" stop-opacity="0"/>
<stop offset="1" stop-color="#2B2F33"/>
</linearGradient>
<linearGradient id="paint2_linear_10633_110103" x1="455.874" y1="24.632" x2="455.874" y2="96.3069" gradientUnits="userSpaceOnUse">
<stop stop-color="#B7C8DB" stop-opacity="0"/>
<stop offset="1" stop-color="#B7C8DB"/>
</linearGradient>
<linearGradient id="paint3_linear_10633_110103" x1="455.874" y1="340.562" x2="455.874" y2="238.054" gradientUnits="userSpaceOnUse">
<stop stop-color="#2B2F33" stop-opacity="0"/>
<stop offset="1" stop-color="#2B2F33"/>
</linearGradient>
<linearGradient id="paint4_linear_10633_110103" x1="455.874" y1="309.729" x2="455.874" y2="238.054" gradientUnits="userSpaceOnUse">
<stop stop-color="#B7C8DB" stop-opacity="0"/>
<stop offset="1" stop-color="#B7C8DB"/>
</linearGradient>
<linearGradient id="paint5_linear_10633_110103" x1="629.255" y1="167.182" x2="526.748" y2="167.182" gradientUnits="userSpaceOnUse">
<stop stop-color="#2B2F33" stop-opacity="0"/>
<stop offset="1" stop-color="#2B2F33"/>
</linearGradient>
<linearGradient id="paint6_linear_10633_110103" x1="598.423" y1="167.182" x2="526.748" y2="167.182" gradientUnits="userSpaceOnUse">
<stop stop-color="#B7C8DB" stop-opacity="0"/>
<stop offset="1" stop-color="#B7C8DB"/>
</linearGradient>
<linearGradient id="paint7_linear_10633_110103" x1="282.493" y1="167.182" x2="385" y2="167.182" gradientUnits="userSpaceOnUse">
<stop stop-color="#2B2F33" stop-opacity="0"/>
<stop offset="1" stop-color="#2B2F33"/>
</linearGradient>
<linearGradient id="paint8_linear_10633_110103" x1="313.325" y1="167.182" x2="385" y2="167.182" gradientUnits="userSpaceOnUse">
<stop stop-color="#B7C8DB" stop-opacity="0"/>
<stop offset="1" stop-color="#B7C8DB"/>
</linearGradient>
<linearGradient id="paint9_linear_10633_110103" x1="639.666" y1="63.4727" x2="585.209" y2="63.4727" gradientUnits="userSpaceOnUse">
<stop stop-color="#384048" stop-opacity="0"/>
<stop offset="1" stop-color="#384048"/>
</linearGradient>
<linearGradient id="paint10_linear_10633_110103" x1="736.568" y1="125.137" x2="688.117" y2="83.4937" gradientUnits="userSpaceOnUse">
<stop stop-color="#384048"/>
<stop offset="1" stop-color="#384048" stop-opacity="0"/>
</linearGradient>
<linearGradient id="paint11_linear_10633_110103" x1="736.568" y1="208.423" x2="688.117" y2="250.067" gradientUnits="userSpaceOnUse">
<stop stop-color="#384048"/>
<stop offset="1" stop-color="#384048" stop-opacity="0"/>
</linearGradient>
<linearGradient id="paint12_linear_10633_110103" x1="180.787" y1="125.137" x2="229.238" y2="83.4937" gradientUnits="userSpaceOnUse">
<stop stop-color="#384048"/>
<stop offset="1" stop-color="#384048" stop-opacity="0"/>
</linearGradient>
<linearGradient id="paint13_linear_10633_110103" x1="180.787" y1="208.423" x2="229.238" y2="250.067" gradientUnits="userSpaceOnUse">
<stop stop-color="#384048"/>
<stop offset="1" stop-color="#384048" stop-opacity="0"/>
</linearGradient>
<linearGradient id="paint14_linear_10633_110103" x1="639.667" y1="274.092" x2="585.21" y2="274.092" gradientUnits="userSpaceOnUse">
<stop stop-color="#384048" stop-opacity="0"/>
<stop offset="1" stop-color="#384048"/>
</linearGradient>
<linearGradient id="paint15_linear_10633_110103" x1="270.481" y1="63.4727" x2="324.938" y2="63.4727" gradientUnits="userSpaceOnUse">
<stop stop-color="#384048" stop-opacity="0"/>
<stop offset="1" stop-color="#384048"/>
</linearGradient>
<linearGradient id="paint16_linear_10633_110103" x1="270.481" y1="274.092" x2="324.938" y2="274.092" gradientUnits="userSpaceOnUse">
<stop stop-color="#384048" stop-opacity="0"/>
<stop offset="1" stop-color="#384048"/>
</linearGradient>
<linearGradient id="paint17_linear_10633_110103" x1="671.903" y1="42.6523" x2="671.903" y2="79.4908" gradientUnits="userSpaceOnUse">
<stop stop-color="#DDE5FC"/>
<stop offset="1" stop-color="#A7AEC7"/>
</linearGradient>
<linearGradient id="paint18_linear_10633_110103" x1="671.903" y1="22.0228" x2="671.903" y2="79.4908" gradientUnits="userSpaceOnUse">
<stop stop-color="#C1D5E9"/>
<stop offset="1" stop-color="#C1D5E9" stop-opacity="0"/>
</linearGradient>
<linearGradient id="paint19_linear_10633_110103" x1="663.071" y1="59.0762" x2="663.071" y2="71.0762" gradientUnits="userSpaceOnUse">
<stop stop-color="#D4E7FC"/>
<stop offset="1" stop-color="#AEC1D7"/>
</linearGradient>
<linearGradient id="paint20_linear_10633_110103" x1="680.684" y1="66.2031" x2="680.684" y2="78.2031" gradientUnits="userSpaceOnUse">
<stop stop-color="#D4E7FC"/>
<stop offset="1" stop-color="#AEC1D7"/>
</linearGradient>
<linearGradient id="paint21_linear_10633_110103" x1="660.326" y1="252.584" x2="660.326" y2="282.179" gradientUnits="userSpaceOnUse">
<stop stop-color="#DDE5FC"/>
<stop offset="1" stop-color="#A7AEC7"/>
</linearGradient>
<linearGradient id="paint22_linear_10633_110103" x1="660.326" y1="252.584" x2="660.326" y2="282.179" gradientUnits="userSpaceOnUse">
<stop stop-color="#C1D5E9"/>
<stop offset="1" stop-color="#C1D5E9" stop-opacity="0"/>
</linearGradient>
<linearGradient id="paint23_linear_10633_110103" x1="803.554" y1="-3.83688" x2="757.075" y2="74.3951" gradientUnits="userSpaceOnUse">
<stop stop-color="#444A4F" stop-opacity="0"/>
<stop offset="1" stop-color="#444A4F"/>
</linearGradient>
<linearGradient id="paint24_linear_10633_110103" x1="803.554" y1="343.526" x2="757.075" y2="265.294" gradientUnits="userSpaceOnUse">
<stop stop-color="#444A4F" stop-opacity="0"/>
<stop offset="1" stop-color="#444A4F"/>
</linearGradient>
<linearGradient id="paint25_linear_10633_110103" x1="113.194" y1="-3.83688" x2="159.673" y2="74.3951" gradientUnits="userSpaceOnUse">
<stop stop-color="#444A4F" stop-opacity="0"/>
<stop offset="1" stop-color="#444A4F"/>
</linearGradient>
<linearGradient id="paint26_linear_10633_110103" x1="113.194" y1="343.526" x2="159.673" y2="265.294" gradientUnits="userSpaceOnUse">
<stop stop-color="#444A4F" stop-opacity="0"/>
<stop offset="1" stop-color="#444A4F"/>
</linearGradient>
<linearGradient id="paint27_linear_10633_110103" x1="254.358" y1="49.3182" x2="254.358" y2="75.7458" gradientUnits="userSpaceOnUse">
<stop stop-color="#DDE5FC"/>
<stop offset="1" stop-color="#A7AEC7"/>
</linearGradient>
<linearGradient id="paint28_linear_10633_110103" x1="254.358" y1="49.3182" x2="254.358" y2="75.7458" gradientUnits="userSpaceOnUse">
<stop stop-color="#C1D5E9"/>
<stop offset="1" stop-color="#C1D5E9" stop-opacity="0"/>
</linearGradient>
<linearGradient id="paint29_linear_10633_110103" x1="257.408" y1="261.364" x2="263.496" y2="282.883" gradientUnits="userSpaceOnUse">
<stop stop-color="#DDE5FC"/>
<stop offset="1" stop-color="#A7AEC7"/>
</linearGradient>
<linearGradient id="paint30_linear_10633_110103" x1="257.408" y1="261.364" x2="263.496" y2="282.883" gradientUnits="userSpaceOnUse">
<stop stop-color="#C1D5E9"/>
<stop offset="1" stop-color="#C1D5E9" stop-opacity="0"/>
</linearGradient>
<linearGradient id="paint31_linear_10633_110103" x1="254.964" y1="271.598" x2="254.964" y2="275.218" gradientUnits="userSpaceOnUse">
<stop stop-color="#D4E7FC"/>
<stop offset="1" stop-color="#AEC1D7"/>
</linearGradient>
<linearGradient id="paint32_linear_10633_110103" x1="259.842" y1="270.219" x2="259.842" y2="273.84" gradientUnits="userSpaceOnUse">
<stop stop-color="#D4E7FC"/>
<stop offset="1" stop-color="#AEC1D7"/>
</linearGradient>
<linearGradient id="paint33_linear_10633_110103" x1="264.72" y1="268.838" x2="264.72" y2="272.459" gradientUnits="userSpaceOnUse">
<stop stop-color="#D4E7FC"/>
<stop offset="1" stop-color="#AEC1D7"/>
</linearGradient>
<linearGradient id="paint34_linear_10633_110103" x1="232.72" y1="257.705" x2="242.288" y2="291.521" gradientUnits="userSpaceOnUse">
<stop stop-color="#DDE5FC"/>
<stop offset="1" stop-color="#A7AEC7"/>
</linearGradient>
<linearGradient id="paint35_linear_10633_110103" x1="232.72" y1="257.705" x2="242.288" y2="291.521" gradientUnits="userSpaceOnUse">
<stop stop-color="#C1D5E9"/>
<stop offset="1" stop-color="#C1D5E9" stop-opacity="0"/>
</linearGradient>
<linearGradient id="paint36_linear_10633_110103" x1="2.84494" y1="0" x2="2.84494" y2="5.68988" gradientUnits="userSpaceOnUse">
<stop stop-color="#D4E7FC"/>
<stop offset="1" stop-color="#AEC1D7"/>
</linearGradient>
<linearGradient id="paint37_linear_10633_110103" x1="2.84494" y1="0" x2="2.84494" y2="5.68988" gradientUnits="userSpaceOnUse">
<stop stop-color="#D4E7FC"/>
<stop offset="1" stop-color="#AEC1D7"/>
</linearGradient>
<linearGradient id="paint38_linear_10633_110103" x1="2.84494" y1="0" x2="2.84494" y2="5.68988" gradientUnits="userSpaceOnUse">
<stop stop-color="#D4E7FC"/>
<stop offset="1" stop-color="#AEC1D7"/>
</linearGradient>
<clipPath id="clip0_10633_110103">
<rect width="916" height="402" fill="white"/>
</clipPath>
</defs>
</svg>
