<svg xmlns="http://www.w3.org/2000/svg" width="262" height="192" fill="none" viewBox="0 0 262 192"><rect width="261" height="191" x=".5" y=".5" fill="#313539" rx="11.5"/><rect width="261" height="191" x=".5" y=".5" stroke="#42474E" rx="11.5"/><circle cx="10.458" cy="10.457" r="2.614" fill="#42474E"/><circle cx="18.3" cy="10.457" r="2.614" fill="#42474E"/><circle cx="26.144" cy="10.457" r="2.614" fill="#42474E"/><circle cx="250.972" cy="10.457" r="2.614" fill="#42474E"/><rect width="120.257" height="5.229" x="70.586" y="7.843" fill="#42474E" rx="2.614"/><rect width="93" height="3" x="84" y="110" fill="#42474E" rx="1.5"/><rect width="79" height="3" x="91" y="115" fill="#42474E" rx="1.5"/><rect width="37.907" height="10.457" x="112" y="126" fill="#60666F" rx="5.229"/><path fill="#60666F" d="M100.702 99H93.5653V89.8056H70.9331V81.5114L87.7144 53.9926H100.702V83.4403H108.289V89.8056H100.702V99ZM77.8771 82.4759V83.4403H93.5653V58.4933H92.4723L77.8771 82.4759ZM130.984 99.9001C120.44 99.9001 113.689 93.9849 113.689 82.0258V70.9668C113.689 59.2649 120.44 53.0924 130.984 53.0924C141.529 53.0924 148.28 59.2649 148.28 70.9668V82.0258C148.28 93.9849 141.529 99.9001 130.984 99.9001ZM130.984 93.4705C137.864 93.4705 141.143 89.4199 141.143 82.283V70.581C141.143 63.3799 137.35 59.4578 130.984 59.4578C124.491 59.4578 120.826 63.5727 120.826 70.581V82.283C120.826 89.6127 124.233 93.4705 130.984 93.4705ZM183.812 99H176.675V89.8056H154.043V81.5114L170.824 53.9926H183.812V83.4403H191.399V89.8056H183.812V99ZM160.987 82.4759V83.4403H176.675V58.4933H175.582L160.987 82.4759Z"/><rect width="21" height="3" x="91" y="167" fill="#42474E" rx="1.5"/><rect width="21" height="3" x="120" y="167" fill="#42474E" rx="1.5"/><rect width="21" height="3" x="149" y="167" fill="#42474E" rx="1.5"/></svg>