<svg xmlns="http://www.w3.org/2000/svg" width="262" height="187" fill="none" viewBox="0 0 262 187"><rect width="261" height="186" x=".5" y=".5" fill="#fff" rx="11.5"/><rect width="261" height="186" x=".5" y=".5" stroke="#E9EDF5" rx="11.5"/><circle cx="10.458" cy="10.458" r="2.614" fill="#DCE2ED"/><circle cx="18.3" cy="10.458" r="2.614" fill="#DCE2ED"/><circle cx="26.144" cy="10.458" r="2.614" fill="#DCE2ED"/><circle cx="250.972" cy="10.458" r="2.614" fill="#DCE2ED"/><rect width="120.257" height="5.229" x="70.586" y="7.844" fill="#DCE2ED" rx="2.614"/><rect width="139" height="10" x="61" y="50" fill="#DCE2ED" rx="5"/><rect width="119" height="11" x="71" y="63" fill="#DCE2ED" rx="5.5"/><rect width="214" height="67" x="24" y="86" fill="#F2F5FA" rx="12"/><rect width="18.78" height="15" x="44.242" y="104" fill="#E3E8F2" rx="7.5"/><rect width="39.268" height="4" x="34" y="124" fill="#E9EDF5" rx="2"/><rect width="31.585" height="4" x="37.414" y="131" fill="#E9EDF5" rx="2"/><rect width="1" height="31" x="78" y="104" fill="#EDF1F7" rx=".5"/><rect width="1" height="31" x="130" y="104" fill="#EDF1F7" rx=".5"/><rect width="1" height="31" x="182" y="104" fill="#EDF1F7" rx=".5"/><rect width="18.78" height="15" x="95.51" y="104" fill="#E3E8F2" rx="7.5"/><rect width="39.268" height="4" x="85.268" y="124" fill="#E9EDF5" rx="2"/><rect width="31.585" height="4" x="88.682" y="131" fill="#E9EDF5" rx="2"/><rect width="18.78" height="15" x="146.777" y="104" fill="#E3E8F2" rx="7.5"/><rect width="39.268" height="4" x="136.535" y="124" fill="#E9EDF5" rx="2"/><rect width="31.585" height="4" x="139.949" y="131" fill="#E9EDF5" rx="2"/><rect width="18.78" height="15" x="198.045" y="104" fill="#E3E8F2" rx="7.5"/><rect width="39.268" height="4" x="187.803" y="124" fill="#E9EDF5" rx="2"/><rect width="31.585" height="4" x="191.217" y="131" fill="#E9EDF5" rx="2"/></svg>