<svg width="262" height="192" viewBox="0 0 262 192" fill="none" xmlns="http://www.w3.org/2000/svg">
<rect x="0.5" y="0.5" width="261" height="191" rx="11.5" fill="#313539"/>
<rect x="0.5" y="0.5" width="261" height="191" rx="11.5" stroke="#42474E"/>
<circle cx="10.458" cy="10.4571" r="2.61429" fill="#42474E"/>
<circle cx="18.2998" cy="10.4571" r="2.61429" fill="#42474E"/>
<circle cx="26.1436" cy="10.4571" r="2.61429" fill="#42474E"/>
<circle cx="250.972" cy="10.4571" r="2.61429" fill="#42474E"/>
<rect x="70.5859" y="7.84277" width="120.257" height="5.22857" rx="2.61429" fill="#42474E"/>
<rect x="23" y="32" width="107" height="10" rx="5" fill="#60666F"/>
<rect x="183" y="43" width="56" height="5" rx="2.5" fill="#60666F" fill-opacity="0.8"/>
<rect x="23" y="45" width="82.7273" height="10" rx="5" fill="#60666F"/>
<rect x="183" y="50" width="48" height="5" rx="2.5" fill="#60666F" fill-opacity="0.8"/>
<rect x="23" y="67" width="106" height="52" rx="8" fill="#373C41"/>
<rect x="25" y="69" width="102" height="30" rx="8" fill="#42474E"/>
<rect x="133" y="67" width="106" height="52" rx="8" fill="#373C41"/>
<rect x="23" y="123" width="216" height="52" rx="8" fill="#373C41"/>
<rect x="33" y="134" width="46" height="8" rx="4" fill="#60666F"/>
<rect x="33" y="147" width="68.9326" height="4" rx="2" fill="#42474E"/>
<rect x="33" y="154" width="81.7344" height="4" rx="2" fill="#42474E"/>
<rect x="33" y="160" width="53.1766" height="4" rx="2" fill="#42474E"/>
<rect x="135" y="69" width="102" height="30" rx="8" fill="#42474E"/>
<rect x="120" y="125" width="117" height="48" rx="8" fill="#42474E"/>
<rect x="138" y="102" width="55" height="5" rx="2.5" fill="#60666F"/>
<rect x="138" y="110" width="82" height="2" rx="1" fill="#42474E"/>
<rect x="138" y="114" width="97" height="2" rx="1" fill="#42474E"/>
<rect x="28" y="102" width="55" height="5" rx="2.5" fill="#60666F"/>
<rect x="28" y="110" width="82" height="2" rx="1" fill="#42474E"/>
<rect x="28" y="114" width="97" height="2" rx="1" fill="#42474E"/>
</svg>
