<svg xmlns="http://www.w3.org/2000/svg" width="262" height="187" fill="none" viewBox="0 0 262 187"><rect width="261" height="62" x=".5" y=".5" fill="#313539" rx="11.5"/><rect width="261" height="62" x=".5" y=".5" stroke="#42474E" rx="11.5"/><rect width="26" height="10" x="31" y="36" fill="#60666F" rx="5"/><rect width="25" height="10" x="61" y="36" fill="#60666F" rx="5"/><rect width="25" height="10" x="90" y="36" fill="#60666F" rx="5"/><rect width="25" height="10" x="119" y="36" fill="#60666F" rx="5"/><rect width="25" height="10" x="148" y="36" fill="#60666F" rx="5"/><rect width="25" height="10" x="177" y="36" fill="#60666F" rx="5"/><rect width="25" height="10" x="206" y="36" fill="#60666F" rx="5"/><rect width="123" height="4" x="69" y="18" fill="#42474E" rx="2"/><rect width="261" height="50" x=".5" y="68.5" fill="#313539" rx="11.5"/><rect width="261" height="50" x=".5" y="68.5" stroke="#42474E" rx="11.5"/><rect width="26" height="10" x="66" y="84" fill="#60666F" rx="5"/><rect width="25" height="10" x="96" y="84" fill="#60666F" rx="5"/><rect width="25" height="10" x="125" y="84" fill="#60666F" rx="5"/><rect width="25" height="10" x="154" y="84" fill="#60666F" rx="5"/><rect width="25" height="10" x="183" y="84" fill="#60666F" rx="5"/><rect width="25" height="10" x="212" y="84" fill="#60666F" rx="5"/><rect width="210" height="1" x="27" y="100" fill="#42474E" rx=".5"/><rect width="1" height="22" x="61" y="79" fill="#42474E" rx=".5"/><rect width="177" height="4" x="42" y="107" fill="#42474E" rx="2"/><rect width="31" height="3" x="27" y="84" fill="#42474E" rx="1.5"/><rect width="28" height="3" x="27" y="88" fill="#42474E" rx="1.5"/><rect width="19" height="3" x="27" y="92" fill="#42474E" rx="1.5"/><rect width="261" height="62" x=".5" y="124.5" fill="#313539" rx="11.5"/><rect width="261" height="62" x=".5" y="124.5" stroke="#42474E" rx="11.5"/><rect width="30" height="10" x="34" y="146" fill="#60666F" rx="5"/><rect width="29" height="10" x="68" y="146" fill="#60666F" rx="5"/><rect width="29" height="10" x="101" y="146" fill="#60666F" rx="5"/><rect width="28" height="10" x="134" y="146" fill="#60666F" rx="5"/><rect width="29" height="10" x="166" y="146" fill="#60666F" rx="5"/><rect width="29" height="10" x="199" y="146" fill="#60666F" rx="5"/><rect width="31" height="10" x="63" y="160" fill="#60666F" rx="5"/><rect width="31" height="10" x="98" y="160" fill="#60666F" rx="5"/><rect width="31" height="10" x="133" y="160" fill="#60666F" rx="5"/><rect width="31" height="10" x="168" y="160" fill="#60666F" rx="5"/><rect width="35" height="4" x="113" y="134" fill="#42474E" rx="2"/></svg>