<svg width="262" height="192" viewBox="0 0 262 192" fill="none" xmlns="http://www.w3.org/2000/svg">
<rect x="0.5" y="0.5" width="261" height="191" rx="11.5" fill="#313539"/>
<rect x="0.5" y="0.5" width="261" height="191" rx="11.5" stroke="#42474E"/>
<circle cx="10.4578" cy="10.4572" r="2.61429" fill="#42474E"/>
<circle cx="18.3006" cy="10.4572" r="2.61429" fill="#42474E"/>
<circle cx="26.1433" cy="10.4572" r="2.61429" fill="#42474E"/>
<circle cx="26.1433" cy="10.4572" r="2.61429" fill="#42474E"/>
<circle cx="250.972" cy="10.4572" r="2.61429" fill="#42474E"/>
<rect x="70.5862" y="7.8429" width="120.257" height="5.22857" rx="2.61429" fill="#42474E"/>
<rect x="20" y="52" width="105.961" height="55" rx="4" fill="#42474E"/>
<rect x="26" y="55" width="93.4948" height="37" rx="4" fill="#60666F"/>
<rect x="26" y="97" width="29" height="4" rx="2" fill="#60666F"/>
<rect x="89" y="97" width="31" height="4" rx="2" fill="#60666F"/>
<rect x="129.961" y="52" width="105.961" height="55" rx="4" fill="#42474E"/>
<rect x="136" y="97" width="29" height="4" rx="2" fill="#60666F"/>
<rect x="199" y="97" width="31" height="4" rx="2" fill="#60666F"/>
<rect x="136.194" y="55" width="93.4948" height="37" rx="4" fill="#60666F"/>
<rect x="20" y="111" width="105.961" height="55" rx="4" fill="#42474E"/>
<rect x="26" y="156" width="29" height="4" rx="2" fill="#60666F"/>
<rect x="89" y="156" width="31" height="4" rx="2" fill="#60666F"/>
<rect x="26.2329" y="114" width="93.4948" height="37" rx="4" fill="#60666F"/>
<rect x="129.961" y="111" width="105.961" height="55" rx="4" fill="#42474E"/>
<rect x="136" y="156" width="29" height="4" rx="2" fill="#60666F"/>
<rect x="199" y="156" width="31" height="4" rx="2" fill="#60666F"/>
<rect x="136.194" y="114" width="93.4948" height="37" rx="4" fill="#60666F"/>
<rect x="20" y="31" width="58" height="7" rx="3.5" fill="#42474E"/>
</svg>
