<svg xmlns="http://www.w3.org/2000/svg" width="262" height="187" fill="none" viewBox="0 0 262 187"><rect width="261" height="186" x=".5" y=".5" fill="#fff" rx="11.5"/><rect width="261" height="186" x=".5" y=".5" stroke="#E9EDF5" rx="11.5"/><circle cx="10.458" cy="10.457" r="2.614" fill="#DCE2ED"/><circle cx="18.3" cy="10.457" r="2.614" fill="#DCE2ED"/><circle cx="26.144" cy="10.457" r="2.614" fill="#DCE2ED"/><circle cx="26.144" cy="10.457" r="2.614" fill="#DCE2ED"/><circle cx="250.972" cy="10.457" r="2.614" fill="#DCE2ED"/><rect width="120.257" height="5.229" x="70.586" y="7.843" fill="#DCE2ED" rx="2.614"/><rect width="105.961" height="55" x="20" y="52" fill="#E9EDF5" rx="4"/><rect width="93.495" height="37" x="26" y="55" fill="#DCE2ED" rx="4"/><rect width="29" height="4" x="26" y="97" fill="#DCE2ED" rx="2"/><rect width="31" height="4" x="89" y="97" fill="#D6DCE9" rx="2"/><rect width="105.961" height="55" x="129.961" y="52" fill="#E9EDF5" rx="4"/><rect width="29" height="4" x="136" y="97" fill="#DCE2ED" rx="2"/><rect width="31" height="4" x="199" y="97" fill="#D6DCE9" rx="2"/><rect width="93.495" height="37" x="136.193" y="55" fill="#DCE2ED" rx="4"/><rect width="105.961" height="55" x="20" y="111" fill="#E9EDF5" rx="4"/><rect width="29" height="4" x="26" y="156" fill="#DCE2ED" rx="2"/><rect width="31" height="4" x="89" y="156" fill="#D6DCE9" rx="2"/><rect width="93.495" height="37" x="26.232" y="114" fill="#DCE2ED" rx="4"/><rect width="105.961" height="55" x="129.961" y="111" fill="#E9EDF5" rx="4"/><rect width="29" height="4" x="136" y="156" fill="#DCE2ED" rx="2"/><rect width="31" height="4" x="199" y="156" fill="#D6DCE9" rx="2"/><rect width="93.495" height="37" x="136.193" y="114" fill="#DCE2ED" rx="4"/><rect width="58" height="7" x="20" y="31" fill="#E9EDF5" rx="3.5"/></svg>