<svg xmlns="http://www.w3.org/2000/svg" width="262" height="187" fill="none" viewBox="0 0 262 187"><rect width="261" height="186" x=".5" y=".5" fill="#fff" rx="11.5"/><rect width="261" height="186" x=".5" y=".5" stroke="#E9EDF5" rx="11.5"/><circle cx="10.458" cy="10.457" r="2.614" fill="#DCE2ED"/><circle cx="18.3" cy="10.457" r="2.614" fill="#DCE2ED"/><circle cx="26.144" cy="10.457" r="2.614" fill="#DCE2ED"/><circle cx="250.972" cy="10.457" r="2.614" fill="#DCE2ED"/><rect width="120.257" height="5.229" x="70.586" y="7.843" fill="#DCE2ED" rx="2.614"/><rect width="93" height="3" x="84" y="102" fill="#F2F5FA" rx="1.5"/><rect width="79" height="3" x="91" y="107" fill="#F2F5FA" rx="1.5"/><rect width="37.907" height="10.457" x="112" y="118" fill="#F2F5FA" rx="5.229"/><rect width="21" height="3" x="91" y="167" fill="#DCE2ED" rx="1.5"/><rect width="21" height="3" x="120" y="167" fill="#DCE2ED" rx="1.5"/><rect width="21" height="3" x="149" y="167" fill="#DCE2ED" rx="1.5"/><rect width="143" height="36" x="59" y="60" fill="#DCE2ED" fill-opacity=".7" rx="18"/></svg>