<svg width="262" height="192" viewBox="0 0 262 192" fill="none" xmlns="http://www.w3.org/2000/svg">
<rect x="0.5" y="0.5" width="261" height="191" rx="11.5" fill="#313539"/>
<rect x="0.5" y="0.5" width="261" height="191" rx="11.5" stroke="#42474E"/>
<circle cx="10.458" cy="10.4571" r="2.61429" fill="#42474E"/>
<circle cx="18.2998" cy="10.4571" r="2.61429" fill="#42474E"/>
<circle cx="26.1436" cy="10.4571" r="2.61429" fill="#42474E"/>
<circle cx="250.972" cy="10.4571" r="2.61429" fill="#42474E"/>
<rect x="70.5859" y="7.84277" width="120.257" height="5.22857" rx="2.61429" fill="#42474E"/>
<rect x="84" y="102" width="93" height="3" rx="1.5" fill="#42474E"/>
<rect x="91" y="107" width="79" height="3" rx="1.5" fill="#42474E"/>
<rect x="112" y="118" width="37.9071" height="10.4571" rx="5.22857" fill="#60666F"/>
<rect x="91" y="167" width="21" height="3" rx="1.5" fill="#42474E"/>
<rect x="120" y="167" width="21" height="3" rx="1.5" fill="#42474E"/>
<rect x="149" y="167" width="21" height="3" rx="1.5" fill="#42474E"/>
<rect x="59" y="60" width="143" height="36" rx="18" fill="#60666F" fill-opacity="0.7"/>
</svg>
