<svg width="262" height="192" viewBox="0 0 262 192" fill="none" xmlns="http://www.w3.org/2000/svg">
<rect x="0.5" y="0.5" width="261" height="191" rx="11.5" fill="#313539"/>
<rect x="0.5" y="0.5" width="261" height="191" rx="11.5" stroke="#42474E"/>
<circle cx="10.4577" cy="10.4572" r="2.61429" fill="#42474E"/>
<circle cx="18.3006" cy="10.4572" r="2.61429" fill="#42474E"/>
<circle cx="26.1435" cy="10.4572" r="2.61429" fill="#42474E"/>
<circle cx="250.972" cy="10.4572" r="2.61429" fill="#42474E"/>
<rect x="70.5863" y="7.84286" width="120.257" height="5.22857" rx="2.61429" fill="#42474E"/>
<rect x="77" y="30" width="107" height="8" rx="4" fill="#60666F"/>
<rect x="85" y="41" width="91" height="3" rx="1.5" fill="#42474E"/>
<rect x="93" y="46" width="76" height="3" rx="1.5" fill="#42474E"/>
<rect x="71" y="60" width="126" height="116" rx="5.22857" fill="#373C41"/>
<rect x="115" y="158" width="37.9071" height="10.4571" rx="5.22857" fill="#60666F"/>
<rect x="81" y="92" width="40" height="3" rx="1.5" fill="#60666F" fill-opacity="0.6"/>
<rect x="81" y="97" width="107" height="10" rx="2" fill="#42474E"/>
<rect x="81" y="113" width="40" height="3" rx="1.5" fill="#60666F" fill-opacity="0.6"/>
<rect x="81" y="118" width="107" height="29" rx="2" fill="#42474E"/>
<rect x="81" y="71" width="24" height="3" rx="1.5" fill="#60666F" fill-opacity="0.6"/>
<rect x="81" y="76" width="51" height="10" rx="2" fill="#42474E"/>
<rect x="137" y="71" width="24" height="3" rx="1.5" fill="#60666F" fill-opacity="0.6"/>
<rect x="137" y="76" width="51" height="10" rx="2" fill="#42474E"/>
</svg>
