<svg xmlns="http://www.w3.org/2000/svg" width="262" height="187" fill="none" viewBox="0 0 262 187"><rect width="261" height="186" x=".5" y=".5" fill="#fff" rx="11.5"/><rect width="261" height="186" x=".5" y=".5" stroke="#E9EDF5" rx="11.5"/><circle cx="10.458" cy="10.457" r="2.614" fill="#DCE2ED"/><circle cx="18.3" cy="10.457" r="2.614" fill="#DCE2ED"/><circle cx="26.144" cy="10.457" r="2.614" fill="#DCE2ED"/><circle cx="250.972" cy="10.457" r="2.614" fill="#DCE2ED"/><rect width="120.257" height="5.229" x="70.586" y="7.843" fill="#DCE2ED" rx="2.614"/><rect width="107" height="8" x="77" y="30" fill="#DCE2ED" rx="4"/><rect width="91" height="3" x="85" y="41" fill="#E0E6F2" rx="1.5"/><rect width="76" height="3" x="93" y="46" fill="#E0E6F2" rx="1.5"/><rect width="126" height="116" x="71" y="60" fill="#F2F5FA" rx="5.229"/><rect width="37.907" height="10.457" x="115" y="158" fill="#AAB2C0" rx="5.229"/><rect width="40" height="3" x="81" y="92" fill="#DCE2ED" rx="1.5"/><rect width="107" height="10" x="81" y="97" fill="#DCE2ED" fill-opacity=".7" rx="2"/><rect width="40" height="3" x="81" y="113" fill="#DCE2ED" rx="1.5"/><rect width="107" height="29" x="81" y="118" fill="#DCE2ED" fill-opacity=".7" rx="2"/><rect width="24" height="3" x="81" y="71" fill="#DCE2ED" rx="1.5"/><rect width="51" height="10" x="81" y="76" fill="#DCE2ED" fill-opacity=".7" rx="2"/><rect width="24" height="3" x="137" y="71" fill="#DCE2ED" rx="1.5"/><rect width="51" height="10" x="137" y="76" fill="#DCE2ED" fill-opacity=".7" rx="2"/></svg>