<svg xmlns="http://www.w3.org/2000/svg" width="262" height="192" fill="none" viewBox="0 0 262 192"><rect width="261" height="191" x=".5" y=".5" fill="#313539" rx="11.5"/><rect width="261" height="191" x=".5" y=".5" stroke="#42474E" rx="11.5"/><circle cx="10.458" cy="10.457" r="2.614" fill="#42474E"/><circle cx="18.301" cy="10.457" r="2.614" fill="#42474E"/><circle cx="26.143" cy="10.457" r="2.614" fill="#42474E"/><circle cx="26.143" cy="10.457" r="2.614" fill="#42474E"/><circle cx="250.972" cy="10.457" r="2.614" fill="#42474E"/><rect width="120.257" height="5.229" x="70.586" y="7.843" fill="#42474E" rx="2.614"/><rect width="214" height="103" x="24" y="44" fill="#373C41" rx="12"/><rect width="139" height="10" x="61" y="59" fill="#60666F" rx="5"/><rect width="45" height="14" x="132" y="117" fill="#42474E" rx="7"/><rect width="45" height="14" x="84" y="117" fill="#60666F" rx="7"/><rect width="119" height="11" x="70" y="72" fill="#60666F" rx="5.5"/><rect width="119" height="4" x="70" y="88" fill="#42474E" rx="2"/><rect width="98" height="4" x="81" y="94" fill="#42474E" rx="2"/></svg>