<svg xmlns="http://www.w3.org/2000/svg" width="262" height="187" fill="none" viewBox="0 0 262 187"><rect width="261" height="186" x=".5" y=".5" fill="#fff" rx="11.5"/><rect width="261" height="186" x=".5" y=".5" stroke="#E9EDF5" rx="11.5"/><circle cx="10.458" cy="10.457" r="2.614" fill="#DCE2ED"/><circle cx="18.3" cy="10.457" r="2.614" fill="#DCE2ED"/><circle cx="26.144" cy="10.457" r="2.614" fill="#DCE2ED"/><circle cx="250.972" cy="10.457" r="2.614" fill="#DCE2ED"/><rect width="120.257" height="5.229" x="70.586" y="7.843" fill="#DCE2ED" rx="2.614"/><rect width="107" height="11" x="77" y="28" fill="#DCE2ED" rx="5.5"/><rect width="91" height="11" x="85" y="42" fill="#DCE2ED" rx="5.5"/><rect width="62" height="3" x="100" y="152" fill="#E9EDF5" rx="1.5"/><rect width="50" height="3" x="105" y="158" fill="#E9EDF5" rx="1.5"/><path fill="#AAB2C0" d="M110 169C110 166.239 112.239 164 115 164H147C149.761 164 152 166.239 152 169C152 171.761 149.761 174 147 174H115C112.239 174 110 171.761 110 169Z"/><rect width="158" height="14" x="52" y="62" fill="#F2F5FA" rx="4"/><circle cx="202.614" cy="68.614" r="2.614" fill="#DCE2ED"/><rect width="86" height="4" x="57" y="67" fill="#DCE2ED" rx="2"/><rect width="158" height="14" x="52" y="78" fill="#F2F5FA" rx="4"/><circle cx="202.614" cy="84.614" r="2.614" fill="#DCE2ED"/><rect width="112" height="4" x="57" y="83" fill="#DCE2ED" rx="2"/><rect width="158" height="14" x="52" y="94" fill="#F2F5FA" rx="4"/><circle cx="202.614" cy="100.614" r="2.614" fill="#DCE2ED"/><rect width="78" height="4" x="57" y="99" fill="#DCE2ED" rx="2"/><rect width="158" height="14" x="52" y="110" fill="#F2F5FA" rx="4"/><circle cx="202.614" cy="116.614" r="2.614" fill="#DCE2ED"/><rect width="101" height="4" x="57" y="115" fill="#DCE2ED" rx="2"/><rect width="158" height="14" x="52" y="126" fill="#F2F5FA" rx="4"/><circle cx="202.614" cy="132.614" r="2.614" fill="#DCE2ED"/><rect width="60" height="4" x="57" y="131" fill="#DCE2ED" rx="2"/></svg>