<svg xmlns="http://www.w3.org/2000/svg" width="262" height="192" fill="none" viewBox="0 0 262 192"><rect width="261" height="191" x=".5" y=".5" fill="#313539" rx="11.5"/><rect width="261" height="191" x=".5" y=".5" stroke="#42474E" rx="11.5"/><circle cx="10.458" cy="10.457" r="2.614" fill="#42474E"/><circle cx="18.301" cy="10.457" r="2.614" fill="#42474E"/><circle cx="26.143" cy="10.457" r="2.614" fill="#42474E"/><circle cx="26.143" cy="10.457" r="2.614" fill="#42474E"/><circle cx="250.972" cy="10.457" r="2.614" fill="#42474E"/><rect width="120.257" height="5.229" x="70.586" y="7.843" fill="#42474E" rx="2.614"/><rect width="107.186" height="10.457" x="77" y="29" fill="#60666F" rx="5.229"/><rect width="91.5" height="10.457" x="84" y="42.072" fill="#60666F" rx="5.229"/><rect width="33.235" height="8" x="24" y="70" fill="#565C65" rx="4"/><rect width="67.579" height="3.921" x="24" y="83" fill="#42474E" rx="1.961"/><rect width="61.301" height="3" x="24" y="90" fill="#42474E" rx="1.5"/><rect width="53.177" height="4" x="24" y="96" fill="#42474E" rx="2"/><rect width="33.235" height="8" x="24" y="107" fill="#565C65" rx="4"/><rect width="67.579" height="3.921" x="24" y="120" fill="#42474E" rx="1.961"/><rect width="61.301" height="3" x="24" y="127" fill="#42474E" rx="1.5"/><rect width="53.177" height="4" x="24" y="133" fill="#42474E" rx="2"/><rect width="33.235" height="8" x="97.209" y="70" fill="#565C65" rx="4"/><rect width="67.579" height="3.921" x="97.209" y="83" fill="#42474E" rx="1.961"/><rect width="61.301" height="3" x="97.209" y="90" fill="#42474E" rx="1.5"/><rect width="53.177" height="4" x="97.209" y="96" fill="#42474E" rx="2"/><rect width="33.235" height="8" x="97.209" y="107" fill="#565C65" rx="4"/><rect width="67.579" height="3.921" x="97.209" y="120" fill="#42474E" rx="1.961"/><rect width="61.301" height="3" x="97.209" y="127" fill="#42474E" rx="1.5"/><rect width="53.177" height="4" x="97.209" y="133" fill="#42474E" rx="2"/><rect width="33.235" height="8" x="170.422" y="70" fill="#565C65" rx="4"/><rect width="67.579" height="3.921" x="170.422" y="83" fill="#42474E" rx="1.961"/><rect width="61.301" height="3" x="170.422" y="90" fill="#42474E" rx="1.5"/><rect width="53.177" height="4" x="170.422" y="96" fill="#42474E" rx="2"/><rect width="33.235" height="8" x="170.422" y="107" fill="#565C65" rx="4"/><rect width="67.579" height="3.921" x="170.422" y="120" fill="#42474E" rx="1.961"/><rect width="61.301" height="3" x="170.422" y="127" fill="#42474E" rx="1.5"/><rect width="53.177" height="4" x="170.422" y="133" fill="#42474E" rx="2"/><rect width="24" height="7" x="112" y="166" fill="#60666F" rx="3.5"/><rect width="25" height="7" x="138" y="166" fill="#42474E" rx="3.5"/><rect width="77" height="3" x="98" y="154" fill="#42474E" rx="1.5"/><rect width="63" height="3" x="105" y="158" fill="#42474E" rx="1.5"/></svg>