<svg xmlns="http://www.w3.org/2000/svg" width="262" height="192" fill="none" viewBox="0 0 262 192"><rect width="261" height="191" x=".5" y=".5" fill="#313539" rx="11.5"/><rect width="261" height="191" x=".5" y=".5" stroke="#42474E" rx="11.5"/><circle cx="10.458" cy="10.457" r="2.614" fill="#42474E"/><circle cx="18.301" cy="10.457" r="2.614" fill="#42474E"/><circle cx="26.143" cy="10.457" r="2.614" fill="#42474E"/><circle cx="250.972" cy="10.457" r="2.614" fill="#42474E"/><rect width="120.257" height="5.229" x="70.586" y="7.843" fill="#42474E" rx="2.614"/><rect width="214" height="139" x="24" y="37" fill="#373C41" rx="12"/><rect width="190" height="1" x="36" y="146" fill="#42474E" opacity=".4" rx=".5"/><rect width="116" height="5" x="36" y="46" fill="#E3E8F2" rx="2.5"/><rect width="60" height="11" x="36" y="80" fill="#60666F" rx="5.5"/><rect width="60" height="4" x="36" y="95" fill="#42474E" rx="2"/><rect width="44" height="4" x="36" y="101" fill="#42474E" rx="2"/><rect width="33" height="4" x="36" y="107" fill="#42474E" rx="2"/><rect width="33" height="4" x="36" y="159" fill="#42474E" rx="2"/><rect width="33" height="4" x="73" y="159" fill="#42474E" rx="2"/><rect width="33" height="4" x="110" y="159" fill="#42474E" rx="2"/><rect width="8" height="8" x="188" y="157" fill="#42474E" rx="4"/><rect width="8" height="8" x="198" y="157" fill="#42474E" rx="4"/><rect width="8" height="8" x="208" y="157" fill="#42474E" rx="4"/><rect width="8" height="8" x="218" y="157" fill="#42474E" rx="4"/><rect width="214" height="32" x="24" y="37" fill="#3A4046" rx="12"/><rect width="31.678" height="6.336" x="111" y="80" fill="#60666F" rx="3.168"/><rect width="35.542" height="3.62" x="111" y="93.576" fill="#42474E" rx="1.81"/><rect width="28.588" height="3.62" x="111" y="103.532" fill="#42474E" rx="1.81"/><rect width="33.489" height="3.62" x="111" y="113.488" fill="#42474E" rx="1.81"/><rect width="28.588" height="3.62" x="111" y="123.444" fill="#42474E" rx="1.81"/><rect width="30.773" height="3.62" x="111" y="133.4" fill="#42474E" rx="1.81"/><rect width="69" height="11" x="155" y="47" fill="#60666F" rx="5.5"/><rect width="69" height="6" x="36" y="44" fill="#60666F" rx="3"/><rect width="93" height="3" x="36" y="54" fill="#42474E" rx="1.5"/><rect width="78" height="3" x="36" y="59" fill="#42474E" rx="1.5"/><rect width="31.678" height="6.336" x="151.73" y="80" fill="#60666F" rx="3.168"/><rect width="35.542" height="3.62" x="151.73" y="93.576" fill="#42474E" rx="1.81"/><rect width="28.588" height="3.62" x="151.73" y="103.532" fill="#42474E" rx="1.81"/><rect width="33.489" height="3.62" x="151.73" y="113.488" fill="#42474E" rx="1.81"/><rect width="31.678" height="3.62" x="151.73" y="123.445" fill="#42474E" rx="1.81"/><rect width="31.678" height="6.336" x="192.457" y="80" fill="#60666F" rx="3.168"/><rect width="35.542" height="3.62" x="192.457" y="93.576" fill="#42474E" rx="1.81"/><rect width="28.588" height="3.62" x="192.457" y="103.532" fill="#42474E" rx="1.81"/><rect width="33.489" height="3.62" x="192.457" y="113.488" fill="#42474E" rx="1.81"/><rect width="28.588" height="3.62" x="192.457" y="123.445" fill="#42474E" rx="1.81"/><rect width="30.773" height="3.62" x="192.457" y="133.401" fill="#42474E" rx="1.81"/></svg>