<svg width="262" height="192" viewBox="0 0 262 192" fill="none" xmlns="http://www.w3.org/2000/svg">
<g clip-path="url(#clip0_8010_179921)">
<rect width="262" height="192" rx="12" fill="#313539"/>
<circle cx="10.4575" cy="10.4571" r="2.61429" fill="#42474E"/>
<circle cx="18.3003" cy="10.4571" r="2.61429" fill="#42474E"/>
<circle cx="26.1433" cy="10.4571" r="2.61429" fill="#42474E"/>
<circle cx="250.972" cy="10.4571" r="2.61429" fill="#42474E"/>
<rect x="70.5862" y="7.84283" width="120.257" height="5.22857" rx="2.61429" fill="#42474E"/>
<rect x="61" y="43" width="139" height="10" rx="5" fill="#60666F"/>
<rect x="71" y="56" width="119" height="11" rx="5.5" fill="#60666F"/>
<rect x="87" y="82" width="87" height="89" rx="4" fill="#373C41"/>
<rect x="178" y="82" width="50" height="56" rx="4" fill="#373C41"/>
<rect x="232" y="82" width="50" height="89" rx="4" fill="#373C41"/>
<rect x="-21" y="82" width="50" height="89" rx="4" fill="#373C41"/>
<rect x="178" y="142" width="50" height="29" rx="4" fill="#373C41"/>
<rect x="33" y="82" width="50" height="27" rx="4" fill="#373C41"/>
<rect x="33" y="113" width="50" height="58" rx="4" fill="#373C41"/>
</g>
<rect x="0.5" y="0.5" width="261" height="191" rx="11.5" stroke="#42474E"/>
<defs>
<clipPath id="clip0_8010_179921">
<rect width="262" height="192" rx="12" fill="white"/>
</clipPath>
</defs>
</svg>
