<svg xmlns="http://www.w3.org/2000/svg" width="262" height="192" fill="none" viewBox="0 0 262 192"><g clip-path="url(#clip0_8010_179921)"><rect width="262" height="192" fill="#313539" rx="12"/><circle cx="10.457" cy="10.457" r="2.614" fill="#42474E"/><circle cx="18.3" cy="10.457" r="2.614" fill="#42474E"/><circle cx="26.143" cy="10.457" r="2.614" fill="#42474E"/><circle cx="250.972" cy="10.457" r="2.614" fill="#42474E"/><rect width="120.257" height="5.229" x="70.586" y="7.843" fill="#42474E" rx="2.614"/><rect width="139" height="10" x="61" y="43" fill="#60666F" rx="5"/><rect width="119" height="11" x="71" y="56" fill="#60666F" rx="5.5"/><rect width="87" height="89" x="87" y="82" fill="#373C41" rx="4"/><rect width="50" height="56" x="178" y="82" fill="#373C41" rx="4"/><rect width="50" height="89" x="232" y="82" fill="#373C41" rx="4"/><rect width="50" height="89" x="-21" y="82" fill="#373C41" rx="4"/><rect width="50" height="29" x="178" y="142" fill="#373C41" rx="4"/><rect width="50" height="27" x="33" y="82" fill="#373C41" rx="4"/><rect width="50" height="58" x="33" y="113" fill="#373C41" rx="4"/></g><rect width="261" height="191" x=".5" y=".5" stroke="#42474E" rx="11.5"/><defs><clipPath id="clip0_8010_179921"><rect width="262" height="192" fill="#fff" rx="12"/></clipPath></defs></svg>