<svg xmlns="http://www.w3.org/2000/svg" width="262" height="187" fill="none" viewBox="0 0 262 187"><g clip-path="url(#clip0_4318_7618)"><rect width="262" height="187" fill="#fff" rx="12"/><circle cx="10.458" cy="10.457" r="2.614" fill="#DCE2ED"/><circle cx="18.3" cy="10.457" r="2.614" fill="#DCE2ED"/><circle cx="26.144" cy="10.457" r="2.614" fill="#DCE2ED"/><circle cx="250.972" cy="10.457" r="2.614" fill="#DCE2ED"/><rect width="120.257" height="5.229" x="70.586" y="7.843" fill="#DCE2ED" rx="2.614"/><rect width="139" height="10" x="61" y="43" fill="#DCE2ED" rx="5"/><rect width="119" height="11" x="71" y="56" fill="#DCE2ED" rx="5.5"/><rect width="87" height="89" x="87" y="82" fill="#F2F5FA" rx="4"/><rect width="50" height="56" x="178" y="82" fill="#F2F5FA" rx="4"/><rect width="50" height="89" x="232" y="82" fill="#F2F5FA" rx="4"/><rect width="50" height="89" x="-21" y="82" fill="#F2F5FA" rx="4"/><rect width="50" height="29" x="178" y="142" fill="#F2F5FA" rx="4"/><rect width="50" height="27" x="33" y="82" fill="#F2F5FA" rx="4"/><rect width="50" height="58" x="33" y="113" fill="#F2F5FA" rx="4"/></g><rect width="261" height="186" x=".5" y=".5" stroke="#E9EDF5" rx="11.5"/><defs><clipPath id="clip0_4318_7618"><rect width="262" height="187" fill="#fff" rx="12"/></clipPath></defs></svg>