<svg xmlns="http://www.w3.org/2000/svg" width="262" height="192" fill="none" viewBox="0 0 262 192"><rect width="261" height="191" x=".5" y=".5" fill="#313539" rx="11.5"/><rect width="261" height="191" x=".5" y=".5" stroke="#42474E" rx="11.5"/><circle cx="10.458" cy="10.457" r="2.614" fill="#42474E"/><circle cx="18.301" cy="10.457" r="2.614" fill="#42474E"/><circle cx="26.143" cy="10.457" r="2.614" fill="#42474E"/><circle cx="26.143" cy="10.457" r="2.614" fill="#42474E"/><circle cx="250.972" cy="10.457" r="2.614" fill="#42474E"/><rect width="120.257" height="5.229" x="70.586" y="7.843" fill="#42474E" rx="2.614"/><rect width="107.186" height="10.457" x="23.529" y="36.6" fill="#60666F" rx="5.229"/><rect width="37.907" height="10.457" x="23.529" y="105.879" fill="#60666F" rx="5.229"/><rect width="37.907" height="10.457" x="64.436" y="105.879" fill="#42474E" rx="5.229"/><rect width="91.5" height="10.457" x="23.529" y="49.671" fill="#60666F" rx="5.229"/><rect width="33.986" height="10.457" x="23.529" y="149.172" fill="#60666F" rx="5.229"/><rect width="32.679" height="10.457" x="81.043" y="149.172" fill="#60666F" rx="5.229"/><rect width="33.986" height="10.457" x="139.865" y="149.172" fill="#60666F" rx="5.229"/><rect width="33.986" height="10.457" x="194.766" y="149.172" fill="#60666F" rx="5.229"/><rect width="54.9" height="75.814" x="188.229" y="35.293" fill="#42474E" rx="5.229"/><rect width="53.593" height="75.814" x="150.322" y="49.671" fill="#272A2E" opacity=".5" rx="5.229"/><rect width="91.5" height="3.921" x="23.529" y="65.357" fill="#42474E" rx="1.961"/><rect width="48.364" height="3.921" x="23.529" y="164.857" fill="#42474E" rx="1.961"/><rect width="48.364" height="3.921" x="81.043" y="164.857" fill="#42474E" rx="1.961"/><rect width="48.364" height="3.921" x="139.865" y="164.857" fill="#42474E" rx="1.961"/><rect width="48.364" height="3.921" x="194.766" y="164.857" fill="#42474E" rx="1.961"/><rect width="75.814" height="3.921" x="23.529" y="71.893" fill="#42474E" rx="1.961"/><rect width="39.214" height="3.921" x="23.529" y="171.393" fill="#42474E" rx="1.961"/><rect width="39.214" height="3.921" x="81.043" y="171.393" fill="#42474E" rx="1.961"/><rect width="40.521" height="3.921" x="139.865" y="171.393" fill="#42474E" rx="1.961"/><rect width="39.214" height="3.921" x="194.766" y="171.393" fill="#42474E" rx="1.961"/></svg>