<svg xmlns="http://www.w3.org/2000/svg" width="262" height="187" fill="none" viewBox="0 0 262 187"><rect width="261" height="186" x=".5" y=".5" fill="#fff" rx="11.5"/><rect width="261" height="186" x=".5" y=".5" stroke="#E9EDF5" rx="11.5"/><circle cx="10.458" cy="10.458" r="2.614" fill="#DCE2ED"/><circle cx="18.3" cy="10.458" r="2.614" fill="#DCE2ED"/><circle cx="26.144" cy="10.458" r="2.614" fill="#DCE2ED"/><circle cx="26.144" cy="10.458" r="2.614" fill="#DCE2ED"/><circle cx="250.972" cy="10.458" r="2.614" fill="#DCE2ED"/><rect width="120.257" height="5.229" x="70.586" y="7.844" fill="#DCE2ED" rx="2.614"/><rect width="107.186" height="10.457" x="23.529" y="36.6" fill="#DCE2ED" rx="5.229"/><rect width="37.907" height="10.457" x="23.529" y="105.879" fill="#AAB2C0" rx="5.229"/><rect width="37.907" height="10.457" x="64.051" y="105.879" fill="#DCE2ED" rx="5.229"/><rect width="91.5" height="10.457" x="23.529" y="49.672" fill="#DCE2ED" rx="5.229"/><rect width="33.986" height="10.457" x="23.529" y="149.172" fill="#DCE2ED" rx="5.229"/><rect width="32.679" height="10.457" x="81.043" y="149.172" fill="#DCE2ED" rx="5.229"/><rect width="33.986" height="10.457" x="139.865" y="149.172" fill="#DCE2ED" rx="5.229"/><rect width="33.986" height="10.457" x="194.766" y="149.172" fill="#DCE2ED" rx="5.229"/><rect width="54.9" height="75.814" x="188.229" y="35.293" fill="#DCE2ED" rx="5.229"/><rect width="53.593" height="75.814" x="150.322" y="49.672" fill="#EEF1F5" fill-opacity=".4" rx="5.229"/><rect width="91.5" height="3.921" x="23.529" y="65.357" fill="#E9EDF5" rx="1.961"/><rect width="48.364" height="3.921" x="23.529" y="164.857" fill="#E9EDF5" rx="1.961"/><rect width="48.364" height="3.921" x="81.043" y="164.857" fill="#E9EDF5" rx="1.961"/><rect width="48.364" height="3.921" x="139.865" y="164.857" fill="#E9EDF5" rx="1.961"/><rect width="48.364" height="3.921" x="194.766" y="164.857" fill="#E9EDF5" rx="1.961"/><rect width="75.814" height="3.921" x="23.529" y="71.893" fill="#E9EDF5" rx="1.961"/><rect width="39.214" height="3.921" x="23.529" y="171.393" fill="#E9EDF5" rx="1.961"/><rect width="39.214" height="3.921" x="81.043" y="171.393" fill="#E9EDF5" rx="1.961"/><rect width="40.521" height="3.921" x="139.865" y="171.393" fill="#E9EDF5" rx="1.961"/><rect width="39.214" height="3.921" x="194.766" y="171.393" fill="#E9EDF5" rx="1.961"/></svg>