<svg width="262" height="192" viewBox="0 0 262 192" fill="none" xmlns="http://www.w3.org/2000/svg">
<rect x="0.5" y="0.5" width="261" height="191" rx="11.5" fill="#313539"/>
<rect x="0.5" y="0.5" width="261" height="191" rx="11.5" stroke="#42474E"/>
<circle cx="10.4577" cy="10.4572" r="2.61429" fill="#42474E"/>
<circle cx="18.3006" cy="10.4572" r="2.61429" fill="#42474E"/>
<circle cx="26.1435" cy="10.4572" r="2.61429" fill="#42474E"/>
<circle cx="26.1435" cy="10.4572" r="2.61429" fill="#42474E"/>
<circle cx="250.972" cy="10.4572" r="2.61429" fill="#42474E"/>
<rect x="70.5863" y="7.8429" width="120.257" height="5.22857" rx="2.61429" fill="#42474E"/>
<rect x="29" y="31" width="58" height="7" rx="3.5" fill="#42474E"/>
<rect x="29" y="97" width="58" height="7" rx="3.5" fill="#42474E"/>
<rect x="29" y="44" width="16" height="16" rx="2" fill="#42474E"/>
<rect x="50" y="44" width="16" height="16" rx="2" fill="#42474E"/>
<rect x="71" y="44" width="16" height="16" rx="2" fill="#42474E"/>
<rect x="92" y="44" width="16" height="16" rx="2" fill="#42474E"/>
<rect x="113" y="44" width="16" height="16" rx="2" fill="#42474E"/>
<rect x="134" y="44" width="16" height="16" rx="2" fill="#42474E"/>
<rect x="155" y="44" width="16" height="16" rx="2" fill="#42474E"/>
<rect x="176" y="44" width="16" height="16" rx="2" fill="#42474E"/>
<rect x="197" y="44" width="16" height="16" rx="2" fill="#42474E"/>
<rect x="218" y="44" width="16" height="16" rx="2" fill="#42474E"/>
<rect x="29" y="65" width="16" height="16" rx="2" fill="#42474E"/>
<rect x="50" y="65" width="16" height="16" rx="2" fill="#42474E"/>
<rect x="71" y="65" width="16" height="16" rx="2" fill="#42474E"/>
<rect x="92" y="65" width="16" height="16" rx="2" fill="#42474E"/>
<rect x="113" y="65" width="16" height="16" rx="2" fill="#42474E"/>
<rect x="134" y="65" width="16" height="16" rx="2" fill="#42474E"/>
<rect x="155" y="65" width="16" height="16" rx="2" fill="#42474E"/>
<rect x="176" y="65" width="16" height="16" rx="2" fill="#42474E"/>
<rect x="197" y="65" width="16" height="16" rx="2" fill="#42474E"/>
<rect x="218" y="65" width="16" height="16" rx="2" fill="#42474E"/>
<rect x="29" y="110" width="16" height="16" rx="2" fill="#42474E"/>
<rect x="50" y="110" width="16" height="16" rx="2" fill="#42474E"/>
<rect x="71" y="110" width="16" height="16" rx="2" fill="#42474E"/>
<rect x="92" y="110" width="16" height="16" rx="2" fill="#42474E"/>
<rect x="113" y="110" width="16" height="16" rx="2" fill="#42474E"/>
<rect x="134" y="110" width="16" height="16" rx="2" fill="#42474E"/>
<rect x="155" y="110" width="16" height="16" rx="2" fill="#42474E"/>
<rect x="176" y="110" width="16" height="16" rx="2" fill="#42474E"/>
<rect x="197" y="110" width="16" height="16" rx="2" fill="#42474E"/>
<rect x="218" y="110" width="16" height="16" rx="2" fill="#42474E"/>
<rect x="29" y="131" width="16" height="16" rx="2" fill="#42474E"/>
<rect x="50" y="131" width="16" height="16" rx="2" fill="#42474E"/>
<rect x="71" y="131" width="16" height="16" rx="2" fill="#42474E"/>
<rect x="92" y="131" width="16" height="16" rx="2" fill="#42474E"/>
<rect x="113" y="131" width="16" height="16" rx="2" fill="#42474E"/>
<rect x="134" y="131" width="16" height="16" rx="2" fill="#42474E"/>
<rect x="155" y="131" width="16" height="16" rx="2" fill="#42474E"/>
<rect x="176" y="131" width="16" height="16" rx="2" fill="#42474E"/>
<rect x="197" y="131" width="16" height="16" rx="2" fill="#42474E"/>
<rect x="218" y="131" width="16" height="16" rx="2" fill="#42474E"/>
<rect x="29" y="152" width="16" height="16" rx="2" fill="#42474E"/>
<rect x="50" y="152" width="16" height="16" rx="2" fill="#42474E"/>
<rect x="71" y="152" width="16" height="16" rx="2" fill="#42474E"/>
<rect x="92" y="152" width="16" height="16" rx="2" fill="#42474E"/>
<rect x="113" y="152" width="16" height="16" rx="2" fill="#42474E"/>
<rect x="134" y="152" width="16" height="16" rx="2" fill="#42474E"/>
<rect x="155" y="152" width="16" height="16" rx="2" fill="#42474E"/>
<rect x="176" y="152" width="16" height="16" rx="2" fill="#42474E"/>
<rect x="197" y="152" width="16" height="16" rx="2" fill="#42474E"/>
<rect x="218" y="152" width="16" height="16" rx="2" fill="#42474E"/>
</svg>
