<svg xmlns="http://www.w3.org/2000/svg" width="262" height="192" fill="none" viewBox="0 0 262 192"><rect width="261" height="191" x=".5" y=".5" fill="#313539" rx="11.5"/><rect width="261" height="191" x=".5" y=".5" stroke="#42474E" rx="11.5"/><circle cx="10.458" cy="10.457" r="2.614" fill="#42474E"/><circle cx="18.301" cy="10.457" r="2.614" fill="#42474E"/><circle cx="26.143" cy="10.457" r="2.614" fill="#42474E"/><circle cx="26.143" cy="10.457" r="2.614" fill="#42474E"/><circle cx="250.972" cy="10.457" r="2.614" fill="#42474E"/><rect width="120.257" height="5.229" x="70.586" y="7.843" fill="#42474E" rx="2.614"/><rect width="58" height="7" x="29" y="31" fill="#42474E" rx="3.5"/><rect width="58" height="7" x="29" y="97" fill="#42474E" rx="3.5"/><rect width="16" height="16" x="29" y="44" fill="#42474E" rx="2"/><rect width="16" height="16" x="50" y="44" fill="#42474E" rx="2"/><rect width="16" height="16" x="71" y="44" fill="#42474E" rx="2"/><rect width="16" height="16" x="92" y="44" fill="#42474E" rx="2"/><rect width="16" height="16" x="113" y="44" fill="#42474E" rx="2"/><rect width="16" height="16" x="134" y="44" fill="#42474E" rx="2"/><rect width="16" height="16" x="155" y="44" fill="#42474E" rx="2"/><rect width="16" height="16" x="176" y="44" fill="#42474E" rx="2"/><rect width="16" height="16" x="197" y="44" fill="#42474E" rx="2"/><rect width="16" height="16" x="218" y="44" fill="#42474E" rx="2"/><rect width="16" height="16" x="29" y="65" fill="#42474E" rx="2"/><rect width="16" height="16" x="50" y="65" fill="#42474E" rx="2"/><rect width="16" height="16" x="71" y="65" fill="#42474E" rx="2"/><rect width="16" height="16" x="92" y="65" fill="#42474E" rx="2"/><rect width="16" height="16" x="113" y="65" fill="#42474E" rx="2"/><rect width="16" height="16" x="134" y="65" fill="#42474E" rx="2"/><rect width="16" height="16" x="155" y="65" fill="#42474E" rx="2"/><rect width="16" height="16" x="176" y="65" fill="#42474E" rx="2"/><rect width="16" height="16" x="197" y="65" fill="#42474E" rx="2"/><rect width="16" height="16" x="218" y="65" fill="#42474E" rx="2"/><rect width="16" height="16" x="29" y="110" fill="#42474E" rx="2"/><rect width="16" height="16" x="50" y="110" fill="#42474E" rx="2"/><rect width="16" height="16" x="71" y="110" fill="#42474E" rx="2"/><rect width="16" height="16" x="92" y="110" fill="#42474E" rx="2"/><rect width="16" height="16" x="113" y="110" fill="#42474E" rx="2"/><rect width="16" height="16" x="134" y="110" fill="#42474E" rx="2"/><rect width="16" height="16" x="155" y="110" fill="#42474E" rx="2"/><rect width="16" height="16" x="176" y="110" fill="#42474E" rx="2"/><rect width="16" height="16" x="197" y="110" fill="#42474E" rx="2"/><rect width="16" height="16" x="218" y="110" fill="#42474E" rx="2"/><rect width="16" height="16" x="29" y="131" fill="#42474E" rx="2"/><rect width="16" height="16" x="50" y="131" fill="#42474E" rx="2"/><rect width="16" height="16" x="71" y="131" fill="#42474E" rx="2"/><rect width="16" height="16" x="92" y="131" fill="#42474E" rx="2"/><rect width="16" height="16" x="113" y="131" fill="#42474E" rx="2"/><rect width="16" height="16" x="134" y="131" fill="#42474E" rx="2"/><rect width="16" height="16" x="155" y="131" fill="#42474E" rx="2"/><rect width="16" height="16" x="176" y="131" fill="#42474E" rx="2"/><rect width="16" height="16" x="197" y="131" fill="#42474E" rx="2"/><rect width="16" height="16" x="218" y="131" fill="#42474E" rx="2"/><rect width="16" height="16" x="29" y="152" fill="#42474E" rx="2"/><rect width="16" height="16" x="50" y="152" fill="#42474E" rx="2"/><rect width="16" height="16" x="71" y="152" fill="#42474E" rx="2"/><rect width="16" height="16" x="92" y="152" fill="#42474E" rx="2"/><rect width="16" height="16" x="113" y="152" fill="#42474E" rx="2"/><rect width="16" height="16" x="134" y="152" fill="#42474E" rx="2"/><rect width="16" height="16" x="155" y="152" fill="#42474E" rx="2"/><rect width="16" height="16" x="176" y="152" fill="#42474E" rx="2"/><rect width="16" height="16" x="197" y="152" fill="#42474E" rx="2"/><rect width="16" height="16" x="218" y="152" fill="#42474E" rx="2"/></svg>