<svg xmlns="http://www.w3.org/2000/svg" width="262" height="192" fill="none" viewBox="0 0 262 192"><rect width="261" height="191" x=".5" y=".5" fill="#313539" rx="11.5"/><rect width="261" height="191" x=".5" y=".5" stroke="#42474E" rx="11.5"/><circle cx="10.458" cy="10.457" r="2.614" fill="#42474E"/><circle cx="18.301" cy="10.457" r="2.614" fill="#42474E"/><circle cx="26.143" cy="10.457" r="2.614" fill="#42474E"/><circle cx="250.972" cy="10.457" r="2.614" fill="#42474E"/><rect width="120.257" height="5.229" x="70.586" y="7.843" fill="#42474E" rx="2.614"/><rect width="214" height="129" x="24" y="38" fill="#3A4046" rx="12"/><rect width="214" height="76" x="24" y="91" fill="#373C41" rx="12"/><rect width="37.907" height="10.457" x="112" y="143" fill="#60666F" rx="5.229"/><rect width="107.186" height="10.457" x="77" y="106" fill="#60666F" rx="5.229"/><rect width="14" height="14" x="50" y="44" fill="#60666F" rx="2"/><rect width="27.6" height="26.6" x="43.2" y="38.2" stroke="url(#paint0_linear_8010_179256)" stroke-width=".4" opacity=".7" rx="13.3"/><rect width="14" height="14" x="78" y="44" fill="#60666F" rx="2"/><rect width="27.6" height="26.6" x="71.2" y="38.2" stroke="url(#paint1_linear_8010_179256)" stroke-width=".4" opacity=".7" rx="13.3"/><rect width="14" height="14" x="106" y="44" fill="#60666F" rx="2"/><rect width="27.6" height="26.6" x="99.2" y="38.2" stroke="url(#paint2_linear_8010_179256)" stroke-width=".4" opacity=".7" rx="13.3"/><rect width="14" height="14" x="134" y="44" fill="#60666F" rx="2"/><rect width="27.6" height="26.6" x="127.2" y="38.2" stroke="url(#paint3_linear_8010_179256)" stroke-width=".4" opacity=".7" rx="13.3"/><rect width="14" height="14" x="162" y="44" fill="#60666F" rx="2"/><rect width="27.6" height="26.6" x="155.2" y="38.2" stroke="url(#paint4_linear_8010_179256)" stroke-width=".4" opacity=".7" rx="13.3"/><rect width="14" height="14" x="190" y="44" fill="#60666F" rx="2"/><rect width="27.6" height="26.6" x="183.2" y="38.2" stroke="url(#paint5_linear_8010_179256)" stroke-width=".4" opacity=".7" rx="13.3"/><rect width="14" height="14" fill="#60666F" rx="2" transform="matrix(1 0 0 -1 36 82)"/><rect width="27.6" height="26.6" x=".2" y="-.2" stroke="url(#paint6_linear_8010_179256)" stroke-width=".4" opacity=".7" rx="13.3" transform="matrix(1 0 0 -1 29 87.6)"/><rect width="14" height="14" fill="#60666F" rx="2" transform="matrix(1 0 0 -1 64 82)"/><rect width="27.6" height="26.6" x=".2" y="-.2" stroke="url(#paint7_linear_8010_179256)" stroke-width=".4" opacity=".7" rx="13.3" transform="matrix(1 0 0 -1 57 87.6)"/><rect width="14" height="14" fill="#60666F" rx="2" transform="matrix(1 0 0 -1 92 82)"/><rect width="27.6" height="26.6" x=".2" y="-.2" stroke="url(#paint8_linear_8010_179256)" stroke-width=".4" opacity=".7" rx="13.3" transform="matrix(1 0 0 -1 85 87.6)"/><rect width="14" height="14" fill="#60666F" rx="2" transform="matrix(1 0 0 -1 120 82)"/><rect width="27.6" height="26.6" x=".2" y="-.2" stroke="url(#paint9_linear_8010_179256)" stroke-width=".4" opacity=".7" rx="13.3" transform="matrix(1 0 0 -1 113 87.6)"/><rect width="14" height="14" fill="#60666F" rx="2" transform="matrix(1 0 0 -1 148 82)"/><rect width="27.6" height="26.6" x=".2" y="-.2" stroke="url(#paint10_linear_8010_179256)" stroke-width=".4" opacity=".7" rx="13.3" transform="matrix(1 0 0 -1 141 87.6)"/><rect width="14" height="14" fill="#60666F" rx="2" transform="matrix(1 0 0 -1 176 82)"/><rect width="27.6" height="26.6" x=".2" y="-.2" stroke="url(#paint11_linear_8010_179256)" stroke-width=".4" opacity=".7" rx="13.3" transform="matrix(1 0 0 -1 169 87.6)"/><rect width="14" height="14" fill="#60666F" rx="2" transform="matrix(1 0 0 -1 204 82)"/><rect width="27.6" height="26.6" x=".2" y="-.2" stroke="url(#paint12_linear_8010_179256)" stroke-width=".4" opacity=".7" rx="13.3" transform="matrix(1 0 0 -1 197 87.6)"/><rect width="91.5" height="3.921" x="85" y="120" fill="#42474E" rx="1.961"/><rect width="75.814" height="3.921" x="93" y="126.535" fill="#42474E" rx="1.961"/><defs><linearGradient id="paint0_linear_8010_179256" x1="57" x2="57" y1="38" y2="65" gradientUnits="userSpaceOnUse"><stop stop-color="#3A4046" stop-opacity="0"/><stop offset=".66" stop-color="#484F56"/></linearGradient><linearGradient id="paint1_linear_8010_179256" x1="85" x2="85" y1="38" y2="65" gradientUnits="userSpaceOnUse"><stop stop-color="#3A4046" stop-opacity="0"/><stop offset=".66" stop-color="#484F56"/></linearGradient><linearGradient id="paint2_linear_8010_179256" x1="113" x2="113" y1="38" y2="65" gradientUnits="userSpaceOnUse"><stop stop-color="#3A4046" stop-opacity="0"/><stop offset=".66" stop-color="#484F56"/></linearGradient><linearGradient id="paint3_linear_8010_179256" x1="141" x2="141" y1="38" y2="65" gradientUnits="userSpaceOnUse"><stop stop-color="#3A4046" stop-opacity="0"/><stop offset=".66" stop-color="#484F56"/></linearGradient><linearGradient id="paint4_linear_8010_179256" x1="169" x2="169" y1="38" y2="65" gradientUnits="userSpaceOnUse"><stop stop-color="#3A4046" stop-opacity="0"/><stop offset=".66" stop-color="#484F56"/></linearGradient><linearGradient id="paint5_linear_8010_179256" x1="197" x2="197" y1="38" y2="65" gradientUnits="userSpaceOnUse"><stop stop-color="#3A4046" stop-opacity="0"/><stop offset=".66" stop-color="#484F56"/></linearGradient><linearGradient id="paint6_linear_8010_179256" x1="14" x2="14" y1="0" y2="27" gradientUnits="userSpaceOnUse"><stop stop-color="#3A4046" stop-opacity="0"/><stop offset=".66" stop-color="#484F56"/></linearGradient><linearGradient id="paint7_linear_8010_179256" x1="14" x2="14" y1="0" y2="27" gradientUnits="userSpaceOnUse"><stop stop-color="#3A4046" stop-opacity="0"/><stop offset=".66" stop-color="#484F56"/></linearGradient><linearGradient id="paint8_linear_8010_179256" x1="14" x2="14" y1="0" y2="27" gradientUnits="userSpaceOnUse"><stop stop-color="#3A4046" stop-opacity="0"/><stop offset=".66" stop-color="#484F56"/></linearGradient><linearGradient id="paint9_linear_8010_179256" x1="14" x2="14" y1="0" y2="27" gradientUnits="userSpaceOnUse"><stop stop-color="#3A4046" stop-opacity="0"/><stop offset=".66" stop-color="#484F56"/></linearGradient><linearGradient id="paint10_linear_8010_179256" x1="14" x2="14" y1="0" y2="27" gradientUnits="userSpaceOnUse"><stop stop-color="#3A4046" stop-opacity="0"/><stop offset=".66" stop-color="#484F56"/></linearGradient><linearGradient id="paint11_linear_8010_179256" x1="14" x2="14" y1="0" y2="27" gradientUnits="userSpaceOnUse"><stop stop-color="#3A4046" stop-opacity="0"/><stop offset=".66" stop-color="#484F56"/></linearGradient><linearGradient id="paint12_linear_8010_179256" x1="14" x2="14" y1="0" y2="27" gradientUnits="userSpaceOnUse"><stop stop-color="#3A4046" stop-opacity="0"/><stop offset=".66" stop-color="#484F56"/></linearGradient></defs></svg>