<svg xmlns="http://www.w3.org/2000/svg" width="262" height="192" fill="none" viewBox="0 0 262 192"><rect width="261" height="191" x=".5" y=".5" fill="#313539" rx="11.5"/><rect width="261" height="191" x=".5" y=".5" stroke="#42474E" rx="11.5"/><g clip-path="url(#clip0_8193_45116)"><circle cx="10.458" cy="10.457" r="2.614" fill="#42474E"/><circle cx="18.301" cy="10.457" r="2.614" fill="#42474E"/><circle cx="26.143" cy="10.457" r="2.614" fill="#42474E"/><circle cx="250.972" cy="10.457" r="2.614" fill="#42474E"/><rect width="120.257" height="5.229" x="70.586" y="7.843" fill="#42474E" rx="2.614"/><g opacity=".3"><rect width="107" height="11" x="24" y="35" fill="#60666F" rx="5.5"/><rect width="91" height="11" x="24" y="49" fill="#60666F" rx="5.5"/><rect width="8" height="8" x="25" y="79" fill="#60666F" rx="4"/><rect width="52" height="4" x="37" y="81" fill="#60666F" rx="2"/><rect width="42" height="3" x="203" y="35" fill="#42474E" rx="1.5"/><rect width="94" height="2" x="37" y="90" fill="#42474E" rx="1"/><rect width="39" height="3" x="203" y="40" fill="#42474E" rx="1.5"/><rect width="77" height="2" x="37" y="94" fill="#42474E" rx="1"/><rect width="59" height="2" x="37" y="98" fill="#42474E" rx="1"/><rect width="8" height="8" x="25" y="112" fill="#60666F" rx="4"/><rect width="52" height="4" x="37" y="114" fill="#60666F" rx="2"/><rect width="94" height="2" x="37" y="123" fill="#42474E" rx="1"/><rect width="77" height="2" x="37" y="127" fill="#42474E" rx="1"/><rect width="82" height="2" x="37" y="131" fill="#42474E" rx="1"/><rect width="8" height="8" x="25" y="143" fill="#60666F" rx="4"/><rect width="52" height="4" x="37" y="145" fill="#60666F" rx="2"/><rect width="94" height="2" x="37" y="154" fill="#42474E" rx="1"/><rect width="77" height="2" x="37" y="158" fill="#42474E" rx="1"/><rect width="59" height="2" x="37" y="162" fill="#42474E" rx="1"/><rect width="1" height="23" x="28.5" y="88" fill="#42474E" rx=".5"/><rect width="1" height="21" x="28.5" y="121" fill="#42474E" rx=".5"/><rect width="42" height="10" x="203" y="49" fill="#AAB2C0" rx="5"/><rect width="84" height="90" x="161" y="74" fill="#393F44" rx="5.229"/></g></g><rect width="218.137" height="18.137" x="24.431" y="22.431" fill="#363A3E" rx="9.068"/><rect width="218.137" height="18.137" x="24.431" y="22.431" stroke="#42474E" stroke-width=".863" rx="9.068"/><rect width="8.631" height="8.631" x="129.298" y="26.946" fill="#60666F" rx="4.315"/><rect width="21.577" height="8.631" x="208.702" y="26.946" fill="#60666F" rx="4.315"/><rect width="21.577" height="8.631" x="184.536" y="26.946" fill="#DCE2ED" fill-opacity=".7" rx="4.315"/><rect width="19.851" height="3.452" x="44.714" y="29.536" fill="#42474E" rx="1.726"/><rect width="17.262" height="3.452" x="68.018" y="29.536" fill="#42474E" rx="1.726"/><rect width="16.399" height="3.452" x="88.732" y="29.536" fill="#42474E" rx="1.726"/><rect width="218.363" height="103.571" x="24.431" y="40.431" fill="#363A3E" rx="9.926"/><rect width="218.363" height="103.571" x="24.431" y="40.431" stroke="#42474E" stroke-width=".863" rx="9.926"/><rect width="74.226" height="40.566" x="41.262" y="55.536" fill="#52575F" rx="11.282"/><rect width="21.577" height="8.631" x="208.702" y="120.268" fill="#60666F" rx="4.315"/><rect width="21.577" height="8.631" x="182.809" y="120.268" fill="#60666F" rx="4.315"/><rect width="26.756" height="3.452" x="125.845" y="55.536" fill="#42474E" rx="1.726"/><rect width="33.661" height="1.726" x="125.845" y="65.893" fill="#42474E" rx=".863"/><rect width="25.03" height="1.726" x="125.845" y="75.387" fill="#42474E" rx=".863"/><rect width="31.071" height="1.726" x="125.845" y="84.881" fill="#42474E" rx=".863"/><rect width="26.756" height="1.726" x="125.845" y="94.375" fill="#42474E" rx=".863"/><rect width="33.661" height="1.726" x="170.726" y="65.893" fill="#42474E" rx=".863"/><rect width="25.03" height="1.726" x="170.726" y="75.387" fill="#42474E" rx=".863"/><rect width="31.071" height="1.726" x="170.726" y="84.881" fill="#42474E" rx=".863"/><rect width="26.756" height="1.726" x="170.726" y="94.375" fill="#42474E" rx=".863"/><rect width="25.03" height="1.726" x="210.428" y="65.893" fill="#42474E" rx=".863"/><rect width="18.988" height="1.726" x="210.428" y="75.387" fill="#42474E" rx=".863"/><rect width="23.304" height="1.726" x="210.428" y="84.881" fill="#42474E" rx=".863"/><rect width="19.851" height="1.726" x="210.428" y="94.375" fill="#42474E" rx=".863"/><rect width="23.304" height="3.452" x="169.863" y="55.536" fill="#42474E" rx="1.726"/><rect width="23.304" height="3.452" x="210.428" y="55.536" fill="#42474E" rx="1.726"/><rect width="185.565" height=".863" x="48.167" y="103.869" fill="#42474E" rx=".432"/><rect width="32.798" height="3.452" x="68.881" y="112.5" fill="#42474E" rx="1.726"/><rect width="43.155" height="1.726" x="68.881" y="121.994" fill="#42474E" rx=".863"/><rect width="39.702" height="1.726" x="68.881" y="125.447" fill="#42474E" rx=".863"/><rect width="18.125" height="18.125" x="44.714" y="110.774" fill="#60666F" rx="9.063"/><rect width="32.798" height="3.452" x="136.202" y="112.5" fill="#42474E" rx="1.726"/><rect width="43.155" height="1.726" x="136.202" y="121.994" fill="#42474E" rx=".863"/><rect width="39.702" height="1.726" x="136.202" y="125.447" fill="#42474E" rx=".863"/><rect width="18.125" height="18.125" x="112.036" y="110.774" fill="#60666F" rx="9.063"/><defs><clipPath id="clip0_8193_45116"><rect width="245.743" height="170.157" fill="#fff" transform="translate(7.84351 7.8429)"/></clipPath></defs></svg>