<svg xmlns="http://www.w3.org/2000/svg" width="262" height="187" fill="none" viewBox="0 0 262 187"><rect width="261" height="39" x=".5" y=".5" fill="#313539" rx="11.5"/><rect width="261" height="39" x=".5" y=".5" stroke="#42474E" rx="11.5"/><rect width="26" height="10" x="24" y="15" fill="#60666F" rx="5"/><rect width="25" height="10" x="218" y="15" fill="#DCE2ED" rx="5"/><rect width="25" height="10" x="218" y="15" fill="#60666F" rx="5"/><rect width="25" height="10" x="190" y="15" fill="#42474E" rx="5"/><rect width="23" height="4" x="104" y="18" fill="#42474E" rx="2"/><rect width="20" height="4" x="131" y="18" fill="#42474E" rx="2"/><rect width="29" height="4" x="155" y="18" fill="#42474E" rx="2"/><rect width="261" height="39" x=".5" y="49.5" fill="#313539" rx="11.5"/><rect width="261" height="39" x=".5" y="49.5" stroke="#42474E" rx="11.5"/><rect width="10" height="10" x="126" y="64" fill="#60666F" rx="5"/><rect width="25" height="10" x="218" y="64" fill="#DCE2ED" rx="5"/><rect width="25" height="10" x="218" y="64" fill="#60666F" rx="5"/><rect width="25" height="10" x="190" y="64" fill="#42474E" rx="5"/><rect width="23" height="4" x="24" y="67" fill="#42474E" rx="2"/><rect width="20" height="4" x="51" y="67" fill="#42474E" rx="2"/><rect width="19" height="4" x="75" y="67" fill="#42474E" rx="2"/><rect width="261" height="39" x=".5" y="98.5" fill="#313539" rx="11.5"/><rect width="261" height="39" x=".5" y="98.5" stroke="#42474E" rx="11.5"/><rect width="10" height="10" x="24" y="113" fill="#60666F" rx="5"/><rect width="25" height="10" x="218" y="113" fill="#DCE2ED" rx="5"/><rect width="25" height="10" x="218" y="113" fill="#60666F" rx="5"/><rect width="23" height="4" x="118" y="116" fill="#42474E" rx="2"/><rect width="20" height="4" x="145" y="116" fill="#42474E" rx="2"/><rect width="19" height="4" x="169" y="116" fill="#42474E" rx="2"/><rect width="20" height="4" x="192" y="116" fill="#42474E" rx="2"/><rect width="261" height="39" x=".5" y="147.5" fill="#313539" rx="11.5"/><rect width="261" height="39" x=".5" y="147.5" stroke="#42474E" rx="11.5"/><rect width="25" height="10" x="24" y="162" fill="#60666F" rx="5"/><rect width="25" height="10" x="218" y="162" fill="#DCE2ED" rx="5"/><rect width="25" height="10" x="218" y="162" fill="#60666F" rx="5"/><rect width="57" height="10" x="157" y="162" fill="#42474E" rx="5"/><rect width="23" height="4" x="56" y="165" fill="#42474E" rx="2"/><rect width="20" height="4" x="83" y="165" fill="#42474E" rx="2"/><rect width="19" height="4" x="107" y="165" fill="#42474E" rx="2"/></svg>