<svg xmlns="http://www.w3.org/2000/svg" width="262" height="187" fill="none" viewBox="0 0 262 187"><rect width="261" height="186" x=".5" y=".5" fill="#fff" rx="11.5"/><rect width="261" height="186" x=".5" y=".5" stroke="#E9EDF5" rx="11.5"/><circle cx="10.458" cy="10.457" r="2.614" fill="#DCE2ED"/><circle cx="18.3" cy="10.457" r="2.614" fill="#DCE2ED"/><circle cx="26.144" cy="10.457" r="2.614" fill="#DCE2ED"/><circle cx="26.144" cy="10.457" r="2.614" fill="#DCE2ED"/><circle cx="250.972" cy="10.457" r="2.614" fill="#DCE2ED"/><rect width="120.257" height="5.229" x="70.586" y="7.843" fill="#DCE2ED" rx="2.614"/><rect width="107.186" height="10.457" x="78" y="71" fill="#DCE2ED" rx="5.229"/><rect width="91.5" height="10.457" x="86" y="84.072" fill="#DCE2ED" rx="5.229"/><rect width="157" height="3.921" x="53" y="100" fill="#E9EDF5" rx="1.961"/><rect width="142.415" height="3" x="60" y="107" fill="#E9EDF5" rx="1.5"/><rect width="123.541" height="4" x="70" y="113" fill="#E9EDF5" rx="2"/><rect width="40" height="13" x="111" y="133" fill="#AAB2C0" rx="6.5"/><rect width="18" height="18" x="122" y="39" fill="#DCE2ED" rx="9"/></svg>