<svg xmlns="http://www.w3.org/2000/svg" width="262" height="187" fill="none" viewBox="0 0 262 187"><rect width="261" height="186" x=".5" y=".5" fill="#fff" rx="11.5"/><rect width="261" height="186" x=".5" y=".5" stroke="#E9EDF5" rx="11.5"/><circle cx="10.458" cy="10.457" r="2.614" fill="#DCE2ED"/><circle cx="18.3" cy="10.457" r="2.614" fill="#DCE2ED"/><circle cx="26.144" cy="10.457" r="2.614" fill="#DCE2ED"/><circle cx="250.972" cy="10.457" r="2.614" fill="#DCE2ED"/><rect width="120.257" height="5.229" x="70.586" y="7.843" fill="#DCE2ED" rx="2.614"/><rect width="107" height="11" x="24" y="35" fill="#DCE2ED" rx="5.5"/><rect width="91" height="11" x="24" y="49" fill="#DCE2ED" rx="5.5"/><rect width="42" height="3" x="203" y="35" fill="#E9EDF5" rx="1.5"/><rect width="39" height="3" x="203" y="40" fill="#E9EDF5" rx="1.5"/><rect width="42" height="10" x="203" y="49" fill="#AAB2C0" rx="5"/><rect width="72" height="93" x="24" y="78" fill="#F2F5FA" rx="5.229"/><rect width="58" height="8" x="27" y="148" fill="#DCE2ED" rx="4"/><rect width="64" height="3" x="27" y="159" fill="#E9EDF5" rx="1.5"/><rect width="55" height="3" x="27" y="164" fill="#E9EDF5" rx="1.5"/><rect width="66" height="64" x="27" y="81" fill="#DCE2ED" fill-opacity=".5" rx="5.229"/><rect width="72" height="93" x="100" y="78" fill="#F2F5FA" rx="5.229"/><rect width="48" height="8" x="103" y="148" fill="#DCE2ED" rx="4"/><rect width="64" height="3" x="103" y="159" fill="#E9EDF5" rx="1.5"/><rect width="55" height="3" x="103" y="164" fill="#E9EDF5" rx="1.5"/><rect width="66" height="64" x="103" y="81" fill="#DCE2ED" fill-opacity=".5" rx="5.229"/><rect width="72" height="93" x="176" y="78" fill="#F2F5FA" rx="5.229"/><rect width="64" height="8" x="179" y="148" fill="#DCE2ED" rx="4"/><rect width="64" height="3" x="179" y="159" fill="#E9EDF5" rx="1.5"/><rect width="55" height="3" x="179" y="164" fill="#E9EDF5" rx="1.5"/><rect width="66" height="64" x="179" y="81" fill="#DCE2ED" fill-opacity=".5" rx="5.229"/></svg>