<svg xmlns="http://www.w3.org/2000/svg" width="262" height="192" fill="none" viewBox="0 0 262 192"><rect width="261" height="191" x=".5" y=".5" fill="#313539" rx="11.5"/><rect width="261" height="191" x=".5" y=".5" stroke="#42474E" rx="11.5"/><circle cx="10.458" cy="10.457" r="2.614" fill="#42474E"/><circle cx="18.301" cy="10.457" r="2.614" fill="#42474E"/><circle cx="26.143" cy="10.457" r="2.614" fill="#42474E"/><circle cx="250.972" cy="10.457" r="2.614" fill="#42474E"/><rect width="120.257" height="5.229" x="70.586" y="7.843" fill="#42474E" rx="2.614"/><rect width="107" height="11" x="24" y="35" fill="#60666F" rx="5.5"/><rect width="91" height="11" x="24" y="49" fill="#60666F" rx="5.5"/><rect width="42" height="3" x="203" y="35" fill="#42474E" rx="1.5"/><rect width="39" height="3" x="203" y="40" fill="#42474E" rx="1.5"/><rect width="42" height="10" x="203" y="49" fill="#60666F" rx="5"/><rect width="72" height="93" x="24" y="78" fill="#373C41" rx="5.229"/><rect width="58" height="8" x="27" y="148" fill="#60666F" rx="4"/><rect width="64" height="3" x="27" y="159" fill="#42474E" rx="1.5"/><rect width="55" height="3" x="27" y="164" fill="#42474E" rx="1.5"/><rect width="66" height="64" x="27" y="81" fill="#60666F" fill-opacity=".5" rx="5.229"/><rect width="72" height="93" x="100" y="78" fill="#373C41" rx="5.229"/><rect width="48" height="8" x="103" y="148" fill="#60666F" rx="4"/><rect width="64" height="3" x="103" y="159" fill="#42474E" rx="1.5"/><rect width="55" height="3" x="103" y="164" fill="#42474E" rx="1.5"/><rect width="66" height="64" x="103" y="81" fill="#60666F" fill-opacity=".5" rx="5.229"/><rect width="72" height="93" x="176" y="78" fill="#373C41" rx="5.229"/><rect width="64" height="8" x="179" y="148" fill="#60666F" rx="4"/><rect width="64" height="3" x="179" y="159" fill="#42474E" rx="1.5"/><rect width="55" height="3" x="179" y="164" fill="#42474E" rx="1.5"/><rect width="66" height="64" x="179" y="81" fill="#60666F" fill-opacity=".5" rx="5.229"/></svg>