<svg width="262" height="192" viewBox="0 0 262 192" fill="none" xmlns="http://www.w3.org/2000/svg">
<rect x="0.5" y="0.5" width="261" height="191" rx="11.5" fill="#313539"/>
<rect x="0.5" y="0.5" width="261" height="191" rx="11.5" stroke="#42474E"/>
<circle cx="10.458" cy="10.4571" r="2.61429" fill="#42474E"/>
<circle cx="18.2998" cy="10.4571" r="2.61429" fill="#42474E"/>
<circle cx="26.1436" cy="10.4571" r="2.61429" fill="#42474E"/>
<circle cx="250.972" cy="10.4571" r="2.61429" fill="#42474E"/>
<rect x="70.5859" y="7.84277" width="120.257" height="5.22857" rx="2.61429" fill="#42474E"/>
<rect x="112" y="42" width="45" height="8" rx="4" fill="#60666F"/>
<rect x="88" y="53" width="93" height="3" rx="1.5" fill="#42474E"/>
<rect x="95" y="58" width="79" height="3" rx="1.5" fill="#42474E"/>
<rect x="116" y="108" width="37.9071" height="10.4571" rx="5.22857" fill="#60666F"/>
<rect x="106" y="124" width="57" height="3" rx="1.5" fill="#42474E"/>
<rect x="91" y="167" width="21" height="3" rx="1.5" fill="#42474E"/>
<rect x="120" y="167" width="21" height="3" rx="1.5" fill="#42474E"/>
<rect x="149" y="167" width="21" height="3" rx="1.5" fill="#42474E"/>
<rect x="81" y="77" width="24" height="3" rx="1.5" fill="#60666F"/>
<rect x="81" y="82" width="16.1667" height="14" rx="2" fill="#60666F" fill-opacity="0.7"/>
<rect x="99.1667" y="82" width="16.1667" height="14" rx="2" fill="#60666F" fill-opacity="0.7"/>
<rect x="117.333" y="82" width="16.1667" height="14" rx="2" fill="#60666F" fill-opacity="0.7"/>
<rect x="135.5" y="82" width="16.1667" height="14" rx="2" fill="#60666F" fill-opacity="0.7"/>
<rect x="153.667" y="82" width="16.1667" height="14" rx="2" fill="#60666F" fill-opacity="0.7"/>
<rect x="171.833" y="82" width="16.1667" height="14" rx="2" fill="#60666F" fill-opacity="0.7"/>
</svg>
