<svg xmlns="http://www.w3.org/2000/svg" width="262" height="187" fill="none" viewBox="0 0 262 187"><rect width="261" height="186" x=".5" y=".5" fill="#fff" rx="11.5"/><rect width="261" height="186" x=".5" y=".5" stroke="#E9EDF5" rx="11.5"/><circle cx="10.458" cy="10.457" r="2.614" fill="#DCE2ED"/><circle cx="18.3" cy="10.457" r="2.614" fill="#DCE2ED"/><circle cx="26.144" cy="10.457" r="2.614" fill="#DCE2ED"/><circle cx="250.972" cy="10.457" r="2.614" fill="#DCE2ED"/><rect width="120.257" height="5.229" x="70.586" y="7.843" fill="#DCE2ED" rx="2.614"/><rect width="45" height="8" x="112" y="42" fill="#DCE2ED" rx="4"/><rect width="93" height="3" x="88" y="53" fill="#E0E6F2" rx="1.5"/><rect width="79" height="3" x="95" y="58" fill="#E0E6F2" rx="1.5"/><rect width="37.907" height="10.457" x="116" y="108" fill="#AAB2C0" rx="5.229"/><rect width="57" height="3" x="106" y="124" fill="#DCE2ED" rx="1.5"/><rect width="21" height="3" x="91" y="167" fill="#DCE2ED" rx="1.5"/><rect width="21" height="3" x="120" y="167" fill="#DCE2ED" rx="1.5"/><rect width="21" height="3" x="149" y="167" fill="#DCE2ED" rx="1.5"/><rect width="24" height="3" x="81" y="77" fill="#DCE2ED" rx="1.5"/><rect width="16.167" height="14" x="81" y="82" fill="#DCE2ED" fill-opacity=".7" rx="2"/><rect width="16.167" height="14" x="99.166" y="82" fill="#DCE2ED" fill-opacity=".7" rx="2"/><rect width="16.167" height="14" x="117.334" y="82" fill="#DCE2ED" fill-opacity=".7" rx="2"/><rect width="16.167" height="14" x="135.5" y="82" fill="#DCE2ED" fill-opacity=".7" rx="2"/><rect width="16.167" height="14" x="153.666" y="82" fill="#DCE2ED" fill-opacity=".7" rx="2"/><rect width="16.167" height="14" x="171.834" y="82" fill="#DCE2ED" fill-opacity=".7" rx="2"/></svg>