<svg xmlns="http://www.w3.org/2000/svg" width="262" height="187" fill="none" viewBox="0 0 262 187"><rect width="261" height="186" x=".5" y=".5" fill="#fff" rx="11.5"/><rect width="261" height="186" x=".5" y=".5" stroke="#E9EDF5" rx="11.5"/><circle cx="10.458" cy="10.457" r="2.614" fill="#DCE2ED"/><circle cx="18.3" cy="10.457" r="2.614" fill="#DCE2ED"/><circle cx="26.144" cy="10.457" r="2.614" fill="#DCE2ED"/><circle cx="250.972" cy="10.457" r="2.614" fill="#DCE2ED"/><rect width="120.257" height="5.229" x="70.586" y="7.843" fill="#DCE2ED" rx="2.614"/><rect width="107" height="11" x="24" y="35" fill="#DCE2ED" rx="5.5"/><rect width="91" height="11" x="24" y="49" fill="#DCE2ED" rx="5.5"/><rect width="8" height="8" x="25" y="79" fill="#DCE2ED" rx="4"/><rect width="52" height="4" x="37" y="81" fill="#DCE2ED" rx="2"/><rect width="42" height="3" x="203" y="35" fill="#E9EDF5" rx="1.5"/><rect width="94" height="2" x="37" y="90" fill="#E9EDF5" rx="1"/><rect width="39" height="3" x="203" y="40" fill="#E9EDF5" rx="1.5"/><rect width="77" height="2" x="37" y="94" fill="#E9EDF5" rx="1"/><rect width="59" height="2" x="37" y="98" fill="#E9EDF5" rx="1"/><rect width="8" height="8" x="25" y="112" fill="#DCE2ED" rx="4"/><rect width="52" height="4" x="37" y="114" fill="#DCE2ED" rx="2"/><rect width="94" height="2" x="37" y="123" fill="#E9EDF5" rx="1"/><rect width="77" height="2" x="37" y="127" fill="#E9EDF5" rx="1"/><rect width="82" height="2" x="37" y="131" fill="#E9EDF5" rx="1"/><rect width="8" height="8" x="25" y="143" fill="#DCE2ED" rx="4"/><rect width="52" height="4" x="37" y="145" fill="#DCE2ED" rx="2"/><rect width="94" height="2" x="37" y="154" fill="#E9EDF5" rx="1"/><rect width="77" height="2" x="37" y="158" fill="#E9EDF5" rx="1"/><rect width="59" height="2" x="37" y="162" fill="#E9EDF5" rx="1"/><rect width="1" height="23" x="28.5" y="88" fill="#E9EDF5" rx=".5"/><rect width="1" height="21" x="28.5" y="121" fill="#E9EDF5" rx=".5"/><rect width="42" height="10" x="203" y="49" fill="#AAB2C0" rx="5"/><rect width="84" height="90" x="161" y="74" fill="#F2F5FA" rx="5.229"/></svg>