<svg xmlns="http://www.w3.org/2000/svg" width="262" height="192" fill="none" viewBox="0 0 262 192"><rect width="261" height="191" x=".5" y=".5" fill="#313539" rx="11.5"/><rect width="261" height="191" x=".5" y=".5" stroke="#42474E" rx="11.5"/><circle cx="10.458" cy="10.457" r="2.614" fill="#42474E"/><circle cx="18.3" cy="10.457" r="2.614" fill="#42474E"/><circle cx="26.144" cy="10.457" r="2.614" fill="#42474E"/><circle cx="250.972" cy="10.457" r="2.614" fill="#42474E"/><rect width="120.257" height="5.229" x="70.586" y="7.843" fill="#42474E" rx="2.614"/><rect width="45" height="8" x="108" y="30" fill="#60666F" rx="4"/><rect width="93" height="3" x="84" y="41" fill="#42474E" rx="1.5"/><rect width="79" height="3" x="91" y="46" fill="#42474E" rx="1.5"/><rect width="37.907" height="10.457" x="115" y="144" fill="#60666F" rx="5.229"/><rect width="40" height="3" x="81" y="119" fill="#60666F" rx="1.5"/><rect width="107" height="10" x="81" y="124" fill="#60666F" fill-opacity=".4" rx="2"/><rect width="57" height="3" x="107" y="160" fill="#60666F" fill-opacity=".4" rx="1.5"/><rect width="45.5" height="1" x="82" y="86" fill="#60666F" fill-opacity=".4" rx=".5"/><rect width="11" height="5" x="129.5" y="84" fill="#60666F" fill-opacity=".4" rx="2"/><rect width="45.5" height="1" x="142.5" y="86" fill="#60666F" fill-opacity=".4" rx=".5"/><rect width="24" height="3" x="81" y="98" fill="#60666F" rx="1.5"/><rect width="107" height="10" x="81" y="103" fill="#60666F" fill-opacity=".4" rx="2"/><rect width="33" height="10" x="81" y="66" fill="#60666F" fill-opacity=".6" rx="2"/><rect width="33" height="10" x="118" y="66" fill="#60666F" fill-opacity=".6" rx="2"/><rect width="33" height="10" x="155" y="66" fill="#60666F" fill-opacity=".6" rx="2"/></svg>