<svg xmlns="http://www.w3.org/2000/svg" width="262" height="187" fill="none" viewBox="0 0 262 187"><g clip-path="url(#clip0_4318_7768)"><rect width="262" height="187" fill="#fff" rx="12"/><circle cx="10.458" cy="10.457" r="2.614" fill="#DCE2ED"/><circle cx="18.3" cy="10.457" r="2.614" fill="#DCE2ED"/><circle cx="26.144" cy="10.457" r="2.614" fill="#DCE2ED"/><circle cx="250.972" cy="10.457" r="2.614" fill="#DCE2ED"/><rect width="120.257" height="5.229" x="70.586" y="7.843" fill="#DCE2ED" rx="2.614"/><rect width="155" height="10" x="53" y="52" fill="#DCE2ED" rx="5"/><rect width="37.907" height="10.457" x="132" y="106" fill="#F2F5FA" rx="5.229"/><rect width="37.907" height="10.457" x="92" y="106.121" fill="#DCE2ED" rx="5.229"/><rect width="132" height="10" x="63" y="65" fill="#DCE2ED" rx="5"/><rect width="90" height="4" x="84" y="80" fill="#F2F5FA" rx="2"/><rect width="75" height="4" x="92" y="87" fill="#F2F5FA" rx="2"/><rect width="87" height="89" x="29" y="148" fill="#F2F5FA" rx="4"/><rect width="106" height="89" x="121" y="148" fill="#F2F5FA" fill-opacity=".4" rx="4"/></g><rect width="261" height="186" x=".5" y=".5" stroke="#E9EDF5" rx="11.5"/><defs><clipPath id="clip0_4318_7768"><rect width="262" height="187" fill="#fff" rx="12"/></clipPath></defs></svg>