<svg xmlns="http://www.w3.org/2000/svg" width="262" height="192" fill="none" viewBox="0 0 262 192"><g clip-path="url(#clip0_8010_179805)"><rect width="262" height="192" fill="#313539" rx="12"/><circle cx="10.458" cy="10.457" r="2.614" fill="#42474E"/><circle cx="18.301" cy="10.457" r="2.614" fill="#42474E"/><circle cx="26.143" cy="10.457" r="2.614" fill="#42474E"/><circle cx="250.972" cy="10.457" r="2.614" fill="#42474E"/><rect width="120.257" height="5.229" x="70.586" y="7.843" fill="#42474E" rx="2.614"/><rect width="155" height="10" x="53" y="52" fill="#60666F" rx="5"/><rect width="37.907" height="10.457" x="132" y="106" fill="#60666F" rx="5.229"/><rect width="37.907" height="10.457" x="92" y="106.121" fill="#42474E" rx="5.229"/><rect width="132" height="10" x="63" y="65" fill="#60666F" rx="5"/><rect width="90" height="4" x="84" y="80" fill="#42474E" rx="2"/><rect width="75" height="4" x="92" y="87" fill="#42474E" rx="2"/><rect width="87" height="89" x="29" y="148" fill="#42474E" opacity=".4" rx="4"/><rect width="106" height="89" x="121" y="148" fill="#42474E" opacity=".4" rx="4"/></g><rect width="261" height="191" x=".5" y=".5" stroke="#42474E" rx="11.5"/><defs><clipPath id="clip0_8010_179805"><rect width="262" height="192" fill="#fff" rx="12"/></clipPath></defs></svg>