<svg xmlns="http://www.w3.org/2000/svg" width="262" height="192" fill="none" viewBox="0 0 262 192"><rect width="261" height="191" x=".5" y=".5" fill="#313539" rx="11.5"/><rect width="261" height="191" x=".5" y=".5" stroke="#42474E" rx="11.5"/><circle cx="10.458" cy="10.457" r="2.614" fill="#42474E"/><circle cx="18.301" cy="10.457" r="2.614" fill="#42474E"/><circle cx="26.143" cy="10.457" r="2.614" fill="#42474E"/><circle cx="250.972" cy="10.457" r="2.614" fill="#42474E"/><rect width="120.257" height="5.229" x="70.586" y="7.843" fill="#42474E" rx="2.614"/><rect width="107" height="8" x="24" y="29" fill="#60666F" rx="4"/><rect width="91" height="8" x="24" y="40" fill="#60666F" rx="4"/><rect width="51" height="3" x="187" y="30" fill="#42474E" rx="1.5"/><rect width="47" height="3" x="187" y="35" fill="#42474E" rx="1.5"/><rect width="42" height="7" x="187" y="42" fill="#60666F" rx="3.5"/><rect width="51" height="55" x="24" y="65" fill="#373C41" rx="5.229"/><rect width="32" height="4" x="33" y="106" fill="#60666F" rx="2"/><rect width="36" height="3" x="31" y="112" fill="#42474E" rx="1.5"/><rect width="51" height="55" x="79" y="65" fill="#373C41" rx="5.229"/><rect width="32" height="4" x="88" y="106" fill="#60666F" rx="2"/><rect width="36" height="3" x="86" y="112" fill="#42474E" rx="1.5"/><rect width="51" height="55" x="134" y="65" fill="#373C41" rx="5.229"/><rect width="32" height="4" x="143" y="106" fill="#60666F" rx="2"/><rect width="36" height="3" x="141" y="112" fill="#42474E" rx="1.5"/><rect width="51" height="55" x="189" y="65" fill="#373C41" rx="5.229"/><rect width="32" height="4" x="198" y="106" fill="#60666F" rx="2"/><rect width="36" height="3" x="196" y="112" fill="#42474E" rx="1.5"/><rect width="51" height="55" x="24" y="124" fill="#373C41" rx="5.229"/><rect width="32" height="4" x="33" y="165" fill="#60666F" rx="2"/><rect width="36" height="3" x="31" y="171" fill="#42474E" rx="1.5"/><rect width="51" height="55" x="79" y="124" fill="#373C41" rx="5.229"/><rect width="32" height="4" x="88" y="165" fill="#60666F" rx="2"/><rect width="36" height="3" x="86" y="171" fill="#42474E" rx="1.5"/><rect width="51" height="55" x="134" y="124" fill="#373C41" rx="5.229"/><rect width="32" height="4" x="143" y="165" fill="#60666F" rx="2"/><rect width="36" height="3" x="141" y="171" fill="#42474E" rx="1.5"/><rect width="51" height="55" x="189" y="124" fill="#373C41" rx="5.229"/><rect width="32" height="4" x="198" y="165" fill="#60666F" rx="2"/><rect width="36" height="3" x="196" y="171" fill="#42474E" rx="1.5"/></svg>