<svg xmlns="http://www.w3.org/2000/svg" width="262" height="192" fill="none" viewBox="0 0 262 192"><g clip-path="url(#clip0_8010_179493)"><rect width="262" height="192" fill="#313539" rx="12"/><circle cx="10.458" cy="10.457" r="2.614" fill="#42474E"/><circle cx="18.3" cy="10.457" r="2.614" fill="#42474E"/><circle cx="26.144" cy="10.457" r="2.614" fill="#42474E"/><circle cx="250.972" cy="10.457" r="2.614" fill="#42474E"/><rect width="120.257" height="5.229" x="70.586" y="7.843" fill="#42474E" rx="2.614"/><rect width="107" height="8" x="77" y="33" fill="#60666F" rx="4"/><rect width="91" height="8" x="84" y="44" fill="#60666F" rx="4"/><rect width="137" height="95" x="62" y="66" fill="#373C41" rx="5.229"/><rect width="96" height="8" x="82" y="96" fill="#60666F" rx="4"/><rect width="85" height="8" x="87.5" y="107" fill="#60666F" rx="4"/><rect width="73" height="8" x="93.5" y="118" fill="#60666F" rx="4"/><rect width="12" height="12" x="109" y="137" fill="#60666F" rx="6"/><rect width="29" height="5" x="123" y="138.375" fill="#60666F" rx="2.5"/><rect width="24" height="2" x="123" y="145.625" fill="#60666F" rx="1"/><rect width="33" height="8" x="114" y="79" fill="#60666F" fill-opacity=".7" rx="4"/><g opacity=".4"><rect width="137" height="95" x="205" y="66" fill="#373C41" rx="5.229"/><rect width="96" height="8" x="225" y="96" fill="#60666F" rx="4"/><rect width="85" height="8" x="230.5" y="107" fill="#60666F" rx="4"/><rect width="73" height="8" x="236.5" y="118" fill="#60666F" rx="4"/><rect width="12" height="12" x="252" y="137" fill="#60666F" rx="6"/><rect width="33" height="8" x="257" y="79" fill="#60666F" fill-opacity=".7" rx="4"/></g><g opacity=".4"><rect width="137" height="95" x="-81" y="66" fill="#373C41" rx="5.229"/><rect width="96" height="8" x="-61" y="96" fill="#60666F" rx="4"/><rect width="85" height="8" x="-55.5" y="107" fill="#60666F" rx="4"/><rect width="73" height="8" x="-49.5" y="118" fill="#60666F" rx="4"/><rect width="29" height="5" x="-20" y="138.375" fill="#60666F" rx="2.5"/><rect width="24" height="2" x="-20" y="145.625" fill="#60666F" rx="1"/><rect width="33" height="8" x="-29" y="79" fill="#60666F" fill-opacity=".7" rx="4"/></g></g><rect width="261" height="191" x=".5" y=".5" stroke="#42474E" rx="11.5"/><defs><clipPath id="clip0_8010_179493"><rect width="262" height="192" fill="#fff" rx="12"/></clipPath></defs></svg>