<svg xmlns="http://www.w3.org/2000/svg" width="269" height="192" fill="none" viewBox="0 0 269 192"><rect width="268.005" height="191" x=".5" y=".5" fill="#fff" rx="11.5"/><rect width="268.005" height="191" x=".5" y=".5" stroke="#E9EDF5" rx="11.5"/><g clip-path="url(#clip0_3132_77434)"><circle cx="14.614" cy="10.457" r="2.614" fill="#DCE2ED"/><circle cx="22.457" cy="10.457" r="2.614" fill="#DCE2ED"/><circle cx="29.771" cy="10.457" r="2.614" fill="#DCE2ED"/><circle cx="255.129" cy="10.457" r="2.614" fill="#DCE2ED"/><rect width="120.257" height="5.229" x="78.743" y="7.843" fill="#DCE2ED" rx="2.614"/><g opacity=".2"><rect width="107.186" height="10.457" x="29.157" y="27.307" fill="#DCE2ED" rx="5.229"/><rect width="37.907" height="10.457" x="29.157" y="96.586" fill="#AAB2C0" rx="5.229"/><rect width="37.907" height="10.457" x="69.678" y="96.586" fill="#DCE2ED" rx="5.229"/><rect width="91.5" height="10.457" x="29.157" y="40.379" fill="#DCE2ED" rx="5.229"/><rect width="33.986" height="10.457" x="29.157" y="139.879" fill="#DCE2ED" rx="5.229"/><rect width="32.679" height="10.457" x="86.67" y="139.879" fill="#DCE2ED" rx="5.229"/><rect width="33.986" height="10.457" x="145.492" y="139.879" fill="#DCE2ED" rx="5.229"/><rect width="33.986" height="10.457" x="200.393" y="139.879" fill="#DCE2ED" rx="5.229"/><rect width="54.9" height="75.814" x="193.856" y="26" fill="#DCE2ED" rx="5.229"/><rect width="53.593" height="75.814" x="155.95" y="40.379" fill="#EEF1F5" fill-opacity=".4" rx="5.229"/><rect width="91.5" height="3.921" x="29.157" y="56.065" fill="#E9EDF5" rx="1.961"/><rect width="48.364" height="3.921" x="29.157" y="155.564" fill="#E9EDF5" rx="1.961"/><rect width="48.364" height="3.921" x="86.67" y="155.564" fill="#E9EDF5" rx="1.961"/><rect width="48.364" height="3.921" x="145.492" y="155.564" fill="#E9EDF5" rx="1.961"/><rect width="48.364" height="3.921" x="200.393" y="155.564" fill="#E9EDF5" rx="1.961"/><rect width="75.814" height="3.921" x="29.157" y="62.6" fill="#E9EDF5" rx="1.961"/><rect width="39.214" height="3.921" x="29.157" y="162.1" fill="#E9EDF5" rx="1.961"/><rect width="39.214" height="3.921" x="86.67" y="162.1" fill="#E9EDF5" rx="1.961"/><rect width="40.521" height="3.921" x="145.492" y="162.1" fill="#E9EDF5" rx="1.961"/><rect width="39.214" height="3.921" x="200.393" y="162.1" fill="#E9EDF5" rx="1.961"/></g><g filter="url(#filter0_d_3132_77434)"><rect width="223" height="34" x="26.157" y="25" fill="#EBEFF7" rx="4"/></g><rect width="113" height="3" x="34.157" y="42" fill="#D9E1F0" rx="1.5"/><rect width="108" height="3" x="34.157" y="47" fill="#D9E1F0" rx="1.5"/><rect width="99" height="6" x="34.157" y="32" fill="#D9E1F0" rx="3"/><rect width="32" height="12" x="171.157" y="38" fill="#AAB2C0" rx="6"/><rect width="33" height="12" x="206.157" y="38" fill="#DCE2ED" rx="6"/></g><defs><filter id="filter0_d_3132_77434" width="291" height="102" x="-7.843" y="-8" color-interpolation-filters="sRGB" filterUnits="userSpaceOnUse"><feFlood flood-opacity="0" result="BackgroundImageFix"/><feColorMatrix in="SourceAlpha" result="hardAlpha" type="matrix" values="0 0 0 0 0 0 0 0 0 0 0 0 0 0 0 0 0 0 127 0"/><feOffset dy="1"/><feGaussianBlur stdDeviation="17"/><feComposite in2="hardAlpha" operator="out"/><feColorMatrix type="matrix" values="0 0 0 0 0 0 0 0 0 0 0 0 0 0 0 0 0 0 0.05 0"/><feBlend in2="BackgroundImageFix" mode="normal" result="effect1_dropShadow_3132_77434"/><feBlend in="SourceGraphic" in2="effect1_dropShadow_3132_77434" mode="normal" result="shape"/></filter><clipPath id="clip0_3132_77434"><rect width="245.743" height="158.178" fill="#fff" transform="translate(12 7.84277)"/></clipPath></defs></svg>