<svg xmlns="http://www.w3.org/2000/svg" width="262" height="187" fill="none" viewBox="0 0 262 187"><rect width="261" height="186" x=".5" y=".5" fill="#fff" rx="11.5"/><rect width="261" height="186" x=".5" y=".5" stroke="#E9EDF5" rx="11.5"/><circle cx="10.458" cy="10.457" r="2.614" fill="#DCE2ED"/><circle cx="18.3" cy="10.457" r="2.614" fill="#DCE2ED"/><circle cx="26.144" cy="10.457" r="2.614" fill="#DCE2ED"/><circle cx="26.144" cy="10.457" r="2.614" fill="#DCE2ED"/><circle cx="250.972" cy="10.457" r="2.614" fill="#DCE2ED"/><rect width="120.257" height="5.229" x="70.586" y="7.843" fill="#DCE2ED" rx="2.614"/><rect width="45" height="10" x="17" y="41" fill="#DCE2ED" rx="5"/><rect width="88" height="20" x="152" y="41" fill="#DCE2ED" rx="10"/><rect width="11" height="2" x="71" y="42" fill="#DCE2ED" rx="1"/><rect width="11" height="2" x="71" y="56" fill="#DCE2ED" rx="1"/><rect width="11" height="2" x="71" y="70" fill="#DCE2ED" rx="1"/><rect width="10" height="2" x="97" y="42" fill="#DCE2ED" rx="1"/><rect width="10" height="2" x="97" y="56" fill="#DCE2ED" rx="1"/><rect width="10" height="2" x="97" y="70" fill="#DCE2ED" rx="1"/><rect width="12" height="2" x="122" y="42" fill="#DCE2ED" rx="1"/><rect width="12" height="2" x="122" y="56" fill="#DCE2ED" rx="1"/><rect width="12" height="2" x="122" y="70" fill="#DCE2ED" rx="1"/><rect width="21" height="4" x="71" y="45" fill="#E9EDF5" rx="2"/><rect width="21" height="4" x="71" y="59" fill="#E9EDF5" rx="2"/><rect width="21" height="4" x="71" y="73" fill="#E9EDF5" rx="2"/><rect width="20" height="4" x="97" y="45" fill="#E9EDF5" rx="2"/><rect width="20" height="4" x="97" y="59" fill="#E9EDF5" rx="2"/><rect width="20" height="4" x="97" y="73" fill="#E9EDF5" rx="2"/><rect width="21" height="4" x="122" y="45" fill="#E9EDF5" rx="2"/><rect width="21" height="4" x="122" y="59" fill="#E9EDF5" rx="2"/><rect width="21" height="4" x="122" y="73" fill="#E9EDF5" rx="2"/><rect width="45" height="10" x="17" y="90" fill="#DCE2ED" rx="5"/><rect width="76" height="15" x="152" y="90" fill="#DCE2ED" rx="7.5"/><rect width="11" height="2" x="71" y="91" fill="#DCE2ED" rx="1"/><rect width="11" height="2" x="71" y="105" fill="#DCE2ED" rx="1"/><rect width="11" height="2" x="71" y="119" fill="#DCE2ED" rx="1"/><rect width="10" height="2" x="97" y="91" fill="#DCE2ED" rx="1"/><rect width="10" height="2" x="97" y="105" fill="#DCE2ED" rx="1"/><rect width="10" height="2" x="97" y="119" fill="#DCE2ED" rx="1"/><rect width="12" height="2" x="122" y="91" fill="#DCE2ED" rx="1"/><rect width="12" height="2" x="122" y="105" fill="#DCE2ED" rx="1"/><rect width="12" height="2" x="122" y="119" fill="#DCE2ED" rx="1"/><rect width="21" height="4" x="71" y="94" fill="#E9EDF5" rx="2"/><rect width="21" height="4" x="71" y="108" fill="#E9EDF5" rx="2"/><rect width="21" height="4" x="71" y="122" fill="#E9EDF5" rx="2"/><rect width="20" height="4" x="97" y="94" fill="#E9EDF5" rx="2"/><rect width="20" height="4" x="97" y="108" fill="#E9EDF5" rx="2"/><rect width="20" height="4" x="97" y="122" fill="#E9EDF5" rx="2"/><rect width="21" height="4" x="122" y="94" fill="#E9EDF5" rx="2"/><rect width="21" height="4" x="122" y="108" fill="#E9EDF5" rx="2"/><rect width="21" height="4" x="122" y="122" fill="#E9EDF5" rx="2"/><rect width="45" height="10" x="17" y="139" fill="#DCE2ED" rx="5"/><rect width="65" height="10" x="152" y="139" fill="#DCE2ED" rx="5"/><rect width="11" height="2" x="71" y="140" fill="#DCE2ED" rx="1"/><rect width="11" height="2" x="71" y="154" fill="#DCE2ED" rx="1"/><rect width="11" height="2" x="71" y="168" fill="#DCE2ED" rx="1"/><rect width="10" height="2" x="97" y="140" fill="#DCE2ED" rx="1"/><rect width="10" height="2" x="97" y="154" fill="#DCE2ED" rx="1"/><rect width="10" height="2" x="97" y="168" fill="#DCE2ED" rx="1"/><rect width="12" height="2" x="122" y="140" fill="#DCE2ED" rx="1"/><rect width="12" height="2" x="122" y="154" fill="#DCE2ED" rx="1"/><rect width="12" height="2" x="122" y="168" fill="#DCE2ED" rx="1"/><rect width="21" height="4" x="71" y="143" fill="#E9EDF5" rx="2"/><rect width="21" height="4" x="71" y="157" fill="#E9EDF5" rx="2"/><rect width="21" height="4" x="71" y="171" fill="#E9EDF5" rx="2"/><rect width="20" height="4" x="97" y="143" fill="#E9EDF5" rx="2"/><rect width="20" height="4" x="97" y="157" fill="#E9EDF5" rx="2"/><rect width="20" height="4" x="97" y="171" fill="#E9EDF5" rx="2"/><rect width="21" height="4" x="122" y="143" fill="#E9EDF5" rx="2"/><rect width="21" height="4" x="122" y="157" fill="#E9EDF5" rx="2"/><rect width="21" height="4" x="122" y="171" fill="#E9EDF5" rx="2"/></svg>