<svg xmlns="http://www.w3.org/2000/svg" viewBox="0 0 800 400" fill="none">
  <rect width="800" height="400" fill="#041222"/>
  <path d="M98 162l42-14 18 10 24-6 18 22-12 20-28 6-24-12-30-26z" fill="rgba(33,150,243,0.35)"/>
  <path d="M238 148l46-12 32 10 20 18-14 32-40 12-36-16-8-44z" fill="rgba(59,130,246,0.35)"/>
  <path d="M386 134l70-14 44 10 18 26-16 24-58 20-48-8-10-58z" fill="rgba(129,140,248,0.3)"/>
  <path d="M560 160l50-20 48 4 30 28-24 38-68 18-40-12-20-56z" fill="rgba(94,234,212,0.28)"/>
  <path d="M332 236l36-10 28 16-8 32-42 6-24-14 10-30z" fill="rgba(45,212,191,0.3)"/>
</svg>
